kaputa.ufo
<glyph name="exclam" format="1">
  <advance width="1229"/>
  <unicode hex="0021"/>
  <note>
    exclam
  </note>
  <outline>
    <contour>
      <point x="638" y="434"/>
      <point x="654" y="449"/>
      <point x="657" y="492" type="curve" smooth="yes"/>
      <point x="695" y="1170" type="line" smooth="yes"/>
      <point x="696" y="1186"/>
      <point x="696" y="1197"/>
      <point x="696" y="1204" type="curve" smooth="yes"/>
      <point x="696" y="1251"/>
      <point x="662" y="1285"/>
      <point x="615" y="1285" type="curve" smooth="yes"/>
      <point x="568" y="1285"/>
      <point x="533" y="1250"/>
      <point x="533" y="1205" type="curve" smooth="yes"/>
      <point x="533" y="1198"/>
      <point x="534" y="1186"/>
      <point x="535" y="1170" type="curve" smooth="yes"/>
      <point x="572" y="492" type="line" smooth="yes"/>
      <point x="575" y="449"/>
      <point x="591" y="434"/>
      <point x="615" y="434" type="curve" smooth="yes"/>
    </contour>
    <contour>
      <point x="634" y="-30" type="line" smooth="yes"/>
      <point x="690" y="-30"/>
      <point x="738" y="15"/>
      <point x="738" y="74" type="curve" smooth="yes"/>
      <point x="738" y="131"/>
      <point x="691" y="178"/>
      <point x="634" y="178" type="curve" smooth="yes"/>
      <point x="595" y="178" type="line" smooth="yes"/>
      <point x="539" y="178"/>
      <point x="491" y="133"/>
      <point x="491" y="73" type="curve" smooth="yes"/>
      <point x="491" y="17"/>
      <point x="538" y="-30"/>
      <point x="595" y="-30" type="curve" smooth="yes"/>
    </contour>
  </outline>
</glyph>
<glyph name="quotedbl" format="1">
  <advance width="279"/>
  <unicode hex="0022"/>
  <note>
    quotedbl
  </note>
  <outline>
    <contour>
      <point x="207" y="326" type="line"/>
      <point x="209" y="348"/>
      <point x="214" y="384"/>
      <point x="220" y="418" type="curve" smooth="yes"/>
      <point x="226" y="452"/>
      <point x="232" y="483"/>
      <point x="235" y="494" type="curve"/>
      <point x="168" y="486" type="line"/>
      <point x="187" y="323" type="line"/>
    </contour>
    <contour>
      <point x="88" y="326" type="line"/>
      <point x="90" y="348"/>
      <point x="95" y="384"/>
      <point x="101" y="418" type="curve" smooth="yes"/>
      <point x="107" y="452"/>
      <point x="113" y="483"/>
      <point x="116" y="494" type="curve"/>
      <point x="49" y="486" type="line"/>
      <point x="67" y="323" type="line"/>
    </contour>
  </outline>
</glyph>
<glyph name="numbersign" format="1">
  <advance width="1229"/>
  <unicode hex="0023"/>
  <note>
    numbersign
  </note>
  <outline>
    <contour>
      <point x="449" y="-130"/>
      <point x="467" y="-116"/>
      <point x="470" y="-76" type="curve" smooth="yes"/>
      <point x="502" y="392" type="line"/>
      <point x="692" y="392" type="line"/>
      <point x="659" y="-70" type="line"/>
      <point x="659" y="-85" type="line" smooth="yes"/>
      <point x="659" y="-102"/>
      <point x="667" y="-116"/>
      <point x="684" y="-126" type="curve"/>
      <point x="701" y="-130" type="line"/>
      <point x="724" y="-130"/>
      <point x="740" y="-116"/>
      <point x="743" y="-76" type="curve" smooth="yes"/>
      <point x="776" y="392" type="line"/>
      <point x="943" y="392" type="line" smooth="yes"/>
      <point x="983" y="392"/>
      <point x="999" y="409"/>
      <point x="999" y="434" type="curve" smooth="yes"/>
      <point x="999" y="459"/>
      <point x="983" y="476"/>
      <point x="943" y="476" type="curve" smooth="yes"/>
      <point x="782" y="476" type="line"/>
      <point x="800" y="740" type="line"/>
      <point x="985" y="740" type="line" smooth="yes"/>
      <point x="1025" y="740"/>
      <point x="1041" y="757"/>
      <point x="1041" y="782" type="curve" smooth="yes"/>
      <point x="1041" y="807"/>
      <point x="1025" y="824"/>
      <point x="985" y="824" type="curve" smooth="yes"/>
      <point x="806" y="824" type="line"/>
      <point x="839" y="1286" type="line"/>
      <point x="840" y="1302" type="line"/>
      <point x="840" y="1318"/>
      <point x="831" y="1331"/>
      <point x="814" y="1342" type="curve"/>
      <point x="797" y="1346" type="line"/>
      <point x="774" y="1346"/>
      <point x="758" y="1331"/>
      <point x="755" y="1292" type="curve" smooth="yes"/>
      <point x="722" y="824" type="line"/>
      <point x="533" y="824" type="line"/>
      <point x="565" y="1286" type="line"/>
      <point x="566" y="1302" type="line"/>
      <point x="566" y="1318"/>
      <point x="558" y="1331"/>
      <point x="541" y="1342" type="curve"/>
      <point x="523" y="1346" type="line"/>
      <point x="502" y="1346"/>
      <point x="484" y="1331"/>
      <point x="481" y="1292" type="curve" smooth="yes"/>
      <point x="448" y="824" type="line"/>
      <point x="286" y="824" type="line" smooth="yes"/>
      <point x="245" y="824"/>
      <point x="229" y="807"/>
      <point x="229" y="782" type="curve" smooth="yes"/>
      <point x="229" y="757"/>
      <point x="245" y="740"/>
      <point x="286" y="740" type="curve" smooth="yes"/>
      <point x="442" y="740" type="line"/>
      <point x="424" y="476" type="line"/>
      <point x="243" y="476" type="line" smooth="yes"/>
      <point x="203" y="476"/>
      <point x="187" y="459"/>
      <point x="187" y="434" type="curve" smooth="yes"/>
      <point x="187" y="409"/>
      <point x="203" y="392"/>
      <point x="243" y="392" type="curve" smooth="yes"/>
      <point x="418" y="392" type="line"/>
      <point x="386" y="-70" type="line"/>
      <point x="385" y="-85" type="line"/>
      <point x="385" y="-102"/>
      <point x="393" y="-116"/>
      <point x="410" y="-126" type="curve"/>
      <point x="428" y="-130" type="line"/>
    </contour>
    <contour>
      <point x="527" y="740" type="line"/>
      <point x="716" y="740" type="line"/>
      <point x="698" y="476" type="line"/>
      <point x="508" y="476" type="line"/>
    </contour>
  </outline>
</glyph>
<glyph name="dollar" format="1">
  <advance width="600"/>
  <unicode hex="0024"/>
  <outline>
    <contour>
      <point x="111" y="93" type="line" smooth="yes"/>
      <point x="111" y="74"/>
      <point x="120" y="66"/>
      <point x="132" y="66" type="curve" smooth="yes"/>
      <point x="140" y="66"/>
      <point x="148" y="72"/>
      <point x="151" y="78" type="curve" smooth="yes"/>
      <point x="152" y="81"/>
      <point x="152" y="90"/>
      <point x="152" y="104" type="curve"/>
      <point x="187" y="75"/>
      <point x="229" y="59"/>
      <point x="279" y="55" type="curve"/>
      <point x="279" y="-65" type="line" smooth="yes"/>
      <point x="279" y="-85"/>
      <point x="287" y="-93"/>
      <point x="299" y="-93" type="curve" smooth="yes"/>
      <point x="312" y="-93"/>
      <point x="320" y="-85"/>
      <point x="320" y="-65" type="curve" smooth="yes"/>
      <point x="320" y="55" type="line"/>
      <point x="429" y="66"/>
      <point x="488" y="129"/>
      <point x="488" y="204" type="curve" smooth="yes"/>
      <point x="488" y="231"/>
      <point x="482" y="255"/>
      <point x="469" y="274" type="curve" smooth="yes"/>
      <point x="443" y="313"/>
      <point x="409" y="329"/>
      <point x="307" y="348" type="curve" smooth="yes"/>
      <point x="204" y="367"/>
      <point x="174" y="387"/>
      <point x="174" y="441" type="curve" smooth="yes"/>
      <point x="174" y="495"/>
      <point x="227" y="546"/>
      <point x="301" y="546" type="curve" smooth="yes"/>
      <point x="351" y="546"/>
      <point x="419" y="523"/>
      <point x="425" y="478" type="curve" smooth="yes"/>
      <point x="428" y="462"/>
      <point x="436" y="456"/>
      <point x="446" y="456" type="curve" smooth="yes"/>
      <point x="458" y="456"/>
      <point x="467" y="463"/>
      <point x="467" y="483" type="curve" smooth="yes"/>
      <point x="467" y="544" type="line" smooth="yes"/>
      <point x="467" y="563"/>
      <point x="458" y="571"/>
      <point x="446" y="571" type="curve" smooth="yes"/>
      <point x="435" y="571"/>
      <point x="426" y="563"/>
      <point x="425" y="547" type="curve"/>
      <point x="386" y="573"/>
      <point x="364" y="581"/>
      <point x="320" y="585" type="curve"/>
      <point x="320" y="637" type="line" smooth="yes"/>
      <point x="320" y="657"/>
      <point x="312" y="665"/>
      <point x="299" y="665" type="curve" smooth="yes"/>
      <point x="287" y="665"/>
      <point x="279" y="657"/>
      <point x="279" y="637" type="curve" smooth="yes"/>
      <point x="279" y="585" type="line"/>
      <point x="190" y="575"/>
      <point x="132" y="512"/>
      <point x="132" y="441" type="curve" smooth="yes"/>
      <point x="132" y="366"/>
      <point x="174" y="333"/>
      <point x="301" y="308" type="curve" smooth="yes"/>
      <point x="383" y="291"/>
      <point x="447" y="280"/>
      <point x="447" y="204" type="curve" smooth="yes"/>
      <point x="447" y="146"/>
      <point x="391" y="95"/>
      <point x="299" y="95" type="curve" smooth="yes"/>
      <point x="211" y="95"/>
      <point x="155" y="141"/>
      <point x="152" y="175" type="curve" smooth="yes"/>
      <point x="150" y="195"/>
      <point x="144" y="201"/>
      <point x="132" y="201" type="curve" smooth="yes"/>
      <point x="120" y="201"/>
      <point x="111" y="193"/>
      <point x="111" y="173" type="curve" smooth="yes"/>
    </contour>
  </outline>
</glyph>
<glyph name="percent" format="1">
  <advance width="1229"/>
  <unicode hex="0025"/>
  <note>
    percent
  </note>
  <outline>
    <contour>
      <point x="220" y="468"/>
      <point x="227" y="469"/>
      <point x="236" y="472" type="curve" smooth="yes"/>
      <point x="1014" y="725" type="line" smooth="yes"/>
      <point x="1038" y="733"/>
      <point x="1044" y="744"/>
      <point x="1044" y="757" type="curve" smooth="yes"/>
      <point x="1044" y="773"/>
      <point x="1030" y="787"/>
      <point x="1017" y="787" type="curve" smooth="yes"/>
      <point x="1012" y="787"/>
      <point x="1004" y="786"/>
      <point x="995" y="783" type="curve" smooth="yes"/>
      <point x="217" y="530" type="line" smooth="yes"/>
      <point x="193" y="522"/>
      <point x="187" y="511"/>
      <point x="187" y="498" type="curve" smooth="yes"/>
      <point x="187" y="482"/>
      <point x="200" y="468"/>
      <point x="215" y="468" type="curve" smooth="yes"/>
    </contour>
    <contour>
      <point x="885" y="-24"/>
      <point x="1001" y="91"/>
      <point x="1001" y="235" type="curve" smooth="yes"/>
      <point x="1001" y="379"/>
      <point x="885" y="495"/>
      <point x="744" y="495" type="curve" smooth="yes"/>
      <point x="603" y="495"/>
      <point x="488" y="379"/>
      <point x="488" y="235" type="curve" smooth="yes"/>
      <point x="488" y="92"/>
      <point x="604" y="-24"/>
      <point x="744" y="-24" type="curve" smooth="yes"/>
    </contour>
    <contour>
      <point x="636" y="36"/>
      <point x="548" y="126"/>
      <point x="548" y="235" type="curve" smooth="yes"/>
      <point x="548" y="346"/>
      <point x="636" y="434"/>
      <point x="744" y="434" type="curve" smooth="yes"/>
      <point x="852" y="434"/>
      <point x="940" y="347"/>
      <point x="940" y="235" type="curve" smooth="yes"/>
      <point x="940" y="124"/>
      <point x="852" y="36"/>
      <point x="744" y="36" type="curve" smooth="yes"/>
    </contour>
    <contour>
      <point x="626" y="756"/>
      <point x="742" y="872"/>
      <point x="742" y="1016" type="curve" smooth="yes"/>
      <point x="742" y="1160"/>
      <point x="627" y="1275"/>
      <point x="486" y="1275" type="curve" smooth="yes"/>
      <point x="345" y="1275"/>
      <point x="230" y="1160"/>
      <point x="230" y="1016" type="curve" smooth="yes"/>
      <point x="230" y="872"/>
      <point x="345" y="756"/>
      <point x="486" y="756" type="curve" smooth="yes"/>
    </contour>
    <contour>
      <point x="378" y="817"/>
      <point x="290" y="905"/>
      <point x="290" y="1016" type="curve" smooth="yes"/>
      <point x="290" y="1127"/>
      <point x="378" y="1215"/>
      <point x="486" y="1215" type="curve" smooth="yes"/>
      <point x="594" y="1215"/>
      <point x="682" y="1127"/>
      <point x="682" y="1016" type="curve" smooth="yes"/>
      <point x="682" y="905"/>
      <point x="594" y="817"/>
      <point x="486" y="817" type="curve" smooth="yes"/>
    </contour>
  </outline>
</glyph>
<glyph name="ampersand" format="1">
  <advance width="600"/>
  <unicode hex="0026"/>
  <outline>
    <contour>
      <point x="124" y="144" type="curve" smooth="yes"/>
      <point x="124" y="54"/>
      <point x="193" y="-16"/>
      <point x="271" y="-16" type="curve" smooth="yes"/>
      <point x="318" y="-16"/>
      <point x="355" y="5"/>
      <point x="385" y="48" type="curve"/>
      <point x="416" y="0" type="line"/>
      <point x="472" y="0" type="line" smooth="yes"/>
      <point x="491" y="0"/>
      <point x="499" y="9"/>
      <point x="499" y="21" type="curve" smooth="yes"/>
      <point x="499" y="33"/>
      <point x="491" y="41"/>
      <point x="472" y="41" type="curve" smooth="yes"/>
      <point x="437" y="41" type="line"/>
      <point x="409" y="83" type="line"/>
      <point x="429" y="113"/>
      <point x="447" y="156"/>
      <point x="463" y="211" type="curve"/>
      <point x="476" y="211"/>
      <point x="483" y="211"/>
      <point x="487" y="213" type="curve" smooth="yes"/>
      <point x="493" y="215"/>
      <point x="499" y="224"/>
      <point x="499" y="232" type="curve" smooth="yes"/>
      <point x="499" y="244"/>
      <point x="491" y="252"/>
      <point x="472" y="252" type="curve" smooth="yes"/>
      <point x="432" y="252" type="line"/>
      <point x="420" y="203"/>
      <point x="405" y="160"/>
      <point x="385" y="123" type="curve"/>
      <point x="271" y="303" type="line" smooth="yes"/>
      <point x="242" y="349"/>
      <point x="228" y="383"/>
      <point x="228" y="404" type="curve" smooth="yes"/>
      <point x="228" y="445"/>
      <point x="267" y="485"/>
      <point x="312" y="485" type="curve" smooth="yes"/>
      <point x="333" y="485"/>
      <point x="355" y="476"/>
      <point x="375" y="458" type="curve"/>
      <point x="407" y="475" type="line" smooth="yes"/>
      <point x="420" y="482"/>
      <point x="424" y="488"/>
      <point x="424" y="496" type="curve" smooth="yes"/>
      <point x="424" y="508"/>
      <point x="415" y="517"/>
      <point x="403" y="517" type="curve" smooth="yes"/>
      <point x="400" y="517"/>
      <point x="392" y="514"/>
      <point x="377" y="506" type="curve"/>
      <point x="355" y="520"/>
      <point x="333" y="526"/>
      <point x="311" y="526" type="curve" smooth="yes"/>
      <point x="243" y="526"/>
      <point x="187" y="470"/>
      <point x="187" y="405" type="curve" smooth="yes"/>
      <point x="187" y="392"/>
      <point x="190" y="380"/>
      <point x="194" y="368" type="curve" smooth="yes"/>
      <point x="199" y="355"/>
      <point x="213" y="330"/>
      <point x="237" y="291" type="curve"/>
      <point x="167" y="270"/>
      <point x="124" y="212"/>
    </contour>
    <contour>
      <point x="165" y="144" type="curve" smooth="yes"/>
      <point x="165" y="199"/>
      <point x="200" y="242"/>
      <point x="254" y="255" type="curve"/>
      <point x="361" y="86" type="line"/>
      <point x="337" y="45"/>
      <point x="307" y="25"/>
      <point x="271" y="25" type="curve" smooth="yes"/>
      <point x="216" y="25"/>
      <point x="165" y="78"/>
    </contour>
  </outline>
</glyph>
<glyph name="quotesingle" format="1">
  <advance width="328"/>
  <unicode hex="0027"/>
  <note>
    quotesingle
  </note>
  <outline>
    <contour>
      <point x="180" y="667" type="line"/>
      <point x="184" y="712"/>
      <point x="195" y="787"/>
      <point x="207" y="856" type="curve" smooth="yes"/>
      <point x="219" y="925"/>
      <point x="231" y="989"/>
      <point x="238" y="1012" type="curve"/>
      <point x="229" y="1021" type="line"/>
      <point x="100" y="996" type="line"/>
      <point x="138" y="662" type="line"/>
    </contour>
  </outline>
</glyph>
<glyph name="parenleft" format="1">
  <advance width="600"/>
  <unicode hex="0028"/>
  <note>
    parenleft
  </note>
  <outline>
    <contour>
      <point x="451" y="-127"/>
      <point x="460" y="-118"/>
      <point x="460" y="-106" type="curve" smooth="yes"/>
      <point x="460" y="-103"/>
      <point x="459" y="-100"/>
      <point x="457" y="-96" type="curve"/>
      <point x="385" y="35"/>
      <point x="357" y="136"/>
      <point x="357" y="243" type="curve" smooth="yes"/>
      <point x="357" y="350"/>
      <point x="385" y="451"/>
      <point x="457" y="582" type="curve"/>
      <point x="459" y="586"/>
      <point x="460" y="589"/>
      <point x="460" y="593" type="curve" smooth="yes"/>
      <point x="460" y="604"/>
      <point x="451" y="613"/>
      <point x="439" y="613" type="curve" smooth="yes"/>
      <point x="435" y="613"/>
      <point x="431" y="611"/>
      <point x="427" y="607" type="curve" smooth="yes"/>
      <point x="414" y="596"/>
      <point x="394" y="563"/>
      <point x="366" y="508" type="curve" smooth="yes"/>
      <point x="311" y="398"/>
      <point x="295" y="318"/>
      <point x="295" y="243" type="curve" smooth="yes"/>
      <point x="295" y="201"/>
      <point x="301" y="160"/>
      <point x="311" y="118" type="curve" smooth="yes"/>
      <point x="332" y="36"/>
      <point x="403" y="-100"/>
      <point x="427" y="-122" type="curve" smooth="yes"/>
      <point x="431" y="-125"/>
      <point x="435" y="-127"/>
      <point x="439" y="-127" type="curve" smooth="yes"/>
    </contour>
  </outline>
</glyph>
<glyph name="parenright" format="1">
  <advance width="1229"/>
  <unicode hex="0029"/>
  <note>
    parenright
  </note>
  <outline>
    <contour>
      <point x="353" y="-260"/>
      <point x="362" y="-256"/>
      <point x="370" y="-248" type="curve"/>
      <point x="396" y="-225"/>
      <point x="437" y="-157"/>
      <point x="494" y="-44" type="curve" smooth="yes"/>
      <point x="607" y="182"/>
      <point x="639" y="344"/>
      <point x="639" y="497" type="curve" smooth="yes"/>
      <point x="639" y="583"/>
      <point x="628" y="668"/>
      <point x="607" y="753" type="curve" smooth="yes"/>
      <point x="564" y="922"/>
      <point x="419" y="1199"/>
      <point x="370" y="1244" type="curve" smooth="yes"/>
      <point x="362" y="1251"/>
      <point x="353" y="1255"/>
      <point x="344" y="1255" type="curve" smooth="yes"/>
      <point x="320" y="1255"/>
      <point x="301" y="1237"/>
      <point x="301" y="1214" type="curve" smooth="yes"/>
      <point x="301" y="1207"/>
      <point x="303" y="1200"/>
      <point x="308" y="1192" type="curve"/>
      <point x="455" y="923"/>
      <point x="512" y="717"/>
      <point x="512" y="497" type="curve" smooth="yes"/>
      <point x="512" y="278"/>
      <point x="455" y="72"/>
      <point x="308" y="-196" type="curve"/>
      <point x="303" y="-204"/>
      <point x="301" y="-211"/>
      <point x="301" y="-218" type="curve" smooth="yes"/>
      <point x="301" y="-241"/>
      <point x="320" y="-260"/>
      <point x="344" y="-260" type="curve" smooth="yes"/>
    </contour>
  </outline>
</glyph>
<glyph name="asterisk" format="1">
  <advance width="872"/>
  <unicode hex="002A"/>
  <note>
    asterisk
  </note>
  <outline>
    <contour>
      <point x="520" y="541"/>
      <point x="551" y="581"/>
      <point x="551" y="645" type="curve" smooth="yes"/>
      <point x="551" y="669"/>
      <point x="543" y="718"/>
      <point x="532" y="768" type="curve" smooth="yes"/>
      <point x="520" y="818"/>
      <point x="506" y="870"/>
      <point x="494" y="905" type="curve"/>
      <point x="498" y="909" type="line"/>
      <point x="587" y="820"/>
      <point x="640" y="769"/>
      <point x="678" y="741" type="curve" smooth="yes"/>
      <point x="716" y="712"/>
      <point x="738" y="705"/>
      <point x="766" y="705" type="curve" smooth="yes"/>
      <point x="799" y="705"/>
      <point x="823" y="727"/>
      <point x="823" y="762" type="curve" smooth="yes"/>
      <point x="823" y="793"/>
      <point x="804" y="822"/>
      <point x="755" y="851" type="curve" smooth="yes"/>
      <point x="706" y="879"/>
      <point x="625" y="906"/>
      <point x="500" y="930" type="curve"/>
      <point x="500" y="934" type="line"/>
      <point x="625" y="962"/>
      <point x="707" y="987"/>
      <point x="757" y="1013" type="curve" smooth="yes"/>
      <point x="807" y="1039"/>
      <point x="825" y="1067"/>
      <point x="825" y="1102" type="curve" smooth="yes"/>
      <point x="825" y="1129"/>
      <point x="803" y="1153"/>
      <point x="766" y="1153" type="curve" smooth="yes"/>
      <point x="737" y="1153"/>
      <point x="711" y="1144"/>
      <point x="672" y="1116" type="curve" smooth="yes"/>
      <point x="632" y="1087"/>
      <point x="579" y="1036"/>
      <point x="496" y="952" type="curve"/>
      <point x="492" y="956" type="line"/>
      <point x="500" y="980"/>
      <point x="514" y="1035"/>
      <point x="527" y="1089" type="curve" smooth="yes"/>
      <point x="539" y="1143"/>
      <point x="549" y="1195"/>
      <point x="549" y="1214" type="curve" smooth="yes"/>
      <point x="549" y="1277"/>
      <point x="522" y="1319"/>
      <point x="479" y="1319" type="curve" smooth="yes"/>
      <point x="436" y="1319"/>
      <point x="410" y="1277"/>
      <point x="410" y="1214" type="curve" smooth="yes"/>
      <point x="410" y="1195"/>
      <point x="420" y="1143"/>
      <point x="432" y="1089" type="curve" smooth="yes"/>
      <point x="444" y="1035"/>
      <point x="458" y="980"/>
      <point x="465" y="956" type="curve"/>
      <point x="461" y="952" type="line"/>
      <point x="378" y="1036"/>
      <point x="327" y="1087"/>
      <point x="288" y="1116" type="curve" smooth="yes"/>
      <point x="248" y="1144"/>
      <point x="222" y="1153"/>
      <point x="193" y="1153" type="curve" smooth="yes"/>
      <point x="154" y="1153"/>
      <point x="133" y="1129"/>
      <point x="133" y="1102" type="curve" smooth="yes"/>
      <point x="133" y="1067"/>
      <point x="152" y="1039"/>
      <point x="202" y="1013" type="curve" smooth="yes"/>
      <point x="252" y="987"/>
      <point x="332" y="962"/>
      <point x="457" y="934" type="curve"/>
      <point x="457" y="930" type="line"/>
      <point x="333" y="906"/>
      <point x="252" y="879"/>
      <point x="202" y="851" type="curve" smooth="yes"/>
      <point x="152" y="822"/>
      <point x="133" y="793"/>
      <point x="133" y="762" type="curve" smooth="yes"/>
      <point x="133" y="727"/>
      <point x="160" y="705"/>
      <point x="193" y="705" type="curve" smooth="yes"/>
      <point x="221" y="705"/>
      <point x="243" y="712"/>
      <point x="281" y="741" type="curve" smooth="yes"/>
      <point x="319" y="769"/>
      <point x="372" y="820"/>
      <point x="461" y="909" type="curve"/>
      <point x="465" y="905" type="line"/>
      <point x="453" y="870"/>
      <point x="438" y="818"/>
      <point x="427" y="768" type="curve" smooth="yes"/>
      <point x="416" y="718"/>
      <point x="408" y="669"/>
      <point x="408" y="645" type="curve" smooth="yes"/>
      <point x="408" y="581"/>
      <point x="438" y="541"/>
      <point x="479" y="541" type="curve" smooth="yes"/>
    </contour>
  </outline>
</glyph>
<glyph name="plus" format="1">
  <advance width="472"/>
  <unicode hex="002B"/>
  <note>
    plus
  </note>
  <outline>
    <contour>
      <point x="214" y="167" type="line"/>
      <point x="256" y="167" type="line"/>
      <point x="256" y="323" type="line"/>
      <point x="403" y="323" type="line"/>
      <point x="403" y="362" type="line"/>
      <point x="256" y="362" type="line"/>
      <point x="256" y="518" type="line"/>
      <point x="214" y="518" type="line"/>
      <point x="214" y="362" type="line"/>
      <point x="67" y="362" type="line"/>
      <point x="67" y="323" type="line"/>
      <point x="214" y="323" type="line"/>
    </contour>
  </outline>
</glyph>
<glyph name="comma" format="1">
  <advance width="618"/>
  <unicode hex="002C"/>
  <note>
    comma
  </note>
  <outline>
    <contour>
      <point x="367" y="-155"/>
      <point x="410" y="-75"/>
      <point x="410" y="20" type="curve" smooth="yes"/>
      <point x="410" y="73"/>
      <point x="396" y="114"/>
      <point x="376" y="140" type="curve" smooth="yes"/>
      <point x="355" y="166"/>
      <point x="326" y="178"/>
      <point x="295" y="178" type="curve"/>
      <point x="267" y="177"/>
      <point x="245" y="165"/>
      <point x="230" y="148" type="curve" smooth="yes"/>
      <point x="214" y="131"/>
      <point x="205" y="110"/>
      <point x="205" y="90" type="curve" smooth="yes"/>
      <point x="205" y="49"/>
      <point x="238" y="7"/>
      <point x="289" y="4" type="curve"/>
      <point x="309" y="4"/>
      <point x="335" y="12"/>
      <point x="362" y="35" type="curve"/>
      <point x="367" y="20"/>
      <point x="369" y="5"/>
      <point x="369" y="-10" type="curve" smooth="yes"/>
      <point x="369" y="-77"/>
      <point x="328" y="-143"/>
      <point x="252" y="-199" type="curve"/>
      <point x="270" y="-231" type="line"/>
    </contour>
  </outline>
</glyph>
<glyph name="hyphen" format="1">
  <advance width="1229"/>
  <unicode hex="002D"/>
  <note>
    hyphen
  </note>
  <outline>
    <contour>
      <point x="1043" y="519" type="line"/>
      <point x="1043" y="639" type="line"/>
      <point x="186" y="639" type="line"/>
      <point x="186" y="519" type="line"/>
    </contour>
  </outline>
</glyph>
<glyph name="period" format="1">
  <advance width="302"/>
  <unicode hex="002E"/>
  <outline>
    <contour>
      <point x="112" y="43" type="curve" smooth="yes"/>
      <point x="112" y="19"/>
      <point x="130" y="1"/>
      <point x="156" y="1" type="curve" smooth="yes"/>
      <point x="178" y="1"/>
      <point x="197" y="21"/>
      <point x="197" y="45" type="curve" smooth="yes"/>
      <point x="197" y="67"/>
      <point x="182" y="84"/>
      <point x="155" y="84" type="curve" smooth="yes"/>
      <point x="131" y="84"/>
      <point x="112" y="65"/>
    </contour>
  </outline>
</glyph>
<glyph name="slash" format="1">
  <advance width="1229"/>
  <unicode hex="002F"/>
  <note>
    slash
  </note>
  <outline>
    <contour>
      <point x="290" y="-169"/>
      <point x="305" y="-157"/>
      <point x="316" y="-132" type="curve" smooth="yes"/>
      <point x="992" y="1316" type="line" smooth="yes"/>
      <point x="999" y="1331"/>
      <point x="1002" y="1342"/>
      <point x="1002" y="1349" type="curve" smooth="yes"/>
      <point x="1002" y="1369"/>
      <point x="983" y="1389"/>
      <point x="960" y="1389" type="curve" smooth="yes"/>
      <point x="941" y="1389"/>
      <point x="930" y="1383"/>
      <point x="915" y="1352" type="curve" smooth="yes"/>
      <point x="240" y="-96" type="line" smooth="yes"/>
      <point x="233" y="-110"/>
      <point x="230" y="-121"/>
      <point x="230" y="-129" type="curve" smooth="yes"/>
      <point x="230" y="-149"/>
      <point x="249" y="-169"/>
      <point x="272" y="-169" type="curve" smooth="yes"/>
    </contour>
  </outline>
</glyph>
<glyph name="zero" format="1">
  <advance width="1229"/>
  <unicode hex="0030"/>
  <note>
    zero
  </note>
  <outline>
    <contour>
      <point x="821" y="-30"/>
      <point x="1000" y="162"/>
      <point x="1000" y="523" type="curve" smooth="yes"/>
      <point x="1000" y="731" type="line" smooth="yes"/>
      <point x="1000" y="808"/>
      <point x="993" y="876"/>
      <point x="978" y="933" type="curve" smooth="yes"/>
      <point x="957" y="1013"/>
      <point x="904" y="1128"/>
      <point x="864" y="1173" type="curve" smooth="yes"/>
      <point x="803" y="1244"/>
      <point x="713" y="1285"/>
      <point x="613" y="1285" type="curve" smooth="yes"/>
      <point x="408" y="1285"/>
      <point x="229" y="1094"/>
      <point x="229" y="731" type="curve" smooth="yes"/>
      <point x="229" y="523" type="line" smooth="yes"/>
      <point x="229" y="446"/>
      <point x="237" y="379"/>
      <point x="252" y="322" type="curve" smooth="yes"/>
      <point x="272" y="241"/>
      <point x="326" y="126"/>
      <point x="365" y="82" type="curve" smooth="yes"/>
      <point x="426" y="11"/>
      <point x="517" y="-30"/>
      <point x="616" y="-30" type="curve" smooth="yes"/>
    </contour>
    <contour>
      <point x="520" y="54"/>
      <point x="455" y="104"/>
      <point x="423" y="149" type="curve" smooth="yes"/>
      <point x="366" y="230"/>
      <point x="313" y="376"/>
      <point x="313" y="535" type="curve" smooth="yes"/>
      <point x="313" y="720" type="line" smooth="yes"/>
      <point x="313" y="976"/>
      <point x="426" y="1200"/>
      <point x="614" y="1200" type="curve" smooth="yes"/>
      <point x="709" y="1200"/>
      <point x="774" y="1152"/>
      <point x="807" y="1105" type="curve" smooth="yes"/>
      <point x="863" y="1024"/>
      <point x="916" y="879"/>
      <point x="916" y="720" type="curve" smooth="yes"/>
      <point x="916" y="535" type="line" smooth="yes"/>
      <point x="916" y="279"/>
      <point x="803" y="54"/>
      <point x="616" y="54" type="curve" smooth="yes"/>
    </contour>
  </outline>
</glyph>
<glyph name="one" format="1">
  <advance width="286"/>
  <unicode hex="0031"/>
  <note>
    one
  </note>
  <outline>
    <contour>
      <point x="158" y="0" type="line"/>
      <point x="204" y="0" type="line"/>
      <point x="204" y="669" type="line"/>
      <point x="176" y="669" type="line"/>
      <point x="9" y="545" type="line"/>
      <point x="9" y="498" type="line"/>
      <point x="176" y="622" type="line"/>
      <point x="158" y="623" type="line"/>
    </contour>
  </outline>
</glyph>
<glyph name="two" format="1">
  <advance width="1229"/>
  <unicode hex="0032"/>
  <note>
    two
  </note>
  <outline>
    <contour>
      <point x="1013" y="0" type="line"/>
      <point x="1013" y="94" type="line"/>
      <point x="928" y="94" type="line"/>
      <point x="928" y="94" type="line"/>
      <point x="303" y="94" type="line"/>
      <point x="303" y="100" type="line"/>
      <point x="427" y="207"/>
      <point x="548" y="278"/>
      <point x="745" y="473" type="curve" smooth="yes"/>
      <point x="896" y="620"/>
      <point x="969" y="728"/>
      <point x="969" y="880" type="curve" smooth="yes"/>
      <point x="969" y="1044"/>
      <point x="832" y="1215"/>
      <point x="599" y="1215" type="curve" smooth="yes"/>
      <point x="391" y="1215"/>
      <point x="296" y="1119"/>
      <point x="236" y="1048" type="curve"/>
      <point x="309" y="980" type="line"/>
      <point x="364" y="1057"/>
      <point x="473" y="1120"/>
      <point x="590" y="1120" type="curve" smooth="yes"/>
      <point x="754" y="1120"/>
      <point x="874" y="1009"/>
      <point x="874" y="872" type="curve" smooth="yes"/>
      <point x="874" y="733"/>
      <point x="788" y="643"/>
      <point x="655" y="512" type="curve" smooth="yes"/>
      <point x="494" y="353"/>
      <point x="362" y="277"/>
      <point x="191" y="124" type="curve"/>
      <point x="191" y="0" type="line"/>
    </contour>
  </outline>
</glyph>
<glyph name="three" format="1">
  <advance width="1229"/>
  <unicode hex="0033"/>
  <note>
    three
  </note>
  <outline>
    <contour>
      <point x="841" y="-30"/>
      <point x="1025" y="151"/>
      <point x="1025" y="352" type="curve" smooth="yes"/>
      <point x="1025" y="483"/>
      <point x="942" y="614"/>
      <point x="787" y="683" type="curve"/>
      <point x="914" y="743"/>
      <point x="980" y="850"/>
      <point x="980" y="962" type="curve" smooth="yes"/>
      <point x="980" y="1138"/>
      <point x="829" y="1285"/>
      <point x="617" y="1285" type="curve" smooth="yes"/>
      <point x="514" y="1285"/>
      <point x="423" y="1257"/>
      <point x="342" y="1200" type="curve" smooth="yes"/>
      <point x="284" y="1159"/>
      <point x="255" y="1126"/>
      <point x="255" y="1099" type="curve" smooth="yes"/>
      <point x="255" y="1078"/>
      <point x="273" y="1060"/>
      <point x="296" y="1060" type="curve" smooth="yes"/>
      <point x="311" y="1060"/>
      <point x="319" y="1062"/>
      <point x="340" y="1089" type="curve"/>
      <point x="399" y="1158"/>
      <point x="501" y="1201"/>
      <point x="617" y="1201" type="curve" smooth="yes"/>
      <point x="782" y="1201"/>
      <point x="895" y="1088"/>
      <point x="895" y="963" type="curve" smooth="yes"/>
      <point x="895" y="842"/>
      <point x="786" y="734"/>
      <point x="635" y="734" type="curve" smooth="yes"/>
      <point x="563" y="735" type="line" smooth="yes"/>
      <point x="530" y="735"/>
      <point x="513" y="717"/>
      <point x="513" y="693" type="curve" smooth="yes"/>
      <point x="513" y="668"/>
      <point x="529" y="651"/>
      <point x="569" y="651" type="curve" smooth="yes"/>
      <point x="631" y="651"/>
      <point x="692" y="637"/>
      <point x="753" y="610" type="curve" smooth="yes"/>
      <point x="874" y="554"/>
      <point x="941" y="449"/>
      <point x="941" y="349" type="curve" smooth="yes"/>
      <point x="941" y="200"/>
      <point x="793" y="54"/>
      <point x="598" y="54" type="curve" smooth="yes"/>
      <point x="483" y="54"/>
      <point x="373" y="92"/>
      <point x="270" y="169" type="curve" smooth="yes"/>
      <point x="257" y="179"/>
      <point x="245" y="184"/>
      <point x="234" y="184" type="curve" smooth="yes"/>
      <point x="213" y="184"/>
      <point x="195" y="165"/>
      <point x="195" y="144" type="curve" smooth="yes"/>
      <point x="195" y="132"/>
      <point x="200" y="121"/>
      <point x="210" y="110" type="curve" smooth="yes"/>
      <point x="271" y="46"/>
      <point x="452" y="-30"/>
      <point x="596" y="-30" type="curve" smooth="yes"/>
    </contour>
  </outline>
</glyph>
<glyph name="four" format="1">
  <advance width="488"/>
  <unicode hex="0034"/>
  <note>
    four
  </note>
  <outline>
    <contour>
      <point x="23" y="169" type="line"/>
      <point x="467" y="169" type="line"/>
      <point x="467" y="208" type="line"/>
      <point x="61" y="208" type="line"/>
      <point x="69" y="194" type="line"/>
      <point x="320" y="667" type="line"/>
      <point x="273" y="667" type="line"/>
      <point x="23" y="195" type="line"/>
    </contour>
    <contour>
      <point x="331" y="0" type="line"/>
      <point x="375" y="0" type="line"/>
      <point x="375" y="442" type="line"/>
      <point x="339" y="442" type="line"/>
      <point x="331" y="208" type="line"/>
    </contour>
  </outline>
</glyph>
<glyph name="five" format="1">
  <advance width="423"/>
  <unicode hex="0035"/>
  <note>
    five
  </note>
  <outline>
    <contour>
      <point x="321" y="-8"/>
      <point x="396" y="59"/>
      <point x="396" y="183" type="curve" smooth="yes"/>
      <point x="396" y="305"/>
      <point x="319" y="366"/>
      <point x="151" y="376" type="curve" smooth="yes"/>
      <point x="73" y="381" type="line"/>
      <point x="103" y="356" type="line"/>
      <point x="123" y="646" type="line"/>
      <point x="101" y="627" type="line"/>
      <point x="368" y="627" type="line"/>
      <point x="368" y="667" type="line"/>
      <point x="80" y="667" type="line"/>
      <point x="59" y="341" type="line"/>
      <point x="137" y="336" type="line" smooth="yes"/>
      <point x="291" y="327"/>
      <point x="351" y="281"/>
      <point x="351" y="182" type="curve" smooth="yes"/>
      <point x="351" y="82"/>
      <point x="293" y="32"/>
      <point x="181" y="32" type="curve" smooth="yes"/>
      <point x="133" y="32"/>
      <point x="82" y="41"/>
      <point x="34" y="58" type="curve"/>
      <point x="34" y="17" type="line"/>
      <point x="78" y="0"/>
      <point x="129" y="-8"/>
      <point x="182" y="-8" type="curve" smooth="yes"/>
    </contour>
  </outline>
</glyph>
<glyph name="six" format="1">
  <advance width="600"/>
  <unicode hex="0036"/>
  <outline>
    <contour>
      <point x="134" y="306" type="curve" smooth="yes"/>
      <point x="134" y="237"/>
      <point x="145" y="175"/>
      <point x="167" y="119" type="curve" smooth="yes"/>
      <point x="202" y="28"/>
      <point x="268" y="-15"/>
      <point x="338" y="-15" type="curve" smooth="yes"/>
      <point x="447" y="-15"/>
      <point x="513" y="83"/>
      <point x="513" y="180" type="curve" smooth="yes"/>
      <point x="513" y="287"/>
      <point x="433" y="369"/>
      <point x="346" y="369" type="curve" smooth="yes"/>
      <point x="280" y="369"/>
      <point x="229" y="334"/>
      <point x="178" y="259" type="curve"/>
      <point x="176" y="282"/>
      <point x="175" y="299"/>
      <point x="175" y="310" type="curve" smooth="yes"/>
      <point x="175" y="460"/>
      <point x="300" y="586"/>
      <point x="427" y="586" type="curve" smooth="yes"/>
      <point x="447" y="586"/>
      <point x="463" y="583"/>
      <point x="477" y="576" type="curve" smooth="yes"/>
      <point x="482" y="573"/>
      <point x="487" y="571"/>
      <point x="492" y="571" type="curve" smooth="yes"/>
      <point x="503" y="571"/>
      <point x="511" y="580"/>
      <point x="511" y="591" type="curve" smooth="yes"/>
      <point x="511" y="600"/>
      <point x="507" y="606"/>
      <point x="499" y="611" type="curve" smooth="yes"/>
      <point x="481" y="622"/>
      <point x="458" y="627"/>
      <point x="431" y="627" type="curve" smooth="yes"/>
      <point x="350" y="627"/>
      <point x="279" y="591"/>
      <point x="227" y="540" type="curve" smooth="yes"/>
      <point x="175" y="488"/>
      <point x="134" y="409"/>
    </contour>
    <contour>
      <point x="187" y="191" type="curve"/>
      <point x="236" y="284"/>
      <point x="281" y="328"/>
      <point x="344" y="328" type="curve" smooth="yes"/>
      <point x="410" y="328"/>
      <point x="472" y="266"/>
      <point x="472" y="180" type="curve" smooth="yes"/>
      <point x="472" y="89"/>
      <point x="412" y="26"/>
      <point x="339" y="26" type="curve" smooth="yes"/>
      <point x="267" y="26"/>
      <point x="212" y="73"/>
    </contour>
  </outline>
</glyph>
<glyph name="seven" format="1">
  <advance width="385"/>
  <unicode hex="0037"/>
  <note>
    seven
  </note>
  <outline>
    <contour>
      <point x="74" y="0" type="line"/>
      <point x="121" y="0" type="line"/>
      <point x="359" y="641" type="line"/>
      <point x="359" y="667" type="line"/>
      <point x="5" y="667" type="line"/>
      <point x="5" y="626" type="line"/>
      <point x="325" y="626" type="line"/>
      <point x="314" y="642" type="line"/>
    </contour>
  </outline>
</glyph>
<glyph name="eight" format="1">
  <advance width="600"/>
  <unicode hex="0038"/>
  <outline>
    <contour>
      <point x="113" y="165" type="curve" smooth="yes"/>
      <point x="113" y="67"/>
      <point x="196" y="-15"/>
      <point x="300" y="-15" type="curve" smooth="yes"/>
      <point x="404" y="-15"/>
      <point x="488" y="67"/>
      <point x="488" y="165" type="curve" smooth="yes"/>
      <point x="488" y="227"/>
      <point x="453" y="285"/>
      <point x="384" y="318" type="curve"/>
      <point x="444" y="353"/>
      <point x="478" y="395"/>
      <point x="478" y="459" type="curve" smooth="yes"/>
      <point x="478" y="549"/>
      <point x="398" y="627"/>
      <point x="300" y="627" type="curve" smooth="yes"/>
      <point x="203" y="627"/>
      <point x="123" y="549"/>
      <point x="123" y="459" type="curve" smooth="yes"/>
      <point x="123" y="395"/>
      <point x="157" y="353"/>
      <point x="217" y="318" type="curve"/>
      <point x="148" y="284"/>
      <point x="113" y="227"/>
    </contour>
    <contour>
      <point x="154" y="164" type="curve" smooth="yes"/>
      <point x="154" y="236"/>
      <point x="217" y="298"/>
      <point x="300" y="298" type="curve" smooth="yes"/>
      <point x="384" y="298"/>
      <point x="447" y="236"/>
      <point x="447" y="164" type="curve" smooth="yes"/>
      <point x="447" y="90"/>
      <point x="383" y="26"/>
      <point x="300" y="26" type="curve" smooth="yes"/>
      <point x="218" y="26"/>
      <point x="154" y="90"/>
    </contour>
    <contour>
      <point x="165" y="458" type="curve" smooth="yes"/>
      <point x="165" y="527"/>
      <point x="224" y="586"/>
      <point x="300" y="586" type="curve" smooth="yes"/>
      <point x="376" y="586"/>
      <point x="436" y="528"/>
      <point x="436" y="458" type="curve" smooth="yes"/>
      <point x="436" y="395"/>
      <point x="377" y="338"/>
      <point x="300" y="338" type="curve" smooth="yes"/>
      <point x="223" y="338"/>
      <point x="165" y="394"/>
    </contour>
  </outline>
</glyph>
<glyph name="nine" format="1">
  <advance width="1229"/>
  <unicode hex="0039"/>
  <note>
    nine
  </note>
  <outline>
    <contour>
      <point x="632" y="-30"/>
      <point x="781" y="55"/>
      <point x="879" y="155" type="curve" smooth="yes"/>
      <point x="977" y="255"/>
      <point x="1047" y="369"/>
      <point x="1047" y="606" type="curve" smooth="yes"/>
      <point x="1047" y="759"/>
      <point x="1025" y="893"/>
      <point x="980" y="1008" type="curve" smooth="yes"/>
      <point x="911" y="1188"/>
      <point x="778" y="1285"/>
      <point x="626" y="1285" type="curve" smooth="yes"/>
      <point x="413" y="1285"/>
      <point x="275" y="1083"/>
      <point x="275" y="878" type="curve" smooth="yes"/>
      <point x="275" y="807"/>
      <point x="291" y="740"/>
      <point x="323" y="676" type="curve" smooth="yes"/>
      <point x="387" y="547"/>
      <point x="505" y="479"/>
      <point x="621" y="479" type="curve" smooth="yes"/>
      <point x="746" y="479"/>
      <point x="872" y="557"/>
      <point x="959" y="710" type="curve"/>
      <point x="962" y="659"/>
      <point x="963" y="620"/>
      <point x="963" y="592" type="curve" smooth="yes"/>
      <point x="963" y="284"/>
      <point x="728" y="54"/>
      <point x="444" y="54" type="curve" smooth="yes"/>
      <point x="410" y="54"/>
      <point x="380" y="60"/>
      <point x="354" y="73" type="curve" smooth="yes"/>
      <point x="339" y="80"/>
      <point x="327" y="84"/>
      <point x="319" y="84" type="curve" smooth="yes"/>
      <point x="296" y="84"/>
      <point x="278" y="67"/>
      <point x="278" y="44" type="curve" smooth="yes"/>
      <point x="278" y="28"/>
      <point x="287" y="15"/>
      <point x="304" y="4" type="curve" smooth="yes"/>
      <point x="342" y="-19"/>
      <point x="391" y="-30"/>
      <point x="451" y="-30" type="curve" smooth="yes"/>
    </contour>
    <contour>
      <point x="487" y="563"/>
      <point x="359" y="696"/>
      <point x="359" y="879" type="curve" smooth="yes"/>
      <point x="359" y="1067"/>
      <point x="485" y="1200"/>
      <point x="628" y="1200" type="curve" smooth="yes"/>
      <point x="768" y="1200"/>
      <point x="872" y="1121"/>
      <point x="943" y="850" type="curve"/>
      <point x="902" y="773"/>
      <point x="870" y="720"/>
      <point x="848" y="691" type="curve" smooth="yes"/>
      <point x="780" y="606"/>
      <point x="702" y="563"/>
      <point x="623" y="563" type="curve" smooth="yes"/>
    </contour>
  </outline>
</glyph>
<glyph name="colon" format="1">
  <advance width="302"/>
  <unicode hex="003A"/>
  <outline>
    <contour>
      <point x="114" y="43" type="curve" smooth="yes"/>
      <point x="114" y="19"/>
      <point x="132" y="1"/>
      <point x="158" y="1" type="curve" smooth="yes"/>
      <point x="180" y="1"/>
      <point x="199" y="20"/>
      <point x="199" y="44" type="curve" smooth="yes"/>
      <point x="199" y="66"/>
      <point x="183" y="84"/>
      <point x="156" y="84" type="curve" smooth="yes"/>
      <point x="134" y="84"/>
      <point x="114" y="64"/>
    </contour>
    <contour>
      <point x="115" y="394" type="curve" smooth="yes"/>
      <point x="115" y="373"/>
      <point x="133" y="354"/>
      <point x="154" y="354" type="curve" smooth="yes"/>
      <point x="181" y="354"/>
      <point x="200" y="372"/>
      <point x="200" y="395" type="curve" smooth="yes"/>
      <point x="200" y="417"/>
      <point x="183" y="437"/>
      <point x="157" y="437" type="curve" smooth="yes"/>
      <point x="131" y="437"/>
      <point x="115" y="418"/>
    </contour>
  </outline>
</glyph>
<glyph name="semicolon" format="1">
  <advance width="302"/>
  <unicode hex="003B"/>
  <note>
    semicolon
  </note>
  <outline>
    <contour>
      <point x="183" y="-77"/>
      <point x="203" y="-39"/>
      <point x="203" y="8" type="curve" smooth="yes"/>
      <point x="203" y="34"/>
      <point x="196" y="54"/>
      <point x="187" y="66" type="curve" smooth="yes"/>
      <point x="176" y="79"/>
      <point x="162" y="85"/>
      <point x="148" y="85" type="curve" smooth="yes"/>
      <point x="134" y="85"/>
      <point x="124" y="79"/>
      <point x="116" y="71" type="curve" smooth="yes"/>
      <point x="108" y="63"/>
      <point x="104" y="53"/>
      <point x="104" y="43" type="curve" smooth="yes"/>
      <point x="104" y="33"/>
      <point x="108" y="22"/>
      <point x="115" y="15" type="curve" smooth="yes"/>
      <point x="122" y="6"/>
      <point x="132" y="1"/>
      <point x="144" y="1" type="curve" smooth="yes"/>
      <point x="155" y="1"/>
      <point x="167" y="4"/>
      <point x="180" y="15" type="curve"/>
      <point x="182" y="8"/>
      <point x="183" y="0"/>
      <point x="183" y="-7" type="curve" smooth="yes"/>
      <point x="183" y="-40"/>
      <point x="165" y="-70"/>
      <point x="127" y="-99" type="curve"/>
      <point x="136" y="-115" type="line"/>
    </contour>
    <contour>
      <point x="181" y="353"/>
      <point x="197" y="371"/>
      <point x="197" y="397" type="curve" smooth="yes"/>
      <point x="197" y="408"/>
      <point x="192" y="418"/>
      <point x="185" y="426" type="curve" smooth="yes"/>
      <point x="178" y="434"/>
      <point x="167" y="439"/>
      <point x="156" y="439" type="curve" smooth="yes"/>
      <point x="131" y="439"/>
      <point x="112" y="421"/>
      <point x="112" y="395" type="curve" smooth="yes"/>
      <point x="112" y="368"/>
      <point x="131" y="353"/>
      <point x="156" y="353" type="curve" smooth="yes"/>
    </contour>
  </outline>
</glyph>
<glyph name="less" format="1">
  <advance width="1229"/>
  <unicode hex="003C"/>
  <note>
    less
  </note>
  <outline>
    <contour>
      <point x="1061" y="65"/>
      <point x="1080" y="84"/>
      <point x="1080" y="107" type="curve" smooth="yes"/>
      <point x="1080" y="124"/>
      <point x="1069" y="138"/>
      <point x="1046" y="151" type="curve" smooth="yes"/>
      <point x="269" y="583" type="line"/>
      <point x="1047" y="1015" type="line" smooth="yes"/>
      <point x="1070" y="1028"/>
      <point x="1081" y="1042"/>
      <point x="1081" y="1059" type="curve" smooth="yes"/>
      <point x="1081" y="1082"/>
      <point x="1062" y="1101"/>
      <point x="1039" y="1101" type="curve" smooth="yes"/>
      <point x="1032" y="1101"/>
      <point x="1021" y="1097"/>
      <point x="1006" y="1089" type="curve" smooth="yes"/>
      <point x="98" y="583" type="line"/>
      <point x="1005" y="77" type="line" smooth="yes"/>
      <point x="1020" y="69"/>
      <point x="1031" y="65"/>
      <point x="1038" y="65" type="curve" smooth="yes"/>
    </contour>
  </outline>
</glyph>
<glyph name="equal" format="1">
  <advance width="600"/>
  <unicode hex="003D"/>
  <outline>
    <contour>
      <point x="49" y="213" type="curve" smooth="yes"/>
      <point x="49" y="201"/>
      <point x="57" y="192"/>
      <point x="77" y="192" type="curve" smooth="yes"/>
      <point x="524" y="192" type="line" smooth="yes"/>
      <point x="543" y="192"/>
      <point x="551" y="201"/>
      <point x="551" y="213" type="curve" smooth="yes"/>
      <point x="551" y="225"/>
      <point x="543" y="233"/>
      <point x="524" y="233" type="curve" smooth="yes"/>
      <point x="77" y="233" type="line" smooth="yes"/>
      <point x="57" y="233"/>
      <point x="49" y="225"/>
    </contour>
    <contour>
      <point x="49" y="360" type="curve" smooth="yes"/>
      <point x="49" y="348"/>
      <point x="57" y="339"/>
      <point x="77" y="339" type="curve" smooth="yes"/>
      <point x="524" y="339" type="line" smooth="yes"/>
      <point x="543" y="339"/>
      <point x="551" y="348"/>
      <point x="551" y="360" type="curve" smooth="yes"/>
      <point x="551" y="372"/>
      <point x="543" y="381"/>
      <point x="524" y="381" type="curve" smooth="yes"/>
      <point x="77" y="381" type="line" smooth="yes"/>
      <point x="57" y="381"/>
      <point x="49" y="372"/>
    </contour>
  </outline>
</glyph>
<glyph name="greater" format="1">
  <advance width="1229"/>
  <unicode hex="003E"/>
  <note>
    greater
  </note>
  <outline>
    <contour>
      <point x="197" y="65"/>
      <point x="208" y="69"/>
      <point x="223" y="77" type="curve" smooth="yes"/>
      <point x="1131" y="583" type="line"/>
      <point x="224" y="1089" type="line" smooth="yes"/>
      <point x="209" y="1097"/>
      <point x="198" y="1101"/>
      <point x="191" y="1101" type="curve" smooth="yes"/>
      <point x="168" y="1101"/>
      <point x="149" y="1082"/>
      <point x="149" y="1059" type="curve" smooth="yes"/>
      <point x="149" y="1042"/>
      <point x="160" y="1028"/>
      <point x="183" y="1015" type="curve" smooth="yes"/>
      <point x="960" y="583" type="line"/>
      <point x="182" y="151" type="line" smooth="yes"/>
      <point x="159" y="138"/>
      <point x="148" y="124"/>
      <point x="148" y="107" type="curve" smooth="yes"/>
      <point x="148" y="84"/>
      <point x="167" y="65"/>
      <point x="190" y="65" type="curve" smooth="yes"/>
    </contour>
  </outline>
</glyph>
<glyph name="question" format="1">
  <advance width="1229"/>
  <unicode hex="003F"/>
  <note>
    question
  </note>
  <outline>
    <contour>
      <point x="642" y="373"/>
      <point x="660" y="389"/>
      <point x="660" y="429" type="curve" smooth="yes"/>
      <point x="660" y="514" type="line"/>
      <point x="808" y="577"/>
      <point x="902" y="632"/>
      <point x="943" y="681" type="curve" smooth="yes"/>
      <point x="983" y="729"/>
      <point x="1003" y="784"/>
      <point x="1003" y="847" type="curve" smooth="yes"/>
      <point x="1003" y="1051"/>
      <point x="856" y="1200"/>
      <point x="633" y="1200" type="curve" smooth="yes"/>
      <point x="529" y="1200"/>
      <point x="483" y="1192"/>
      <point x="275" y="1100" type="curve"/>
      <point x="275" y="959" type="line" smooth="yes"/>
      <point x="275" y="919"/>
      <point x="293" y="903"/>
      <point x="317" y="903" type="curve" smooth="yes"/>
      <point x="342" y="903"/>
      <point x="359" y="919"/>
      <point x="359" y="959" type="curve" smooth="yes"/>
      <point x="359" y="1045" type="line"/>
      <point x="471" y="1100"/>
      <point x="538" y="1116"/>
      <point x="626" y="1116" type="curve" smooth="yes"/>
      <point x="799" y="1116"/>
      <point x="919" y="994"/>
      <point x="919" y="845" type="curve" smooth="yes"/>
      <point x="919" y="800"/>
      <point x="904" y="762"/>
      <point x="874" y="732" type="curve" smooth="yes"/>
      <point x="821" y="678"/>
      <point x="721" y="624"/>
      <point x="575" y="570" type="curve"/>
      <point x="575" y="429" type="line" smooth="yes"/>
      <point x="575" y="389"/>
      <point x="593" y="373"/>
      <point x="618" y="373" type="curve" smooth="yes"/>
    </contour>
    <contour>
      <point x="658" y="-30" type="line" smooth="yes"/>
      <point x="714" y="-30"/>
      <point x="763" y="15"/>
      <point x="763" y="74" type="curve" smooth="yes"/>
      <point x="763" y="131"/>
      <point x="717" y="178"/>
      <point x="658" y="178" type="curve" smooth="yes"/>
      <point x="574" y="178" type="line" smooth="yes"/>
      <point x="518" y="178"/>
      <point x="470" y="133"/>
      <point x="470" y="73" type="curve" smooth="yes"/>
      <point x="470" y="17"/>
      <point x="517" y="-30"/>
      <point x="574" y="-30" type="curve" smooth="yes"/>
    </contour>
  </outline>
</glyph>
<glyph name="at" format="1">
  <advance width="584"/>
  <unicode hex="0040"/>
  <outline>
    <contour>
      <point x="33" y="101" type="curve" smooth="yes"/>
      <point x="33" y="-45"/>
      <point x="139" y="-155"/>
      <point x="287" y="-155" type="curve" smooth="yes"/>
      <point x="340" y="-155"/>
      <point x="395" y="-142"/>
      <point x="438" y="-112" type="curve"/>
      <point x="428" y="-93" type="line"/>
      <point x="394" y="-112"/>
      <point x="350" y="-121"/>
      <point x="311" y="-121" type="curve" smooth="yes"/>
      <point x="172" y="-121"/>
      <point x="80" y="-16"/>
      <point x="80" y="121" type="curve" smooth="yes"/>
      <point x="80" y="267"/>
      <point x="183" y="380"/>
      <point x="331" y="380" type="curve" smooth="yes"/>
      <point x="439" y="380"/>
      <point x="518" y="307"/>
      <point x="518" y="200" type="curve" smooth="yes"/>
      <point x="518" y="126"/>
      <point x="473" y="23"/>
      <point x="395" y="23" type="curve" smooth="yes"/>
      <point x="381" y="23"/>
      <point x="370" y="30"/>
      <point x="370" y="51" type="curve" smooth="yes"/>
      <point x="370" y="77"/>
      <point x="374" y="116"/>
      <point x="382" y="157" type="curve" smooth="yes"/>
      <point x="389" y="199"/>
      <point x="399" y="244"/>
      <point x="411" y="281" type="curve"/>
      <point x="409" y="285" type="line"/>
      <point x="397" y="282"/>
      <point x="385" y="280"/>
      <point x="374" y="279" type="curve"/>
      <point x="362" y="282"/>
      <point x="351" y="285"/>
      <point x="340" y="285" type="curve" smooth="yes"/>
      <point x="331" y="285"/>
      <point x="309" y="277"/>
      <point x="283" y="262" type="curve" smooth="yes"/>
      <point x="229" y="227"/>
      <point x="168" y="164"/>
      <point x="168" y="72" type="curve" smooth="yes"/>
      <point x="168" y="37"/>
      <point x="188" y="-9"/>
      <point x="220" y="-9" type="curve" smooth="yes"/>
      <point x="227" y="-9"/>
      <point x="240" y="-1"/>
      <point x="258" y="13" type="curve" smooth="yes"/>
      <point x="276" y="27"/>
      <point x="299" y="50"/>
      <point x="328" y="83" type="curve"/>
      <point x="326" y="61"/>
      <point x="325" y="41"/>
      <point x="325" y="29" type="curve" smooth="yes"/>
      <point x="325" y="2"/>
      <point x="345" y="-8"/>
      <point x="370" y="-8" type="curve" smooth="yes"/>
      <point x="479" y="-8"/>
      <point x="553" y="97"/>
      <point x="553" y="204" type="curve" smooth="yes"/>
      <point x="553" y="325"/>
      <point x="461" y="411"/>
      <point x="340" y="411" type="curve" smooth="yes"/>
      <point x="212" y="411"/>
      <point x="121" y="341"/>
      <point x="73" y="257" type="curve" smooth="yes"/>
      <point x="47" y="211"/>
      <point x="33" y="158"/>
    </contour>
    <contour>
      <point x="221" y="97" type="curve" smooth="yes"/>
      <point x="221" y="158"/>
      <point x="263" y="246"/>
      <point x="322" y="246" type="curve" smooth="yes"/>
      <point x="335" y="246"/>
      <point x="350" y="241"/>
      <point x="356" y="237" type="curve"/>
      <point x="346" y="202"/>
      <point x="337" y="159"/>
      <point x="331" y="116" type="curve"/>
      <point x="310" y="93"/>
      <point x="292" y="76"/>
      <point x="276" y="65" type="curve" smooth="yes"/>
      <point x="261" y="55"/>
      <point x="250" y="49"/>
      <point x="244" y="49" type="curve" smooth="yes"/>
      <point x="225" y="49"/>
      <point x="221" y="79"/>
    </contour>
  </outline>
</glyph>
<glyph name="E" format="1">
  <advance width="473"/>
  <unicode hex="0045"/>
  <note>
    E
  </note>
  <outline>
    <contour>
      <point x="77" y="0" type="line"/>
      <point x="449" y="0" type="line"/>
      <point x="449" y="41" type="line"/>
      <point x="122" y="41" type="line"/>
      <point x="122" y="626" type="line"/>
      <point x="444" y="626" type="line"/>
      <point x="444" y="667" type="line"/>
      <point x="77" y="667" type="line"/>
    </contour>
    <contour>
      <point x="110" y="322" type="line"/>
      <point x="402" y="322" type="line"/>
      <point x="402" y="363" type="line"/>
      <point x="110" y="363" type="line"/>
    </contour>
  </outline>
</glyph>
<glyph name="F" format="1">
  <advance width="455"/>
  <unicode hex="0046"/>
  <note>
    F
  </note>
  <outline>
    <contour>
      <point x="77" y="0" type="line"/>
      <point x="122" y="0" type="line"/>
      <point x="122" y="626" type="line"/>
      <point x="440" y="626" type="line"/>
      <point x="440" y="667" type="line"/>
      <point x="77" y="667" type="line"/>
    </contour>
    <contour>
      <point x="113" y="320" type="line"/>
      <point x="398" y="320" type="line"/>
      <point x="398" y="362" type="line"/>
      <point x="113" y="362" type="line"/>
    </contour>
  </outline>
</glyph>
<glyph name="Y" format="1">
  <advance width="481"/>
  <unicode hex="0059"/>
  <note>
    Y
  </note>
  <outline>
    <contour>
      <point x="218" y="0" type="line"/>
      <point x="263" y="0" type="line"/>
      <point x="263" y="322" type="line"/>
      <point x="253" y="286" type="line"/>
      <point x="489" y="667" type="line"/>
      <point x="440" y="667" type="line"/>
      <point x="233" y="332" type="line"/>
      <point x="250" y="332" type="line"/>
      <point x="40" y="667" type="line"/>
      <point x="-11" y="667" type="line"/>
      <point x="229" y="286" type="line"/>
      <point x="218" y="322" type="line"/>
    </contour>
  </outline>
</glyph>
<glyph name="bracketleft" format="1">
  <advance width="1229"/>
  <unicode hex="005B"/>
  <note>
    bracketleft
  </note>
  <outline>
    <contour>
      <point x="861" y="-259" type="line" smooth="yes"/>
      <point x="901" y="-259"/>
      <point x="917" y="-242"/>
      <point x="917" y="-217" type="curve" smooth="yes"/>
      <point x="917" y="-192"/>
      <point x="901" y="-175"/>
      <point x="861" y="-175" type="curve" smooth="yes"/>
      <point x="657" y="-175" type="line"/>
      <point x="657" y="1170" type="line"/>
      <point x="861" y="1170" type="line" smooth="yes"/>
      <point x="901" y="1170"/>
      <point x="917" y="1188"/>
      <point x="917" y="1212" type="curve" smooth="yes"/>
      <point x="917" y="1237"/>
      <point x="901" y="1255"/>
      <point x="861" y="1255" type="curve" smooth="yes"/>
      <point x="573" y="1255" type="line"/>
      <point x="573" y="-259" type="line"/>
    </contour>
  </outline>
</glyph>
<glyph name="backslash" format="1">
  <advance width="228"/>
  <unicode hex="005C"/>
  <note>
    backslash
  </note>
  <outline>
    <contour>
      <point x="181" y="-108" type="line"/>
      <point x="227" y="-108" type="line"/>
      <point x="46" y="729" type="line"/>
      <point x="0" y="729" type="line"/>
    </contour>
  </outline>
</glyph>
<glyph name="bracketright" format="1">
  <advance width="1229"/>
  <unicode hex="005D"/>
  <note>
    bracketright
  </note>
  <outline>
    <contour>
      <point x="660" y="-259" type="line"/>
      <point x="660" y="1255" type="line"/>
      <point x="372" y="1255" type="line" smooth="yes"/>
      <point x="332" y="1255"/>
      <point x="316" y="1237"/>
      <point x="316" y="1212" type="curve" smooth="yes"/>
      <point x="316" y="1188"/>
      <point x="332" y="1170"/>
      <point x="372" y="1170" type="curve" smooth="yes"/>
      <point x="575" y="1170" type="line"/>
      <point x="575" y="-175" type="line"/>
      <point x="372" y="-175" type="line" smooth="yes"/>
      <point x="332" y="-175"/>
      <point x="316" y="-193"/>
      <point x="316" y="-217" type="curve" smooth="yes"/>
      <point x="316" y="-242"/>
      <point x="332" y="-259"/>
      <point x="372" y="-259" type="curve" smooth="yes"/>
    </contour>
  </outline>
</glyph>
<glyph name="a" format="1">
  <advance width="421"/>
  <unicode hex="0061"/>
  <note>
    a
  </note>
  <outline>
    <contour>
      <point x="232" y="-8"/>
      <point x="280" y="14"/>
      <point x="312" y="55" type="curve"/>
      <point x="315" y="55" type="line"/>
      <point x="319" y="0" type="line"/>
      <point x="357" y="0" type="line"/>
      <point x="357" y="333" type="line" smooth="yes"/>
      <point x="357" y="455"/>
      <point x="300" y="495"/>
      <point x="194" y="495" type="curve" smooth="yes"/>
      <point x="153" y="495"/>
      <point x="103" y="488"/>
      <point x="67" y="474" type="curve"/>
      <point x="67" y="433" type="line"/>
      <point x="110" y="449"/>
      <point x="156" y="455"/>
      <point x="190" y="455" type="curve" smooth="yes"/>
      <point x="270" y="455"/>
      <point x="313" y="429"/>
      <point x="313" y="335" type="curve" smooth="yes"/>
      <point x="313" y="102" type="line"/>
      <point x="277" y="50"/>
      <point x="229" y="32"/>
      <point x="185" y="32" type="curve" smooth="yes"/>
      <point x="121" y="32"/>
      <point x="87" y="63"/>
      <point x="87" y="127" type="curve" smooth="yes"/>
      <point x="87" y="186"/>
      <point x="122" y="219"/>
      <point x="202" y="227" type="curve" smooth="yes"/>
      <point x="335" y="242" type="line"/>
      <point x="330" y="278" type="line"/>
      <point x="201" y="263" type="line" smooth="yes"/>
      <point x="90" y="252"/>
      <point x="41" y="206"/>
      <point x="41" y="122" type="curve" smooth="yes"/>
      <point x="41" y="39"/>
      <point x="94" y="-8"/>
      <point x="177" y="-8" type="curve" smooth="yes"/>
    </contour>
  </outline>
</glyph>
<glyph name="k" format="1">
  <advance width="415"/>
  <unicode hex="006B"/>
  <note>
    k
  </note>
  <outline>
    <contour>
      <point x="372" y="0" type="line"/>
      <point x="425" y="0" type="line"/>
      <point x="227" y="257" type="line"/>
      <point x="227" y="243" type="line"/>
      <point x="411" y="488" type="line"/>
      <point x="359" y="488" type="line"/>
      <point x="179" y="249" type="line"/>
    </contour>
    <contour>
      <point x="105" y="229" type="line"/>
      <point x="202" y="229" type="line"/>
      <point x="202" y="269" type="line"/>
      <point x="105" y="269" type="line"/>
    </contour>
    <contour>
      <point x="68" y="0" type="line"/>
      <point x="113" y="0" type="line"/>
      <point x="113" y="729" type="line"/>
      <point x="68" y="729" type="line"/>
    </contour>
  </outline>
</glyph>
<glyph name="p" format="1">
  <advance width="457"/>
  <unicode hex="0070"/>
  <note>
    p
  </note>
  <outline>
    <contour>
      <point x="68" y="-198" type="line"/>
      <point x="113" y="-198" type="line"/>
      <point x="113" y="-3" type="line"/>
      <point x="136" y="-6"/>
      <point x="164" y="-8"/>
      <point x="189" y="-8" type="curve" smooth="yes"/>
      <point x="335" y="-8"/>
      <point x="414" y="73"/>
      <point x="414" y="253" type="curve" smooth="yes"/>
      <point x="414" y="436"/>
      <point x="334" y="495"/>
      <point x="238" y="495" type="curve" smooth="yes"/>
      <point x="183" y="495"/>
      <point x="140" y="469"/>
      <point x="115" y="436" type="curve"/>
      <point x="110" y="436" type="line"/>
      <point x="107" y="488" type="line"/>
      <point x="68" y="488" type="line"/>
    </contour>
    <contour>
      <point x="165" y="32"/>
      <point x="133" y="35"/>
      <point x="113" y="40" type="curve"/>
      <point x="113" y="385" type="line"/>
      <point x="140" y="432"/>
      <point x="187" y="454"/>
      <point x="232" y="454" type="curve" smooth="yes"/>
      <point x="308" y="454"/>
      <point x="367" y="412"/>
      <point x="367" y="248" type="curve" smooth="yes"/>
      <point x="367" y="92"/>
      <point x="306" y="32"/>
      <point x="190" y="32" type="curve" smooth="yes"/>
    </contour>
  </outline>
</glyph>
<glyph name="braceleft" format="1">
  <advance width="1229"/>
  <unicode hex="007B"/>
  <note>
    braceleft
  </note>
  <outline>
    <contour>
      <point x="808" y="-259"/>
      <point x="826" y="-242"/>
      <point x="826" y="-217" type="curve" smooth="yes"/>
      <point x="826" y="-193"/>
      <point x="813" y="-179"/>
      <point x="772" y="-175" type="curve" smooth="yes"/>
      <point x="707" y="-168"/>
      <point x="657" y="-116"/>
      <point x="657" y="-40" type="curve" smooth="yes"/>
      <point x="657" y="319" type="line" smooth="yes"/>
      <point x="657" y="402"/>
      <point x="633" y="447"/>
      <point x="566" y="498" type="curve"/>
      <point x="634" y="549"/>
      <point x="657" y="592"/>
      <point x="657" y="676" type="curve" smooth="yes"/>
      <point x="657" y="1036" type="line" smooth="yes"/>
      <point x="657" y="1109"/>
      <point x="705" y="1163"/>
      <point x="772" y="1170" type="curve" smooth="yes"/>
      <point x="815" y="1174"/>
      <point x="826" y="1189"/>
      <point x="826" y="1213" type="curve" smooth="yes"/>
      <point x="826" y="1237"/>
      <point x="808" y="1255"/>
      <point x="776" y="1255" type="curve" smooth="yes"/>
      <point x="664" y="1255"/>
      <point x="572" y="1161"/>
      <point x="572" y="1036" type="curve" smooth="yes"/>
      <point x="572" y="676" type="line" smooth="yes"/>
      <point x="572" y="603"/>
      <point x="524" y="547"/>
      <point x="455" y="542" type="curve"/>
      <point x="418" y="538"/>
      <point x="405" y="523"/>
      <point x="405" y="498" type="curve" smooth="yes"/>
      <point x="405" y="471"/>
      <point x="418" y="457"/>
      <point x="455" y="453" type="curve" smooth="yes"/>
      <point x="523" y="448"/>
      <point x="572" y="392"/>
      <point x="572" y="319" type="curve" smooth="yes"/>
      <point x="572" y="-41" type="line" smooth="yes"/>
      <point x="572" y="-173"/>
      <point x="670" y="-259"/>
      <point x="775" y="-259" type="curve" smooth="yes"/>
    </contour>
  </outline>
</glyph>
<glyph name="bar" format="1">
  <advance width="1229"/>
  <unicode hex="007C"/>
  <note>
    bar
  </note>
  <outline>
    <contour>
      <point x="639" y="-259"/>
      <point x="656" y="-243"/>
      <point x="656" y="-203" type="curve" smooth="yes"/>
      <point x="657" y="1198" type="line" smooth="yes"/>
      <point x="657" y="1239"/>
      <point x="639" y="1255"/>
      <point x="614" y="1255" type="curve" smooth="yes"/>
      <point x="590" y="1255"/>
      <point x="572" y="1239"/>
      <point x="572" y="1198" type="curve" smooth="yes"/>
      <point x="572" y="-203" type="line" smooth="yes"/>
      <point x="572" y="-243"/>
      <point x="590" y="-259"/>
      <point x="614" y="-259" type="curve" smooth="yes"/>
    </contour>
  </outline>
</glyph>
<glyph name="braceright" format="1">
  <advance width="1229"/>
  <unicode hex="007D"/>
  <note>
    braceright
  </note>
  <outline>
    <contour>
      <point x="565" y="-260"/>
      <point x="657" y="-166"/>
      <point x="657" y="-41" type="curve" smooth="yes"/>
      <point x="657" y="319" type="line" smooth="yes"/>
      <point x="657" y="392"/>
      <point x="706" y="448"/>
      <point x="775" y="453" type="curve"/>
      <point x="811" y="457"/>
      <point x="825" y="471"/>
      <point x="825" y="498" type="curve" smooth="yes"/>
      <point x="825" y="523"/>
      <point x="811" y="538"/>
      <point x="775" y="542" type="curve"/>
      <point x="707" y="547"/>
      <point x="657" y="603"/>
      <point x="657" y="676" type="curve" smooth="yes"/>
      <point x="657" y="1036" type="line" smooth="yes"/>
      <point x="657" y="1169"/>
      <point x="561" y="1255"/>
      <point x="454" y="1255" type="curve" smooth="yes"/>
      <point x="421" y="1255"/>
      <point x="404" y="1237"/>
      <point x="404" y="1213" type="curve" smooth="yes"/>
      <point x="404" y="1189"/>
      <point x="415" y="1174"/>
      <point x="458" y="1170" type="curve" smooth="yes"/>
      <point x="523" y="1165"/>
      <point x="573" y="1111"/>
      <point x="573" y="1036" type="curve" smooth="yes"/>
      <point x="573" y="676" type="line" smooth="yes"/>
      <point x="573" y="593"/>
      <point x="596" y="549"/>
      <point x="664" y="498" type="curve"/>
      <point x="596" y="447"/>
      <point x="573" y="403"/>
      <point x="573" y="319" type="curve" smooth="yes"/>
      <point x="573" y="-40" type="line" smooth="yes"/>
      <point x="573" y="-113"/>
      <point x="525" y="-168"/>
      <point x="458" y="-175" type="curve" smooth="yes"/>
      <point x="415" y="-179"/>
      <point x="404" y="-193"/>
      <point x="404" y="-217" type="curve" smooth="yes"/>
      <point x="404" y="-242"/>
      <point x="421" y="-260"/>
      <point x="454" y="-260" type="curve" smooth="yes"/>
    </contour>
  </outline>
</glyph>
<glyph name="asciitilde" format="1">
  <advance width="1229"/>
  <unicode hex="007E"/>
  <note>
    asciitilde
  </note>
  <outline>
    <contour>
      <point x="893" y="432"/>
      <point x="1043" y="581"/>
      <point x="1043" y="628" type="curve" smooth="yes"/>
      <point x="1043" y="649"/>
      <point x="1024" y="668"/>
      <point x="1003" y="668" type="curve" smooth="yes"/>
      <point x="994" y="668"/>
      <point x="987" y="666"/>
      <point x="980" y="662" type="curve" smooth="yes"/>
      <point x="973" y="658"/>
      <point x="960" y="644"/>
      <point x="941" y="619" type="curve" smooth="yes"/>
      <point x="888" y="551"/>
      <point x="837" y="517"/>
      <point x="790" y="517" type="curve" smooth="yes"/>
      <point x="774" y="517"/>
      <point x="758" y="522"/>
      <point x="742" y="532" type="curve"/>
      <point x="725" y="541"/>
      <point x="683" y="577"/>
      <point x="616" y="639" type="curve" smooth="yes"/>
      <point x="532" y="715"/>
      <point x="487" y="735"/>
      <point x="432" y="735" type="curve" smooth="yes"/>
      <point x="367" y="735"/>
      <point x="301" y="699"/>
      <point x="213" y="590" type="curve" smooth="yes"/>
      <point x="196" y="568"/>
      <point x="187" y="552"/>
      <point x="187" y="541" type="curve" smooth="yes"/>
      <point x="187" y="518"/>
      <point x="204" y="501"/>
      <point x="227" y="501" type="curve" smooth="yes"/>
      <point x="234" y="501"/>
      <point x="240" y="503"/>
      <point x="246" y="506" type="curve"/>
      <point x="251" y="509"/>
      <point x="264" y="522"/>
      <point x="283" y="544" type="curve" smooth="yes"/>
      <point x="324" y="591"/>
      <point x="356" y="622"/>
      <point x="379" y="635" type="curve"/>
      <point x="396" y="646"/>
      <point x="415" y="651"/>
      <point x="434" y="651" type="curve" smooth="yes"/>
      <point x="450" y="651"/>
      <point x="468" y="645"/>
      <point x="488" y="634" type="curve" smooth="yes"/>
      <point x="507" y="623"/>
      <point x="536" y="599"/>
      <point x="574" y="563" type="curve" smooth="yes"/>
      <point x="631" y="510"/>
      <point x="674" y="475"/>
      <point x="705" y="458" type="curve" smooth="yes"/>
      <point x="736" y="441"/>
      <point x="766" y="432"/>
      <point x="796" y="432" type="curve" smooth="yes"/>
    </contour>
  </outline>
</glyph>
<glyph name="cent" format="1">
  <advance width="332"/>
  <unicode hex="00A2"/>
  <outline>
    <contour>
      <point x="33" y="129" type="curve" smooth="yes"/>
      <point x="33" y="54"/>
      <point x="91" y="-5"/>
      <point x="166" y="-9" type="curve"/>
      <point x="166" y="-54" type="line"/>
      <point x="194" y="-51" type="line"/>
      <point x="194" y="-8" type="line"/>
      <point x="237" y="-1"/>
      <point x="277" y="22"/>
      <point x="297" y="59" type="curve"/>
      <point x="283" y="72" type="line"/>
      <point x="264" y="42"/>
      <point x="230" y="32"/>
      <point x="194" y="32" type="curve"/>
      <point x="194" y="253" type="line"/>
      <point x="217" y="250"/>
      <point x="236" y="239"/>
      <point x="257" y="220" type="curve"/>
      <point x="259" y="220" type="line"/>
      <point x="280" y="230"/>
      <point x="287" y="242"/>
      <point x="287" y="254" type="curve" smooth="yes"/>
      <point x="287" y="284"/>
      <point x="231" y="288"/>
      <point x="207" y="288" type="curve" smooth="yes"/>
      <point x="199" y="288" type="line"/>
      <point x="194" y="287" type="line"/>
      <point x="194" y="332" type="line"/>
      <point x="166" y="330" type="line"/>
      <point x="166" y="284" type="line"/>
      <point x="96" y="267"/>
      <point x="33" y="212"/>
    </contour>
    <contour>
      <point x="86" y="154" type="curve" smooth="yes"/>
      <point x="86" y="207"/>
      <point x="116" y="248"/>
      <point x="166" y="254" type="curve"/>
      <point x="166" y="36" type="line"/>
      <point x="119" y="49"/>
      <point x="86" y="96"/>
    </contour>
  </outline>
</glyph>
<glyph name="sterling" format="1">
  <advance width="680"/>
  <unicode hex="00A3"/>
  <note>
    sterling
  </note>
  <outline>
    <contour>
      <point x="488" y="-20"/>
      <point x="539" y="-4"/>
      <point x="586" y="16" type="curve"/>
      <point x="586" y="33"/>
      <point x="591" y="65"/>
      <point x="599" y="100" type="curve" smooth="yes"/>
      <point x="607" y="135"/>
      <point x="617" y="173"/>
      <point x="626" y="204" type="curve"/>
      <point x="588" y="213" type="line"/>
      <point x="575" y="181"/>
      <point x="559" y="148"/>
      <point x="537" y="122" type="curve" smooth="yes"/>
      <point x="515" y="96"/>
      <point x="485" y="78"/>
      <point x="448" y="78" type="curve" smooth="yes"/>
      <point x="407" y="78"/>
      <point x="367" y="96"/>
      <point x="327" y="113" type="curve" smooth="yes"/>
      <point x="287" y="130"/>
      <point x="248" y="148"/>
      <point x="207" y="148" type="curve" smooth="yes"/>
      <point x="187" y="148"/>
      <point x="174" y="147"/>
      <point x="169" y="144" type="curve"/>
      <point x="167" y="148" type="line"/>
      <point x="247" y="228"/>
      <point x="279" y="306"/>
      <point x="284" y="383" type="curve"/>
      <point x="502" y="383" type="line"/>
      <point x="511" y="439" type="line"/>
      <point x="503" y="446" type="line"/>
      <point x="284" y="438" type="line"/>
      <point x="283" y="474"/>
      <point x="279" y="508"/>
      <point x="274" y="539" type="curve" smooth="yes"/>
      <point x="269" y="570"/>
      <point x="266" y="598"/>
      <point x="266" y="623" type="curve" smooth="yes"/>
      <point x="266" y="668"/>
      <point x="276" y="715"/>
      <point x="297" y="751" type="curve" smooth="yes"/>
      <point x="318" y="787"/>
      <point x="352" y="811"/>
      <point x="399" y="811" type="curve" smooth="yes"/>
      <point x="439" y="811"/>
      <point x="488" y="794"/>
      <point x="513" y="761" type="curve"/>
      <point x="546" y="776"/>
      <point x="568" y="792"/>
      <point x="568" y="837" type="curve" smooth="yes"/>
      <point x="568" y="861"/>
      <point x="555" y="876"/>
      <point x="539" y="885" type="curve" smooth="yes"/>
      <point x="522" y="894"/>
      <point x="501" y="897"/>
      <point x="488" y="897" type="curve" smooth="yes"/>
      <point x="424" y="897"/>
      <point x="365" y="875"/>
      <point x="314" y="842" type="curve" smooth="yes"/>
      <point x="263" y="809"/>
      <point x="222" y="761"/>
      <point x="193" y="712" type="curve" smooth="yes"/>
      <point x="164" y="663"/>
      <point x="147" y="609"/>
      <point x="147" y="561" type="curve" smooth="yes"/>
      <point x="147" y="521"/>
      <point x="151" y="478"/>
      <point x="158" y="433" type="curve"/>
      <point x="48" y="430" type="line"/>
      <point x="39" y="390" type="line"/>
      <point x="46" y="383" type="line"/>
      <point x="163" y="383" type="line"/>
      <point x="164" y="372"/>
      <point x="164" y="362"/>
      <point x="165" y="353" type="curve" smooth="yes"/>
      <point x="166" y="343"/>
      <point x="166" y="333"/>
      <point x="166" y="324" type="curve" smooth="yes"/>
      <point x="166" y="293"/>
      <point x="164" y="253"/>
      <point x="143" y="204" type="curve" smooth="yes"/>
      <point x="122" y="155"/>
      <point x="82" y="96"/>
      <point x="5" y="31" type="curve"/>
      <point x="36" y="-3" type="line"/>
      <point x="71" y="36"/>
      <point x="104" y="63"/>
      <point x="153" y="63" type="curve" smooth="yes"/>
      <point x="200" y="63"/>
      <point x="233" y="42"/>
      <point x="274" y="22" type="curve" smooth="yes"/>
      <point x="314" y="1"/>
      <point x="361" y="-20"/>
      <point x="436" y="-20" type="curve" smooth="yes"/>
    </contour>
  </outline>
</glyph>
<glyph name="currency" format="1">
  <advance width="332"/>
  <unicode hex="00A4"/>
  <outline>
    <contour>
      <point x="27" y="103" type="line"/>
      <point x="59" y="82" type="line"/>
      <point x="99" y="123" type="line"/>
      <point x="117" y="109"/>
      <point x="140" y="101"/>
      <point x="166" y="101" type="curve" smooth="yes"/>
      <point x="191" y="101"/>
      <point x="214" y="109"/>
      <point x="233" y="123" type="curve"/>
      <point x="275" y="74" type="line"/>
      <point x="296" y="106" type="line"/>
      <point x="256" y="144" type="line"/>
      <point x="273" y="164"/>
      <point x="283" y="189"/>
      <point x="283" y="218" type="curve" smooth="yes"/>
      <point x="283" y="248"/>
      <point x="273" y="273"/>
      <point x="256" y="293" type="curve"/>
      <point x="305" y="335" type="line"/>
      <point x="273" y="356" type="line"/>
      <point x="233" y="314" type="line"/>
      <point x="214" y="328"/>
      <point x="191" y="335"/>
      <point x="166" y="335" type="curve" smooth="yes"/>
      <point x="140" y="335"/>
      <point x="117" y="328"/>
      <point x="98" y="313" type="curve"/>
      <point x="56" y="362" type="line"/>
      <point x="35" y="331" type="line"/>
      <point x="75" y="292" type="line"/>
      <point x="58" y="271"/>
      <point x="49" y="247"/>
      <point x="49" y="218" type="curve" smooth="yes"/>
      <point x="49" y="189"/>
      <point x="58" y="165"/>
      <point x="75" y="145" type="curve"/>
    </contour>
    <contour>
      <point x="86" y="219" type="curve" smooth="yes"/>
      <point x="86" y="267"/>
      <point x="119" y="306"/>
      <point x="166" y="306" type="curve" smooth="yes"/>
      <point x="214" y="306"/>
      <point x="246" y="267"/>
      <point x="246" y="219" type="curve" smooth="yes"/>
      <point x="246" y="171"/>
      <point x="214" y="132"/>
      <point x="166" y="132" type="curve" smooth="yes"/>
      <point x="118" y="132"/>
      <point x="86" y="171"/>
    </contour>
  </outline>
</glyph>
<glyph name="yen" format="1">
  <advance width="332"/>
  <unicode hex="00A5"/>
  <outline>
    <contour>
      <point x="-27" y="397" type="line"/>
      <point x="-6" y="396"/>
      <point x="7" y="393"/>
      <point x="19" y="383" type="curve" smooth="yes"/>
      <point x="30" y="374"/>
      <point x="40" y="359"/>
      <point x="55" y="333" type="curve" smooth="yes"/>
      <point x="69" y="309"/>
      <point x="81" y="292"/>
      <point x="94" y="269" type="curve" smooth="yes"/>
      <point x="105" y="250"/>
      <point x="115" y="231"/>
      <point x="129" y="202" type="curve"/>
      <point x="34" y="202" type="line"/>
      <point x="36" y="177" type="line"/>
      <point x="134" y="177" type="line"/>
      <point x="134" y="133" type="line"/>
      <point x="40" y="133" type="line"/>
      <point x="42" y="107" type="line"/>
      <point x="134" y="107" type="line"/>
      <point x="134" y="79" type="line" smooth="yes"/>
      <point x="134" y="24"/>
      <point x="121" y="21"/>
      <point x="66" y="17" type="curve"/>
      <point x="68" y="0" type="line"/>
      <point x="112" y="0" type="line" smooth="yes"/>
      <point x="120" y="0"/>
      <point x="127" y="0"/>
      <point x="135" y="1" type="curve" smooth="yes"/>
      <point x="150" y="1"/>
      <point x="166" y="1"/>
      <point x="181" y="1" type="curve" smooth="yes"/>
      <point x="189" y="1"/>
      <point x="198" y="0"/>
      <point x="207" y="0" type="curve" smooth="yes"/>
      <point x="257" y="0" type="line"/>
      <point x="258" y="18" type="line"/>
      <point x="209" y="20"/>
      <point x="188" y="21"/>
      <point x="188" y="61" type="curve" smooth="yes"/>
      <point x="188" y="107" type="line"/>
      <point x="281" y="107" type="line"/>
      <point x="283" y="133" type="line"/>
      <point x="188" y="133" type="line"/>
      <point x="188" y="177" type="line"/>
      <point x="287" y="177" type="line"/>
      <point x="289" y="202" type="line"/>
      <point x="192" y="202" type="line"/>
      <point x="215" y="248"/>
      <point x="231" y="275"/>
      <point x="258" y="323" type="curve" smooth="yes"/>
      <point x="276" y="353"/>
      <point x="288" y="372"/>
      <point x="301" y="382" type="curve" smooth="yes"/>
      <point x="313" y="393"/>
      <point x="327" y="396"/>
      <point x="350" y="398" type="curve"/>
      <point x="349" y="415" type="line"/>
      <point x="336" y="415"/>
      <point x="325" y="415"/>
      <point x="314" y="415" type="curve" smooth="yes"/>
      <point x="303" y="414"/>
      <point x="291" y="414"/>
      <point x="279" y="414" type="curve" smooth="yes"/>
      <point x="271" y="414"/>
      <point x="265" y="414"/>
      <point x="259" y="415" type="curve" smooth="yes"/>
      <point x="242" y="415"/>
      <point x="226" y="415"/>
      <point x="209" y="415" type="curve"/>
      <point x="208" y="397" type="line"/>
      <point x="229" y="396"/>
      <point x="251" y="394"/>
      <point x="251" y="378" type="curve" smooth="yes"/>
      <point x="251" y="374"/>
      <point x="250" y="369"/>
      <point x="249" y="363" type="curve"/>
      <point x="246" y="358"/>
      <point x="242" y="350"/>
      <point x="236" y="339" type="curve" smooth="yes"/>
      <point x="174" y="231" type="line"/>
      <point x="109" y="346" type="line" smooth="yes"/>
      <point x="101" y="360"/>
      <point x="96" y="371"/>
      <point x="96" y="379" type="curve" smooth="yes"/>
      <point x="96" y="395"/>
      <point x="117" y="397"/>
      <point x="135" y="398" type="curve"/>
      <point x="134" y="415" type="line"/>
      <point x="123" y="415"/>
      <point x="111" y="415"/>
      <point x="99" y="415" type="curve" smooth="yes"/>
      <point x="87" y="414"/>
      <point x="75" y="414"/>
      <point x="61" y="414" type="curve" smooth="yes"/>
      <point x="44" y="414"/>
      <point x="28" y="414"/>
      <point x="13" y="415" type="curve" smooth="yes"/>
      <point x="-2" y="415"/>
      <point x="-15" y="415"/>
      <point x="-26" y="415" type="curve"/>
    </contour>
  </outline>
</glyph>
<glyph name="brokenbar" format="1">
  <advance width="219"/>
  <unicode hex="00A6"/>
  <outline>
    <contour>
      <point x="88" y="103" type="line"/>
      <point x="88" y="-156" type="line"/>
      <point x="131" y="-156" type="line"/>
      <point x="131" y="103" type="line"/>
    </contour>
    <contour>
      <point x="88" y="210" type="line"/>
      <point x="131" y="210" type="line"/>
      <point x="131" y="469" type="line"/>
      <point x="88" y="469" type="line"/>
    </contour>
  </outline>
</glyph>
<glyph name="section" format="1">
  <advance width="417"/>
  <unicode hex="00A7"/>
  <outline>
    <contour>
      <point x="58" y="272" type="curve" smooth="yes"/>
      <point x="58" y="239"/>
      <point x="65" y="215"/>
      <point x="87" y="191" type="curve" smooth="yes"/>
      <point x="108" y="167"/>
      <point x="143" y="142"/>
      <point x="199" y="111" type="curve" smooth="yes"/>
      <point x="251" y="82"/>
      <point x="283" y="59"/>
      <point x="303" y="40" type="curve" smooth="yes"/>
      <point x="322" y="21"/>
      <point x="328" y="5"/>
      <point x="328" y="-11" type="curve" smooth="yes"/>
      <point x="328" y="-60"/>
      <point x="283" y="-88"/>
      <point x="233" y="-88" type="curve" smooth="yes"/>
      <point x="195" y="-88"/>
      <point x="143" y="-74"/>
      <point x="140" y="-46" type="curve"/>
      <point x="162" y="-43"/>
      <point x="178" y="-28"/>
      <point x="178" y="-6" type="curve" smooth="yes"/>
      <point x="178" y="19"/>
      <point x="154" y="43"/>
      <point x="128" y="43" type="curve" smooth="yes"/>
      <point x="91" y="43"/>
      <point x="70" y="9"/>
      <point x="70" y="-24" type="curve" smooth="yes"/>
      <point x="70" y="-88"/>
      <point x="140" y="-130"/>
      <point x="212" y="-130" type="curve" smooth="yes"/>
      <point x="306" y="-130"/>
      <point x="367" y="-75"/>
      <point x="367" y="8" type="curve" smooth="yes"/>
      <point x="367" y="46"/>
      <point x="350" y="86"/>
      <point x="326" y="112" type="curve"/>
      <point x="362" y="139"/>
      <point x="387" y="170"/>
      <point x="387" y="230" type="curve" smooth="yes"/>
      <point x="387" y="269"/>
      <point x="378" y="298"/>
      <point x="355" y="324" type="curve" smooth="yes"/>
      <point x="332" y="351"/>
      <point x="295" y="374"/>
      <point x="240" y="402" type="curve" smooth="yes"/>
      <point x="193" y="427"/>
      <point x="162" y="446"/>
      <point x="143" y="464" type="curve" smooth="yes"/>
      <point x="124" y="482"/>
      <point x="117" y="499"/>
      <point x="117" y="517" type="curve" smooth="yes"/>
      <point x="117" y="560"/>
      <point x="158" y="589"/>
      <point x="204" y="589" type="curve" smooth="yes"/>
      <point x="256" y="589"/>
      <point x="284" y="570"/>
      <point x="295" y="541" type="curve"/>
      <point x="273" y="535"/>
      <point x="263" y="520"/>
      <point x="263" y="503" type="curve" smooth="yes"/>
      <point x="263" y="473"/>
      <point x="284" y="462"/>
      <point x="309" y="462" type="curve" smooth="yes"/>
      <point x="339" y="462"/>
      <point x="358" y="491"/>
      <point x="358" y="522" type="curve" smooth="yes"/>
      <point x="358" y="585"/>
      <point x="290" y="631"/>
      <point x="219" y="631" type="curve" smooth="yes"/>
      <point x="138" y="631"/>
      <point x="78" y="573"/>
      <point x="78" y="496" type="curve" smooth="yes"/>
      <point x="78" y="454"/>
      <point x="95" y="423"/>
      <point x="124" y="394" type="curve"/>
      <point x="88" y="371"/>
      <point x="58" y="326"/>
    </contour>
    <contour>
      <point x="98" y="297" type="curve" smooth="yes"/>
      <point x="98" y="336"/>
      <point x="122" y="364"/>
      <point x="158" y="368" type="curve"/>
      <point x="242" y="321"/>
      <point x="289" y="292"/>
      <point x="315" y="269" type="curve" smooth="yes"/>
      <point x="342" y="246"/>
      <point x="347" y="230"/>
      <point x="347" y="210" type="curve" smooth="yes"/>
      <point x="347" y="173"/>
      <point x="329" y="146"/>
      <point x="298" y="136" type="curve"/>
      <point x="281" y="150"/>
      <point x="265" y="160"/>
      <point x="246" y="171" type="curve" smooth="yes"/>
      <point x="180" y="207"/>
      <point x="143" y="230"/>
      <point x="123" y="248" type="curve" smooth="yes"/>
      <point x="102" y="266"/>
      <point x="98" y="280"/>
    </contour>
  </outline>
</glyph>
<glyph name="copyright" format="1">
  <advance width="571"/>
  <unicode hex="00A9"/>
  <outline>
    <contour>
      <point x="49" y="235" type="curve" smooth="yes"/>
      <point x="49" y="105"/>
      <point x="156" y="2"/>
      <point x="286" y="2" type="curve" smooth="yes"/>
      <point x="416" y="2"/>
      <point x="522" y="105"/>
      <point x="522" y="235" type="curve" smooth="yes"/>
      <point x="522" y="364"/>
      <point x="416" y="466"/>
      <point x="286" y="466" type="curve" smooth="yes"/>
      <point x="156" y="466"/>
      <point x="49" y="364"/>
    </contour>
    <contour>
      <point x="80" y="234" type="curve" smooth="yes"/>
      <point x="80" y="348"/>
      <point x="171" y="442"/>
      <point x="286" y="442" type="curve" smooth="yes"/>
      <point x="401" y="442"/>
      <point x="491" y="349"/>
      <point x="491" y="234" type="curve" smooth="yes"/>
      <point x="491" y="120"/>
      <point x="400" y="27"/>
      <point x="286" y="27" type="curve" smooth="yes"/>
      <point x="172" y="27"/>
      <point x="80" y="120"/>
    </contour>
    <contour>
      <point x="150" y="233" type="curve" smooth="yes"/>
      <point x="150" y="155"/>
      <point x="212" y="106"/>
      <point x="290" y="106" type="curve" smooth="yes"/>
      <point x="319" y="106"/>
      <point x="346" y="112"/>
      <point x="375" y="120" type="curve"/>
      <point x="377" y="144"/>
      <point x="380" y="163"/>
      <point x="386" y="188" type="curve"/>
      <point x="371" y="191" type="line"/>
      <point x="357" y="155"/>
      <point x="343" y="128"/>
      <point x="299" y="128" type="curve" smooth="yes"/>
      <point x="238" y="128"/>
      <point x="207" y="179"/>
      <point x="207" y="240" type="curve" smooth="yes"/>
      <point x="207" y="302"/>
      <point x="240" y="344"/>
      <point x="301" y="344" type="curve" smooth="yes"/>
      <point x="333" y="344"/>
      <point x="356" y="327"/>
      <point x="359" y="288" type="curve"/>
      <point x="375" y="289" type="line"/>
      <point x="375" y="312"/>
      <point x="376" y="332"/>
      <point x="378" y="355" type="curve"/>
      <point x="356" y="361"/>
      <point x="330" y="364"/>
      <point x="308" y="364" type="curve" smooth="yes"/>
      <point x="221" y="364"/>
      <point x="150" y="320"/>
    </contour>
  </outline>
</glyph>
<glyph name="guillemotleft" format="1">
  <advance width="657"/>
  <unicode hex="00AB"/>
  <note>
    guillemotleft
  </note>
  <outline>
    <contour>
      <point x="557" y="71" type="line"/>
      <point x="426" y="285" type="line"/>
      <point x="557" y="499" type="line"/>
      <point x="525" y="519" type="line"/>
      <point x="449" y="426"/>
      <point x="380" y="348"/>
      <point x="320" y="292" type="curve"/>
      <point x="320" y="278" type="line"/>
      <point x="380" y="222"/>
      <point x="449" y="144"/>
      <point x="525" y="51" type="curve"/>
    </contour>
    <contour>
      <point x="337" y="71" type="line"/>
      <point x="206" y="285" type="line"/>
      <point x="337" y="499" type="line"/>
      <point x="305" y="519" type="line"/>
      <point x="229" y="426"/>
      <point x="160" y="348"/>
      <point x="100" y="292" type="curve"/>
      <point x="100" y="278" type="line"/>
      <point x="160" y="222"/>
      <point x="229" y="144"/>
      <point x="305" y="51" type="curve"/>
    </contour>
  </outline>
</glyph>
<glyph name="logicalnot" format="1">
  <advance width="680"/>
  <unicode hex="00AC"/>
  <note>
    logicalnot
  </note>
  <outline>
    <contour>
      <point x="610" y="10" type="line"/>
      <point x="610" y="328" type="line"/>
      <point x="66" y="328" type="line"/>
      <point x="61" y="262" type="line"/>
      <point x="544" y="262" type="line"/>
      <point x="544" y="5" type="line"/>
    </contour>
  </outline>
</glyph>
<glyph name="registered" format="1">
  <advance width="1170"/>
  <unicode hex="00AE"/>
  <note>
    registered
  </note>
  <outline>
    <contour>
      <point x="718" y="5"/>
      <point x="839" y="58"/>
      <point x="927" y="144" type="curve" smooth="yes"/>
      <point x="1015" y="230"/>
      <point x="1070" y="348"/>
      <point x="1070" y="481" type="curve" smooth="yes"/>
      <point x="1070" y="613"/>
      <point x="1015" y="732"/>
      <point x="927" y="817" type="curve" smooth="yes"/>
      <point x="839" y="902"/>
      <point x="718" y="955"/>
      <point x="586" y="955" type="curve" smooth="yes"/>
      <point x="453" y="955"/>
      <point x="331" y="902"/>
      <point x="243" y="817" type="curve" smooth="yes"/>
      <point x="155" y="732"/>
      <point x="100" y="613"/>
      <point x="100" y="481" type="curve" smooth="yes"/>
      <point x="100" y="348"/>
      <point x="155" y="230"/>
      <point x="243" y="144" type="curve" smooth="yes"/>
      <point x="331" y="58"/>
      <point x="453" y="5"/>
      <point x="586" y="5" type="curve" smooth="yes"/>
    </contour>
    <contour>
      <point x="469" y="55"/>
      <point x="364" y="102"/>
      <point x="288" y="179" type="curve" smooth="yes"/>
      <point x="212" y="255"/>
      <point x="164" y="361"/>
      <point x="164" y="480" type="curve" smooth="yes"/>
      <point x="164" y="599"/>
      <point x="212" y="705"/>
      <point x="288" y="782" type="curve" smooth="yes"/>
      <point x="364" y="858"/>
      <point x="469" y="905"/>
      <point x="585" y="905" type="curve" smooth="yes"/>
      <point x="701" y="905"/>
      <point x="806" y="858"/>
      <point x="882" y="782" type="curve" smooth="yes"/>
      <point x="958" y="705"/>
      <point x="1006" y="599"/>
      <point x="1006" y="480" type="curve" smooth="yes"/>
      <point x="1006" y="361"/>
      <point x="958" y="255"/>
      <point x="882" y="179" type="curve" smooth="yes"/>
      <point x="806" y="102"/>
      <point x="701" y="55"/>
      <point x="585" y="55" type="curve" smooth="yes"/>
    </contour>
    <contour>
      <point x="372" y="228"/>
      <point x="387" y="228"/>
      <point x="407" y="229" type="curve"/>
      <point x="466" y="229" type="line"/>
      <point x="537" y="229" type="line"/>
      <point x="556" y="228"/>
      <point x="573" y="228"/>
      <point x="589" y="228" type="curve"/>
      <point x="591" y="256" type="line"/>
      <point x="559" y="257"/>
      <point x="541" y="261"/>
      <point x="532" y="269" type="curve"/>
      <point x="523" y="276"/>
      <point x="521" y="287"/>
      <point x="521" y="304" type="curve" smooth="yes"/>
      <point x="521" y="456" type="line"/>
      <point x="556" y="456" type="line" smooth="yes"/>
      <point x="579" y="456"/>
      <point x="583" y="449"/>
      <point x="594" y="432" type="curve"/>
      <point x="632" y="366" type="line"/>
      <point x="655" y="322"/>
      <point x="673" y="286"/>
      <point x="686" y="259" type="curve" smooth="yes"/>
      <point x="700" y="228" type="line"/>
      <point x="710" y="229" type="line"/>
      <point x="809" y="229" type="line"/>
      <point x="831" y="228"/>
      <point x="849" y="228"/>
      <point x="863" y="228" type="curve"/>
      <point x="865" y="256" type="line"/>
      <point x="838" y="257"/>
      <point x="822" y="260"/>
      <point x="808" y="266" type="curve" smooth="yes"/>
      <point x="794" y="272"/>
      <point x="784" y="282"/>
      <point x="772" y="299" type="curve" smooth="yes"/>
      <point x="763" y="312"/>
      <point x="748" y="337"/>
      <point x="731" y="369" type="curve" smooth="yes"/>
      <point x="722" y="385"/>
      <point x="713" y="403"/>
      <point x="703" y="422" type="curve"/>
      <point x="692" y="441"/>
      <point x="682" y="460"/>
      <point x="671" y="480" type="curve"/>
      <point x="731" y="503"/>
      <point x="778" y="552"/>
      <point x="778" y="620" type="curve" smooth="yes"/>
      <point x="778" y="671"/>
      <point x="749" y="701"/>
      <point x="710" y="718" type="curve" smooth="yes"/>
      <point x="671" y="734"/>
      <point x="621" y="739"/>
      <point x="580" y="739" type="curve" smooth="yes"/>
      <point x="560" y="739"/>
      <point x="541" y="738"/>
      <point x="522" y="737" type="curve" smooth="yes"/>
      <point x="503" y="736"/>
      <point x="485" y="735"/>
      <point x="467" y="735" type="curve" smooth="yes"/>
      <point x="448" y="735"/>
      <point x="428" y="735"/>
      <point x="408" y="736" type="curve"/>
      <point x="360" y="736" type="line"/>
      <point x="358" y="707" type="line"/>
      <point x="418" y="704"/>
      <point x="429" y="694"/>
      <point x="429" y="661" type="curve" smooth="yes"/>
      <point x="429" y="321" type="line" smooth="yes"/>
      <point x="429" y="296"/>
      <point x="426" y="280"/>
      <point x="416" y="271" type="curve" smooth="yes"/>
      <point x="406" y="262"/>
      <point x="388" y="257"/>
      <point x="360" y="256" type="curve"/>
      <point x="362" y="228" type="line"/>
    </contour>
    <contour>
      <point x="521" y="652" type="line" smooth="yes"/>
      <point x="521" y="685"/>
      <point x="532" y="699"/>
      <point x="567" y="699" type="curve" smooth="yes"/>
      <point x="627" y="699"/>
      <point x="673" y="671"/>
      <point x="673" y="611" type="curve" smooth="yes"/>
      <point x="673" y="535"/>
      <point x="624" y="493"/>
      <point x="555" y="493" type="curve" smooth="yes"/>
      <point x="521" y="493" type="line"/>
    </contour>
  </outline>
</glyph>
<glyph name="degree" format="1">
  <advance width="278"/>
  <unicode hex="00B0"/>
  <outline>
    <contour>
      <point x="71" y="521" type="curve" smooth="yes"/>
      <point x="71" y="470"/>
      <point x="114" y="428"/>
      <point x="164" y="428" type="curve" smooth="yes"/>
      <point x="214" y="428"/>
      <point x="257" y="471"/>
      <point x="257" y="521" type="curve" smooth="yes"/>
      <point x="257" y="571"/>
      <point x="214" y="614"/>
      <point x="164" y="614" type="curve" smooth="yes"/>
      <point x="114" y="614"/>
      <point x="71" y="572"/>
    </contour>
    <contour>
      <point x="102" y="521" type="curve" smooth="yes"/>
      <point x="102" y="555"/>
      <point x="129" y="583"/>
      <point x="164" y="583" type="curve" smooth="yes"/>
      <point x="198" y="583"/>
      <point x="226" y="555"/>
      <point x="226" y="521" type="curve" smooth="yes"/>
      <point x="226" y="486"/>
      <point x="198" y="459"/>
      <point x="164" y="459" type="curve" smooth="yes"/>
      <point x="129" y="459"/>
      <point x="102" y="486"/>
    </contour>
  </outline>
</glyph>
<glyph name="plusminus" format="1">
  <advance width="1063"/>
  <unicode hex="00B1"/>
  <note>
    plusminus
  </note>
  <outline>
    <contour>
      <point x="968" y="2" type="line"/>
      <point x="968" y="97" type="line"/>
      <point x="614" y="97" type="line"/>
      <point x="614" y="396" type="line"/>
      <point x="971" y="396" type="line"/>
      <point x="971" y="491" type="line"/>
      <point x="614" y="491" type="line"/>
      <point x="614" y="847" type="line"/>
      <point x="520" y="847" type="line"/>
      <point x="520" y="491" type="line"/>
      <point x="166" y="491" type="line"/>
      <point x="166" y="396" type="line"/>
      <point x="520" y="396" type="line"/>
      <point x="520" y="97" type="line"/>
      <point x="163" y="97" type="line"/>
      <point x="163" y="2" type="line"/>
    </contour>
  </outline>
</glyph>
<glyph name="paragraph" format="1">
  <advance width="429"/>
  <unicode hex="00B6"/>
  <note>
    paragraph
  </note>
  <outline>
    <contour>
      <point x="317" y="-150"/>
      <point x="333" y="-136"/>
      <point x="338" y="-118" type="curve"/>
      <point x="309" y="-69"/>
      <point x="291" y="-18"/>
      <point x="281" y="32" type="curve" smooth="yes"/>
      <point x="271" y="83"/>
      <point x="268" y="131"/>
      <point x="268" y="174" type="curve" smooth="yes"/>
      <point x="268" y="209"/>
      <point x="271" y="257"/>
      <point x="279" y="304" type="curve" smooth="yes"/>
      <point x="287" y="351"/>
      <point x="298" y="397"/>
      <point x="315" y="432" type="curve"/>
      <point x="317" y="436"/>
      <point x="321" y="440"/>
      <point x="329" y="444" type="curve" smooth="yes"/>
      <point x="337" y="448"/>
      <point x="350" y="451"/>
      <point x="371" y="452" type="curve"/>
      <point x="369" y="469" type="line"/>
      <point x="342" y="472"/>
      <point x="317" y="473"/>
      <point x="293" y="473" type="curve" smooth="yes"/>
      <point x="202" y="473"/>
      <point x="139" y="452"/>
      <point x="98" y="417" type="curve" smooth="yes"/>
      <point x="57" y="383"/>
      <point x="39" y="335"/>
      <point x="39" y="282" type="curve" smooth="yes"/>
      <point x="39" y="235"/>
      <point x="57" y="193"/>
      <point x="88" y="162" type="curve" smooth="yes"/>
      <point x="119" y="130"/>
      <point x="162" y="107"/>
      <point x="212" y="98" type="curve"/>
      <point x="211" y="113"/>
      <point x="211" y="128"/>
      <point x="211" y="142" type="curve" smooth="yes"/>
      <point x="211" y="265"/>
      <point x="229" y="363"/>
      <point x="267" y="447" type="curve"/>
      <point x="295" y="447" type="line"/>
      <point x="273" y="398"/>
      <point x="259" y="348"/>
      <point x="251" y="295" type="curve" smooth="yes"/>
      <point x="243" y="243"/>
      <point x="240" y="189"/>
      <point x="240" y="134" type="curve" smooth="yes"/>
      <point x="240" y="91"/>
      <point x="243" y="44"/>
      <point x="247" y="0" type="curve" smooth="yes"/>
      <point x="251" y="-45"/>
      <point x="259" y="-87"/>
      <point x="267" y="-118" type="curve" smooth="yes"/>
      <point x="271" y="-135"/>
      <point x="279" y="-150"/>
      <point x="299" y="-150" type="curve" smooth="yes"/>
    </contour>
  </outline>
</glyph>
<glyph name="periodcentered" format="1">
  <advance width="519"/>
  <unicode hex="00B7"/>
  <note>
    periodcentered
  </note>
  <outline>
    <contour>
      <point x="291" y="146"/>
      <point x="305" y="152"/>
      <point x="314" y="161" type="curve" smooth="yes"/>
      <point x="323" y="170"/>
      <point x="329" y="183"/>
      <point x="329" y="198" type="curve" smooth="yes"/>
      <point x="329" y="212"/>
      <point x="323" y="226"/>
      <point x="314" y="235" type="curve" smooth="yes"/>
      <point x="305" y="244"/>
      <point x="291" y="250"/>
      <point x="277" y="250" type="curve" smooth="yes"/>
      <point x="248" y="250"/>
      <point x="225" y="228"/>
      <point x="225" y="198" type="curve" smooth="yes"/>
      <point x="225" y="183"/>
      <point x="231" y="170"/>
      <point x="240" y="161" type="curve" smooth="yes"/>
      <point x="250" y="152"/>
      <point x="263" y="146"/>
      <point x="277" y="146" type="curve" smooth="yes"/>
    </contour>
  </outline>
</glyph>
<glyph name="guillemotright" format="1">
  <advance width="657"/>
  <unicode hex="00BB"/>
  <note>
    guillemotright
  </note>
  <outline>
    <contour>
      <point x="428" y="144"/>
      <point x="497" y="222"/>
      <point x="557" y="278" type="curve"/>
      <point x="557" y="292" type="line"/>
      <point x="497" y="348"/>
      <point x="428" y="426"/>
      <point x="352" y="519" type="curve"/>
      <point x="320" y="499" type="line"/>
      <point x="451" y="285" type="line"/>
      <point x="320" y="71" type="line"/>
      <point x="352" y="51" type="line"/>
    </contour>
    <contour>
      <point x="208" y="144"/>
      <point x="277" y="222"/>
      <point x="337" y="278" type="curve"/>
      <point x="337" y="292" type="line"/>
      <point x="277" y="348"/>
      <point x="208" y="426"/>
      <point x="132" y="519" type="curve"/>
      <point x="100" y="499" type="line"/>
      <point x="231" y="285" type="line"/>
      <point x="100" y="71" type="line"/>
      <point x="132" y="51" type="line"/>
    </contour>
  </outline>
</glyph>
<glyph name="onequarter" format="1">
  <advance width="757"/>
  <unicode hex="00BC"/>
  <note>
    onequarter
  </note>
  <outline>
    <contour>
      <point x="163" y="287" type="line"/>
      <point x="202" y="287" type="line"/>
      <point x="202" y="730" type="line"/>
      <point x="178" y="730" type="line"/>
      <point x="61" y="644" type="line"/>
      <point x="61" y="604" type="line"/>
      <point x="178" y="689" type="line"/>
      <point x="163" y="698" type="line"/>
    </contour>
    <contour>
      <point x="64" y="278" type="line"/>
      <point x="296" y="278" type="line"/>
      <point x="296" y="314" type="line"/>
      <point x="64" y="314" type="line"/>
    </contour>
    <contour>
      <point x="188" y="-61" type="line"/>
      <point x="229" y="-61" type="line"/>
      <point x="568" y="729" type="line"/>
      <point x="527" y="729" type="line"/>
    </contour>
    <contour>
      <point x="443" y="49" type="line"/>
      <point x="743" y="49" type="line"/>
      <point x="743" y="84" type="line"/>
      <point x="476" y="84" type="line"/>
      <point x="483" y="73" type="line"/>
      <point x="644" y="390" type="line"/>
      <point x="604" y="390" type="line"/>
      <point x="443" y="73" type="line"/>
    </contour>
    <contour>
      <point x="645" y="-61" type="line"/>
      <point x="682" y="-61" type="line"/>
      <point x="682" y="237" type="line"/>
      <point x="653" y="237" type="line"/>
      <point x="645" y="84" type="line"/>
    </contour>
  </outline>
</glyph>
<glyph name="multiply" format="1">
  <advance width="1063"/>
  <unicode hex="00D7"/>
  <note>
    multiply
  </note>
  <outline>
    <contour>
      <point x="958" y="80" type="line"/>
      <point x="635" y="403" type="line"/>
      <point x="958" y="727" type="line"/>
      <point x="891" y="795" type="line"/>
      <point x="567" y="471" type="line"/>
      <point x="244" y="795" type="line"/>
      <point x="176" y="727" type="line"/>
      <point x="500" y="403" type="line"/>
      <point x="178" y="80" type="line"/>
      <point x="244" y="14" type="line"/>
      <point x="567" y="336" type="line"/>
      <point x="891" y="12" type="line"/>
    </contour>
  </outline>
</glyph>
<glyph name="divide" format="1">
  <advance width="519"/>
  <unicode hex="00F7"/>
  <outline>
    <contour>
      <point x="81" y="174" type="line"/>
      <point x="474" y="174" type="line"/>
      <point x="474" y="220" type="line"/>
      <point x="81" y="220" type="line"/>
    </contour>
    <contour>
      <point x="225" y="64" type="curve" smooth="yes"/>
      <point x="225" y="35"/>
      <point x="248" y="12"/>
      <point x="277" y="12" type="curve" smooth="yes"/>
      <point x="306" y="12"/>
      <point x="329" y="35"/>
      <point x="329" y="64" type="curve" smooth="yes"/>
      <point x="329" y="93"/>
      <point x="306" y="116"/>
      <point x="277" y="116" type="curve" smooth="yes"/>
      <point x="248" y="116"/>
      <point x="225" y="93"/>
    </contour>
    <contour>
      <point x="225" y="330" type="curve" smooth="yes"/>
      <point x="225" y="300"/>
      <point x="248" y="278"/>
      <point x="277" y="278" type="curve" smooth="yes"/>
      <point x="306" y="278"/>
      <point x="329" y="300"/>
      <point x="329" y="330" type="curve" smooth="yes"/>
      <point x="329" y="359"/>
      <point x="306" y="382"/>
      <point x="277" y="382" type="curve" smooth="yes"/>
      <point x="248" y="382"/>
      <point x="225" y="359"/>
    </contour>
  </outline>
</glyph>
<glyph name="sinAnusvara" format="1">
  <advance width="332"/>
  <unicode hex="0D82"/>
  <outline>
    <contour>
      <point x="13" y="254" type="curve" smooth="yes"/>
      <point x="13" y="160"/>
      <point x="76" y="63"/>
      <point x="167" y="63" type="curve" smooth="yes"/>
      <point x="260" y="63"/>
      <point x="318" y="157"/>
      <point x="318" y="254" type="curve" smooth="yes"/>
      <point x="318" y="350"/>
      <point x="259" y="445"/>
      <point x="167" y="445" type="curve" smooth="yes"/>
      <point x="75" y="445"/>
      <point x="13" y="350"/>
    </contour>
    <contour>
      <point x="57" y="254" type="curve" smooth="yes"/>
      <point x="57" y="326"/>
      <point x="100" y="403"/>
      <point x="167" y="403" type="curve" smooth="yes"/>
      <point x="237" y="403"/>
      <point x="275" y="329"/>
      <point x="275" y="254" type="curve" smooth="yes"/>
      <point x="275" y="184"/>
      <point x="231" y="105"/>
      <point x="166" y="105" type="curve" smooth="yes"/>
      <point x="98" y="105"/>
      <point x="57" y="182"/>
    </contour>
  </outline>
</glyph>
<glyph name="uni0D82" format="1">
  <advance width="680"/>
  <unicode hex="0D82"/>
  <note>
    uni0D82
  </note>
  <outline>
    <contour>
      <point x="533" y="129"/>
      <point x="651" y="321"/>
      <point x="651" y="520" type="curve" smooth="yes"/>
      <point x="651" y="716"/>
      <point x="530" y="911"/>
      <point x="342" y="911" type="curve" smooth="yes"/>
      <point x="153" y="911"/>
      <point x="27" y="717"/>
      <point x="27" y="520" type="curve" smooth="yes"/>
      <point x="27" y="327"/>
      <point x="155" y="129"/>
      <point x="342" y="129" type="curve" smooth="yes"/>
    </contour>
    <contour>
      <point x="200" y="215"/>
      <point x="117" y="372"/>
      <point x="117" y="520" type="curve" smooth="yes"/>
      <point x="117" y="667"/>
      <point x="205" y="825"/>
      <point x="342" y="825" type="curve" smooth="yes"/>
      <point x="486" y="825"/>
      <point x="563" y="673"/>
      <point x="563" y="520" type="curve" smooth="yes"/>
      <point x="563" y="377"/>
      <point x="473" y="215"/>
      <point x="340" y="215" type="curve" smooth="yes"/>
    </contour>
  </outline>
</glyph>
<glyph name="sinVisarga" format="1">
  <advance width="302"/>
  <unicode hex="0D83"/>
  <outline>
    <contour>
      <point x="71" y="86" type="curve" smooth="yes"/>
      <point x="71" y="40"/>
      <point x="109" y="1"/>
      <point x="156" y="1" type="curve" smooth="yes"/>
      <point x="202" y="1"/>
      <point x="240" y="39"/>
      <point x="240" y="86" type="curve" smooth="yes"/>
      <point x="240" y="133"/>
      <point x="203" y="170"/>
      <point x="156" y="170" type="curve" smooth="yes"/>
      <point x="108" y="170"/>
      <point x="71" y="132"/>
    </contour>
    <contour>
      <point x="71" y="351" type="curve" smooth="yes"/>
      <point x="71" y="305"/>
      <point x="109" y="267"/>
      <point x="156" y="267" type="curve" smooth="yes"/>
      <point x="202" y="267"/>
      <point x="240" y="304"/>
      <point x="240" y="351" type="curve" smooth="yes"/>
      <point x="240" y="399"/>
      <point x="202" y="436"/>
      <point x="156" y="436" type="curve" smooth="yes"/>
      <point x="109" y="436"/>
      <point x="71" y="398"/>
    </contour>
    <contour>
      <point x="89" y="85" type="curve" smooth="yes"/>
      <point x="89" y="122"/>
      <point x="119" y="152"/>
      <point x="155" y="152" type="curve" smooth="yes"/>
      <point x="191" y="152"/>
      <point x="222" y="122"/>
      <point x="222" y="85" type="curve" smooth="yes"/>
      <point x="222" y="47"/>
      <point x="192" y="19"/>
      <point x="155" y="19" type="curve" smooth="yes"/>
      <point x="118" y="19"/>
      <point x="89" y="48"/>
    </contour>
    <contour>
      <point x="89" y="351" type="curve" smooth="yes"/>
      <point x="89" y="388"/>
      <point x="119" y="418"/>
      <point x="155" y="418" type="curve" smooth="yes"/>
      <point x="191" y="418"/>
      <point x="222" y="388"/>
      <point x="222" y="351" type="curve" smooth="yes"/>
      <point x="222" y="313"/>
      <point x="192" y="285"/>
      <point x="155" y="285" type="curve" smooth="yes"/>
      <point x="118" y="285"/>
      <point x="89" y="314"/>
    </contour>
  </outline>
</glyph>
<glyph name="uni0D83" format="1">
  <advance width="618"/>
  <unicode hex="0D83"/>
  <note>
    uni0D83
  </note>
  <outline>
    <contour>
      <point x="367" y="547"/>
      <point x="410" y="566"/>
      <point x="442" y="598" type="curve" smooth="yes"/>
      <point x="473" y="629"/>
      <point x="492" y="672"/>
      <point x="492" y="719" type="curve" smooth="yes"/>
      <point x="492" y="767"/>
      <point x="473" y="810"/>
      <point x="442" y="842" type="curve" smooth="yes"/>
      <point x="410" y="874"/>
      <point x="367" y="893"/>
      <point x="319" y="893" type="curve" smooth="yes"/>
      <point x="271" y="893"/>
      <point x="228" y="874"/>
      <point x="196" y="842" type="curve" smooth="yes"/>
      <point x="164" y="810"/>
      <point x="145" y="767"/>
      <point x="145" y="719" type="curve" smooth="yes"/>
      <point x="145" y="672"/>
      <point x="164" y="629"/>
      <point x="196" y="598" type="curve" smooth="yes"/>
      <point x="228" y="566"/>
      <point x="271" y="547"/>
      <point x="319" y="547" type="curve" smooth="yes"/>
    </contour>
    <contour>
      <point x="367" y="2"/>
      <point x="410" y="22"/>
      <point x="442" y="54" type="curve" smooth="yes"/>
      <point x="473" y="86"/>
      <point x="492" y="129"/>
      <point x="492" y="176" type="curve" smooth="yes"/>
      <point x="492" y="223"/>
      <point x="473" y="266"/>
      <point x="442" y="298" type="curve" smooth="yes"/>
      <point x="410" y="329"/>
      <point x="367" y="348"/>
      <point x="319" y="348" type="curve" smooth="yes"/>
      <point x="271" y="348"/>
      <point x="228" y="329"/>
      <point x="196" y="298" type="curve" smooth="yes"/>
      <point x="164" y="266"/>
      <point x="145" y="223"/>
      <point x="145" y="176" type="curve" smooth="yes"/>
      <point x="145" y="129"/>
      <point x="164" y="86"/>
      <point x="196" y="54" type="curve" smooth="yes"/>
      <point x="228" y="22"/>
      <point x="271" y="2"/>
      <point x="319" y="2" type="curve" smooth="yes"/>
    </contour>
    <contour>
      <point x="280" y="39"/>
      <point x="246" y="54"/>
      <point x="222" y="78" type="curve" smooth="yes"/>
      <point x="197" y="102"/>
      <point x="182" y="135"/>
      <point x="182" y="174" type="curve" smooth="yes"/>
      <point x="182" y="211"/>
      <point x="197" y="246"/>
      <point x="222" y="271" type="curve" smooth="yes"/>
      <point x="246" y="296"/>
      <point x="280" y="311"/>
      <point x="317" y="311" type="curve" smooth="yes"/>
      <point x="354" y="311"/>
      <point x="390" y="296"/>
      <point x="415" y="271" type="curve" smooth="yes"/>
      <point x="439" y="246"/>
      <point x="455" y="211"/>
      <point x="455" y="174" type="curve" smooth="yes"/>
      <point x="455" y="135"/>
      <point x="439" y="102"/>
      <point x="415" y="78" type="curve" smooth="yes"/>
      <point x="390" y="54"/>
      <point x="354" y="39"/>
      <point x="317" y="39" type="curve" smooth="yes"/>
    </contour>
    <contour>
      <point x="280" y="584"/>
      <point x="246" y="599"/>
      <point x="222" y="623" type="curve" smooth="yes"/>
      <point x="197" y="647"/>
      <point x="182" y="680"/>
      <point x="182" y="719" type="curve" smooth="yes"/>
      <point x="182" y="756"/>
      <point x="197" y="791"/>
      <point x="222" y="816" type="curve" smooth="yes"/>
      <point x="246" y="841"/>
      <point x="280" y="856"/>
      <point x="317" y="856" type="curve" smooth="yes"/>
      <point x="354" y="856"/>
      <point x="390" y="841"/>
      <point x="415" y="816" type="curve" smooth="yes"/>
      <point x="439" y="791"/>
      <point x="455" y="756"/>
      <point x="455" y="719" type="curve" smooth="yes"/>
      <point x="455" y="680"/>
      <point x="439" y="647"/>
      <point x="415" y="623" type="curve" smooth="yes"/>
      <point x="390" y="599"/>
      <point x="354" y="584"/>
      <point x="317" y="584" type="curve" smooth="yes"/>
    </contour>
  </outline>
</glyph>
<glyph name="sinA" format="1">
  <advance width="522"/>
  <unicode hex="0D85"/>
  <outline>
    <contour>
      <point x="11" y="195" type="curve" smooth="yes"/>
      <point x="11" y="73"/>
      <point x="79" y="-1"/>
      <point x="200" y="-1" type="curve" smooth="yes"/>
      <point x="333" y="-1" type="line"/>
      <point x="333" y="-187" type="line"/>
      <point x="381" y="-187" type="line"/>
      <point x="381" y="-1" type="line"/>
      <point x="448" y="-1" type="line"/>
      <point x="453" y="42" type="line"/>
      <point x="381" y="42" type="line"/>
      <point x="381" y="208" type="line"/>
      <point x="501" y="208"/>
      <point x="506" y="283"/>
      <point x="506" y="304" type="curve" smooth="yes"/>
      <point x="506" y="365"/>
      <point x="469" y="389"/>
      <point x="424" y="389" type="curve"/>
      <point x="424" y="428"/>
      <point x="442" y="441"/>
      <point x="485" y="441" type="curve" smooth="yes"/>
      <point x="500" y="441" type="line"/>
      <point x="500" y="479" type="line"/>
      <point x="416" y="479"/>
      <point x="387" y="458"/>
      <point x="375" y="376" type="curve"/>
      <point x="379" y="377" type="line"/>
      <point x="379" y="451"/>
      <point x="324" y="505"/>
      <point x="217" y="505" type="curve" smooth="yes"/>
      <point x="136" y="505"/>
      <point x="51" y="472"/>
      <point x="51" y="395" type="curve"/>
      <point x="53" y="384" type="line"/>
      <point x="97" y="383" type="line"/>
      <point x="97" y="446"/>
      <point x="181" y="464"/>
      <point x="219" y="464" type="curve" smooth="yes"/>
      <point x="283" y="464"/>
      <point x="333" y="439"/>
      <point x="333" y="393" type="curve"/>
      <point x="209" y="393" type="line" smooth="yes"/>
      <point x="115" y="393"/>
      <point x="11" y="319"/>
    </contour>
    <contour>
      <point x="58" y="194" type="curve" smooth="yes"/>
      <point x="58" y="318"/>
      <point x="145" y="354"/>
      <point x="208" y="354" type="curve" smooth="yes"/>
      <point x="355" y="354" type="line"/>
      <point x="333" y="375" type="line"/>
      <point x="333" y="42" type="line"/>
      <point x="210" y="42" type="line" smooth="yes"/>
      <point x="92" y="42"/>
      <point x="58" y="125"/>
    </contour>
    <contour>
      <point x="379" y="250" type="curve"/>
      <point x="379" y="352" type="line"/>
      <point x="399" y="352" type="line" smooth="yes"/>
      <point x="447" y="352"/>
      <point x="464" y="330"/>
      <point x="464" y="300" type="curve" smooth="yes"/>
      <point x="464" y="263"/>
      <point x="425" y="250"/>
    </contour>
  </outline>
</glyph>
<glyph name="uni0D85" format="1">
  <advance width="1069"/>
  <unicode hex="0D85"/>
  <note>
    uni0D85
  </note>
  <outline>
    <contour>
      <point x="780" y="-383" type="line"/>
      <point x="780" y="-2" type="line"/>
      <point x="918" y="-2" type="line"/>
      <point x="928" y="85" type="line"/>
      <point x="780" y="85" type="line"/>
      <point x="780" y="426" type="line"/>
      <point x="1027" y="426"/>
      <point x="1036" y="580"/>
      <point x="1036" y="622" type="curve" smooth="yes"/>
      <point x="1036" y="747"/>
      <point x="960" y="797"/>
      <point x="868" y="797" type="curve"/>
      <point x="868" y="877"/>
      <point x="906" y="903"/>
      <point x="993" y="903" type="curve" smooth="yes"/>
      <point x="1024" y="903" type="line"/>
      <point x="1024" y="981" type="line"/>
      <point x="851" y="981"/>
      <point x="792" y="937"/>
      <point x="767" y="771" type="curve"/>
      <point x="776" y="773" type="line"/>
      <point x="776" y="924"/>
      <point x="664" y="1035"/>
      <point x="444" y="1035" type="curve" smooth="yes"/>
      <point x="279" y="1035"/>
      <point x="104" y="967"/>
      <point x="104" y="809" type="curve"/>
      <point x="109" y="786" type="line"/>
      <point x="199" y="784" type="line"/>
      <point x="199" y="913"/>
      <point x="370" y="950"/>
      <point x="449" y="950" type="curve" smooth="yes"/>
      <point x="580" y="950"/>
      <point x="682" y="900"/>
      <point x="682" y="805" type="curve"/>
      <point x="429" y="805" type="line"/>
      <point x="239" y="805"/>
      <point x="27" y="658"/>
      <point x="23" y="409" type="curve" smooth="yes"/>
      <point x="18" y="153"/>
      <point x="158" y="7"/>
      <point x="410" y="-2" type="curve" smooth="yes"/>
      <point x="682" y="-2" type="line"/>
      <point x="682" y="-383" type="line"/>
    </contour>
    <contour>
      <point x="430" y="85" type="line"/>
      <point x="188" y="87"/>
      <point x="119" y="257"/>
      <point x="119" y="397" type="curve" smooth="yes"/>
      <point x="119" y="651"/>
      <point x="297" y="725"/>
      <point x="426" y="725" type="curve"/>
      <point x="727" y="725" type="line"/>
      <point x="682" y="768" type="line"/>
      <point x="682" y="85" type="line"/>
    </contour>
    <contour>
      <point x="776" y="721" type="line"/>
      <point x="818" y="721" type="line" smooth="yes"/>
      <point x="915" y="721"/>
      <point x="950" y="675"/>
      <point x="950" y="615" type="curve" smooth="yes"/>
      <point x="950" y="538"/>
      <point x="871" y="512"/>
      <point x="776" y="512" type="curve"/>
    </contour>
  </outline>
</glyph>
<glyph name="sinAa" format="1">
  <advance width="802"/>
  <unicode hex="0D86"/>
  <outline>
    <contour>
      <point x="28" y="187" type="curve" smooth="yes"/>
      <point x="28" y="41"/>
      <point x="141" y="2"/>
      <point x="219" y="1" type="curve" smooth="yes"/>
      <point x="352" y="-1" type="line"/>
      <point x="352" y="-138" type="line"/>
      <point x="399" y="-138" type="line"/>
      <point x="399" y="-1" type="line"/>
      <point x="467" y="-1" type="line"/>
      <point x="467" y="41" type="line"/>
      <point x="399" y="41" type="line"/>
      <point x="399" y="208" type="line"/>
      <point x="447" y="208"/>
      <point x="513" y="228"/>
      <point x="520" y="265" type="curve"/>
      <point x="522" y="282" type="line"/>
      <point x="524" y="290"/>
      <point x="524" y="298"/>
      <point x="524" y="306" type="curve" smooth="yes"/>
      <point x="524" y="365"/>
      <point x="497" y="394"/>
      <point x="442" y="394" type="curve"/>
      <point x="442" y="433"/>
      <point x="461" y="441"/>
      <point x="503" y="441" type="curve" smooth="yes"/>
      <point x="519" y="441" type="line"/>
      <point x="519" y="479" type="line"/>
      <point x="504" y="479" type="line"/>
      <point x="475" y="477" type="line"/>
      <point x="434" y="469"/>
      <point x="407" y="477"/>
      <point x="398" y="395" type="curve"/>
      <point x="398" y="410" type="line"/>
      <point x="396" y="424" type="line"/>
      <point x="387" y="449" type="line"/>
      <point x="360" y="478" type="line" smooth="yes"/>
      <point x="344" y="496"/>
      <point x="313" y="505"/>
      <point x="268" y="505" type="curve" smooth="yes"/>
      <point x="262" y="505"/>
      <point x="256" y="505"/>
      <point x="250" y="505" type="curve" smooth="yes"/>
      <point x="208" y="503" type="line"/>
      <point x="171" y="497" type="line" smooth="yes"/>
      <point x="120" y="489"/>
      <point x="69" y="453"/>
      <point x="69" y="395" type="curve"/>
      <point x="72" y="384" type="line"/>
      <point x="116" y="383" type="line"/>
      <point x="117" y="408" type="line"/>
      <point x="119" y="418"/>
      <point x="126" y="428"/>
      <point x="139" y="438" type="curve" smooth="yes"/>
      <point x="163" y="456"/>
      <point x="195" y="464"/>
      <point x="238" y="464" type="curve" smooth="yes"/>
      <point x="241" y="464"/>
      <point x="243" y="464"/>
      <point x="246" y="464" type="curve" smooth="yes"/>
      <point x="274" y="463" type="line"/>
      <point x="301" y="460" type="line" smooth="yes"/>
      <point x="328" y="457"/>
      <point x="352" y="422"/>
      <point x="352" y="393" type="curve"/>
      <point x="193" y="393" type="line"/>
      <point x="147" y="386" type="line" smooth="yes"/>
      <point x="76" y="376"/>
      <point x="34" y="307"/>
      <point x="30" y="229" type="curve"/>
      <point x="28" y="202" type="line" smooth="yes"/>
      <point x="28" y="197"/>
      <point x="28" y="191"/>
    </contour>
    <contour>
      <point x="77" y="208" type="curve" smooth="yes"/>
      <point x="77" y="230"/>
      <point x="78" y="252"/>
      <point x="86" y="271" type="curve" smooth="yes"/>
      <point x="106" y="319"/>
      <point x="118" y="330"/>
      <point x="146" y="339" type="curve" smooth="yes"/>
      <point x="155" y="342"/>
      <point x="166" y="346"/>
      <point x="178" y="347" type="curve" smooth="yes"/>
      <point x="251" y="354" type="line"/>
      <point x="283" y="354" type="line"/>
      <point x="318" y="353" type="line"/>
      <point x="352" y="353" type="line"/>
      <point x="352" y="42" type="line"/>
      <point x="282" y="42" type="line"/>
      <point x="229" y="44" type="line"/>
      <point x="188" y="49" type="line"/>
      <point x="112" y="65"/>
      <point x="77" y="121"/>
    </contour>
    <contour>
      <point x="397" y="250" type="curve"/>
      <point x="397" y="352" type="line"/>
      <point x="428" y="352" type="line" smooth="yes"/>
      <point x="442" y="352"/>
      <point x="455" y="351"/>
      <point x="464" y="345" type="curve" smooth="yes"/>
      <point x="474" y="339"/>
      <point x="478" y="331"/>
      <point x="479" y="325" type="curve" smooth="yes"/>
      <point x="482" y="293" type="line"/>
      <point x="472" y="264"/>
      <point x="444" y="250"/>
    </contour>
    <contour>
      <point x="549" y="2" type="line"/>
      <point x="679" y="2"/>
      <point x="765" y="45"/>
      <point x="765" y="268" type="curve" smooth="yes"/>
      <point x="765" y="357"/>
      <point x="732" y="475"/>
      <point x="662" y="493" type="curve" smooth="yes"/>
      <point x="631" y="501"/>
      <point x="608" y="505"/>
      <point x="594" y="506" type="curve" smooth="yes"/>
      <point x="550" y="507" type="line"/>
      <point x="550" y="465" type="line"/>
      <point x="568" y="465" type="line" smooth="yes"/>
      <point x="620" y="465"/>
      <point x="638" y="461"/>
      <point x="670" y="430" type="curve" smooth="yes"/>
      <point x="703" y="398"/>
      <point x="720" y="343"/>
      <point x="720" y="263" type="curve" smooth="yes"/>
      <point x="720" y="182"/>
      <point x="705" y="88"/>
      <point x="636" y="53" type="curve" smooth="yes"/>
      <point x="620" y="45"/>
      <point x="600" y="42"/>
      <point x="578" y="42" type="curve" smooth="yes"/>
      <point x="549" y="43" type="line"/>
    </contour>
  </outline>
</glyph>
<glyph name="uni0D86" format="1">
  <advance width="1643"/>
  <unicode hex="0D86"/>
  <note>
    uni0D86
  </note>
  <outline>
    <contour>
      <point x="818" y="-283" type="line"/>
      <point x="818" y="-2" type="line"/>
      <point x="956" y="-2" type="line"/>
      <point x="956" y="84" type="line"/>
      <point x="818" y="84" type="line"/>
      <point x="818" y="426" type="line"/>
      <point x="915" y="426"/>
      <point x="1051" y="467"/>
      <point x="1064" y="543" type="curve" smooth="yes"/>
      <point x="1070" y="578" type="line" smooth="yes"/>
      <point x="1073" y="593"/>
      <point x="1074" y="610"/>
      <point x="1074" y="627" type="curve" smooth="yes"/>
      <point x="1074" y="747"/>
      <point x="1018" y="807"/>
      <point x="906" y="807" type="curve"/>
      <point x="906" y="887"/>
      <point x="944" y="903"/>
      <point x="1031" y="903" type="curve" smooth="yes"/>
      <point x="1062" y="903" type="line"/>
      <point x="1062" y="981" type="line"/>
      <point x="1033" y="981" type="line"/>
      <point x="972" y="977" type="line"/>
      <point x="889" y="960"/>
      <point x="833" y="977"/>
      <point x="816" y="809" type="curve"/>
      <point x="816" y="840" type="line"/>
      <point x="812" y="868" type="line"/>
      <point x="792" y="920" type="line"/>
      <point x="738" y="979" type="line" smooth="yes"/>
      <point x="704" y="1016"/>
      <point x="641" y="1035"/>
      <point x="548" y="1035" type="curve" smooth="yes"/>
      <point x="537" y="1035"/>
      <point x="525" y="1035"/>
      <point x="513" y="1034" type="curve" smooth="yes"/>
      <point x="427" y="1030" type="line"/>
      <point x="351" y="1018" type="line" smooth="yes"/>
      <point x="246" y="1002"/>
      <point x="142" y="928"/>
      <point x="142" y="809" type="curve"/>
      <point x="147" y="786" type="line"/>
      <point x="237" y="784" type="line"/>
      <point x="239" y="836" type="line"/>
      <point x="244" y="857"/>
      <point x="259" y="877"/>
      <point x="284" y="896" type="curve" smooth="yes"/>
      <point x="335" y="935"/>
      <point x="408" y="953"/>
      <point x="503" y="950" type="curve" smooth="yes"/>
      <point x="562" y="948" type="line"/>
      <point x="616" y="942" type="line" smooth="yes"/>
      <point x="672" y="935"/>
      <point x="720" y="864"/>
      <point x="720" y="805" type="curve"/>
      <point x="396" y="805" type="line"/>
      <point x="302" y="791" type="line" smooth="yes"/>
      <point x="155" y="770"/>
      <point x="69" y="628"/>
      <point x="61" y="469" type="curve" smooth="yes"/>
      <point x="58" y="414" type="line" smooth="yes"/>
      <point x="57" y="403"/>
      <point x="57" y="392"/>
      <point x="57" y="382" type="curve" smooth="yes"/>
      <point x="57" y="83"/>
      <point x="289" y="5"/>
      <point x="448" y="2" type="curve" smooth="yes"/>
      <point x="720" y="-2" type="line"/>
      <point x="720" y="-283" type="line"/>
    </contour>
    <contour>
      <point x="468" y="90" type="line"/>
      <point x="384" y="100" type="line"/>
      <point x="328" y="113"/>
      <point x="285" y="133"/>
      <point x="255" y="160" type="curve" smooth="yes"/>
      <point x="190" y="220"/>
      <point x="157" y="309"/>
      <point x="157" y="426" type="curve" smooth="yes"/>
      <point x="157" y="471"/>
      <point x="164" y="514"/>
      <point x="177" y="555" type="curve"/>
      <point x="222" y="651"/>
      <point x="241" y="678"/>
      <point x="300" y="694" type="curve"/>
      <point x="318" y="703"/>
      <point x="339" y="709"/>
      <point x="364" y="711" type="curve" smooth="yes"/>
      <point x="515" y="725" type="line"/>
      <point x="579" y="725" type="line"/>
      <point x="652" y="723" type="line"/>
      <point x="720" y="723" type="line"/>
      <point x="720" y="86" type="line"/>
      <point x="577" y="86" type="line"/>
    </contour>
    <contour>
      <point x="814" y="721" type="line"/>
      <point x="876" y="721" type="line" smooth="yes"/>
      <point x="905" y="721"/>
      <point x="930" y="716"/>
      <point x="951" y="707" type="curve"/>
      <point x="968" y="692"/>
      <point x="978" y="678"/>
      <point x="982" y="666" type="curve"/>
      <point x="988" y="600" type="line"/>
      <point x="967" y="541"/>
      <point x="909" y="512"/>
      <point x="814" y="512" type="curve"/>
    </contour>
    <contour>
      <point x="1391" y="4"/>
      <point x="1566" y="92"/>
      <point x="1566" y="549" type="curve" smooth="yes"/>
      <point x="1566" y="732"/>
      <point x="1499" y="973"/>
      <point x="1356" y="1010" type="curve" smooth="yes"/>
      <point x="1292" y="1027"/>
      <point x="1245" y="1035"/>
      <point x="1216" y="1036" type="curve" smooth="yes"/>
      <point x="1126" y="1038" type="line"/>
      <point x="1126" y="952" type="line"/>
      <point x="1163" y="952" type="line" smooth="yes"/>
      <point x="1270" y="952"/>
      <point x="1307" y="944"/>
      <point x="1372" y="881" type="curve" smooth="yes"/>
      <point x="1440" y="816"/>
      <point x="1474" y="702"/>
      <point x="1474" y="539" type="curve" smooth="yes"/>
      <point x="1474" y="372"/>
      <point x="1443" y="181"/>
      <point x="1302" y="109" type="curve" smooth="yes"/>
      <point x="1269" y="92"/>
      <point x="1229" y="85"/>
      <point x="1183" y="86" type="curve" smooth="yes"/>
      <point x="1124" y="88" type="line"/>
      <point x="1124" y="4" type="line"/>
    </contour>
  </outline>
</glyph>
<glyph name="sinAae" format="1">
  <advance width="787"/>
  <unicode hex="0D87"/>
  <outline>
    <contour>
      <point x="21" y="187" type="curve" smooth="yes"/>
      <point x="21" y="41"/>
      <point x="134" y="2"/>
      <point x="211" y="1" type="curve" smooth="yes"/>
      <point x="344" y="-1" type="line"/>
      <point x="344" y="-138" type="line"/>
      <point x="392" y="-138" type="line"/>
      <point x="392" y="-1" type="line"/>
      <point x="459" y="-1" type="line"/>
      <point x="459" y="41" type="line"/>
      <point x="392" y="41" type="line"/>
      <point x="392" y="208" type="line"/>
      <point x="439" y="208"/>
      <point x="506" y="228"/>
      <point x="512" y="265" type="curve" smooth="yes"/>
      <point x="515" y="282" type="line" smooth="yes"/>
      <point x="517" y="290"/>
      <point x="517" y="298"/>
      <point x="517" y="306" type="curve" smooth="yes"/>
      <point x="517" y="365"/>
      <point x="490" y="394"/>
      <point x="435" y="394" type="curve"/>
      <point x="435" y="433"/>
      <point x="454" y="441"/>
      <point x="496" y="441" type="curve" smooth="yes"/>
      <point x="511" y="441" type="line"/>
      <point x="511" y="479" type="line"/>
      <point x="497" y="479" type="line"/>
      <point x="467" y="477" type="line"/>
      <point x="427" y="469"/>
      <point x="399" y="477"/>
      <point x="391" y="395" type="curve"/>
      <point x="391" y="410" type="line"/>
      <point x="389" y="424" type="line"/>
      <point x="379" y="449" type="line"/>
      <point x="353" y="478" type="line" smooth="yes"/>
      <point x="336" y="496"/>
      <point x="306" y="505"/>
      <point x="260" y="505" type="curve" smooth="yes"/>
      <point x="255" y="505"/>
      <point x="249" y="505"/>
      <point x="243" y="505" type="curve" smooth="yes"/>
      <point x="201" y="503" type="line"/>
      <point x="164" y="497" type="line" smooth="yes"/>
      <point x="113" y="489"/>
      <point x="62" y="453"/>
      <point x="62" y="395" type="curve"/>
      <point x="64" y="384" type="line"/>
      <point x="108" y="383" type="line"/>
      <point x="109" y="408" type="line"/>
      <point x="121" y="449"/>
      <point x="175" y="464"/>
      <point x="230" y="464" type="curve" smooth="yes"/>
      <point x="233" y="464"/>
      <point x="235" y="464"/>
      <point x="238" y="464" type="curve" smooth="yes"/>
      <point x="267" y="463" type="line"/>
      <point x="293" y="460" type="line" smooth="yes"/>
      <point x="321" y="457"/>
      <point x="344" y="422"/>
      <point x="344" y="393" type="curve"/>
      <point x="186" y="393" type="line"/>
      <point x="140" y="386" type="line" smooth="yes"/>
      <point x="68" y="376"/>
      <point x="26" y="307"/>
      <point x="22" y="229" type="curve"/>
      <point x="21" y="202" type="line" smooth="yes"/>
      <point x="21" y="197"/>
      <point x="21" y="191"/>
    </contour>
    <contour>
      <point x="69" y="208" type="curve" smooth="yes"/>
      <point x="69" y="230"/>
      <point x="71" y="252"/>
      <point x="79" y="271" type="curve" smooth="yes"/>
      <point x="99" y="319"/>
      <point x="110" y="330"/>
      <point x="139" y="339" type="curve" smooth="yes"/>
      <point x="148" y="342"/>
      <point x="158" y="346"/>
      <point x="170" y="347" type="curve" smooth="yes"/>
      <point x="244" y="354" type="line"/>
      <point x="275" y="354" type="line"/>
      <point x="311" y="353" type="line"/>
      <point x="344" y="353" type="line"/>
      <point x="344" y="42" type="line"/>
      <point x="274" y="42" type="line"/>
      <point x="221" y="44" type="line"/>
      <point x="180" y="49" type="line"/>
      <point x="105" y="66"/>
      <point x="69" y="120"/>
    </contour>
    <contour>
      <point x="390" y="250" type="curve"/>
      <point x="390" y="352" type="line"/>
      <point x="420" y="352" type="line" smooth="yes"/>
      <point x="435" y="352"/>
      <point x="447" y="350"/>
      <point x="457" y="345" type="curve"/>
      <point x="465" y="338"/>
      <point x="470" y="331"/>
      <point x="472" y="325" type="curve"/>
      <point x="475" y="293" type="line"/>
      <point x="465" y="264"/>
      <point x="437" y="250"/>
    </contour>
    <contour>
      <point x="552" y="135" type="curve" smooth="yes"/>
      <point x="552" y="43"/>
      <point x="584" y="-2"/>
      <point x="649" y="-2" type="curve" smooth="yes"/>
      <point x="731" y="-2"/>
      <point x="750" y="48"/>
      <point x="750" y="136" type="curve" smooth="yes"/>
      <point x="750" y="148" type="line"/>
      <point x="745" y="146"/>
      <point x="732" y="146"/>
      <point x="711" y="146" type="curve"/>
      <point x="711" y="133" type="line" smooth="yes"/>
      <point x="711" y="83"/>
      <point x="708" y="41"/>
      <point x="658" y="41" type="curve" smooth="yes"/>
      <point x="616" y="41"/>
      <point x="595" y="72"/>
      <point x="595" y="134" type="curve" smooth="yes"/>
      <point x="595" y="236"/>
      <point x="634" y="311"/>
      <point x="715" y="442" type="curve"/>
      <point x="715" y="480" type="line"/>
      <point x="570" y="480" type="line"/>
      <point x="570" y="441" type="line"/>
      <point x="665" y="441" type="line"/>
      <point x="590" y="326"/>
      <point x="552" y="224"/>
    </contour>
  </outline>
</glyph>
<glyph name="uni0D87" format="1">
  <advance width="1612"/>
  <unicode hex="0D87"/>
  <note>
    uni0D87
  </note>
  <outline>
    <contour>
      <point x="803" y="-283" type="line"/>
      <point x="803" y="-2" type="line"/>
      <point x="941" y="-2" type="line"/>
      <point x="941" y="84" type="line"/>
      <point x="803" y="84" type="line"/>
      <point x="803" y="426" type="line"/>
      <point x="900" y="426"/>
      <point x="1036" y="467"/>
      <point x="1049" y="543" type="curve" smooth="yes"/>
      <point x="1055" y="578" type="line" smooth="yes"/>
      <point x="1058" y="593"/>
      <point x="1059" y="610"/>
      <point x="1059" y="627" type="curve" smooth="yes"/>
      <point x="1059" y="747"/>
      <point x="1003" y="807"/>
      <point x="891" y="807" type="curve"/>
      <point x="891" y="887"/>
      <point x="929" y="903"/>
      <point x="1016" y="903" type="curve" smooth="yes"/>
      <point x="1047" y="903" type="line"/>
      <point x="1047" y="981" type="line"/>
      <point x="1018" y="981" type="line"/>
      <point x="957" y="977" type="line"/>
      <point x="874" y="960"/>
      <point x="818" y="977"/>
      <point x="801" y="809" type="curve"/>
      <point x="801" y="840" type="line"/>
      <point x="797" y="868" type="line"/>
      <point x="777" y="920" type="line"/>
      <point x="723" y="979" type="line" smooth="yes"/>
      <point x="689" y="1016"/>
      <point x="626" y="1035"/>
      <point x="533" y="1035" type="curve" smooth="yes"/>
      <point x="522" y="1035"/>
      <point x="510" y="1035"/>
      <point x="498" y="1034" type="curve" smooth="yes"/>
      <point x="412" y="1030" type="line"/>
      <point x="336" y="1018" type="line" smooth="yes"/>
      <point x="231" y="1002"/>
      <point x="127" y="928"/>
      <point x="127" y="809" type="curve"/>
      <point x="132" y="786" type="line"/>
      <point x="222" y="784" type="line"/>
      <point x="224" y="836" type="line"/>
      <point x="229" y="857"/>
      <point x="244" y="877"/>
      <point x="269" y="896" type="curve" smooth="yes"/>
      <point x="320" y="935"/>
      <point x="393" y="953"/>
      <point x="488" y="950" type="curve" smooth="yes"/>
      <point x="547" y="948" type="line"/>
      <point x="601" y="942" type="line" smooth="yes"/>
      <point x="657" y="935"/>
      <point x="705" y="864"/>
      <point x="705" y="805" type="curve"/>
      <point x="381" y="805" type="line"/>
      <point x="287" y="791" type="line" smooth="yes"/>
      <point x="140" y="770"/>
      <point x="54" y="628"/>
      <point x="46" y="469" type="curve" smooth="yes"/>
      <point x="43" y="414" type="line" smooth="yes"/>
      <point x="42" y="403"/>
      <point x="42" y="392"/>
      <point x="42" y="382" type="curve" smooth="yes"/>
      <point x="42" y="83"/>
      <point x="274" y="5"/>
      <point x="433" y="2" type="curve" smooth="yes"/>
      <point x="705" y="-2" type="line"/>
      <point x="705" y="-283" type="line"/>
    </contour>
    <contour>
      <point x="453" y="90" type="line"/>
      <point x="369" y="100" type="line"/>
      <point x="313" y="113"/>
      <point x="270" y="133"/>
      <point x="240" y="160" type="curve" smooth="yes"/>
      <point x="175" y="220"/>
      <point x="142" y="309"/>
      <point x="142" y="426" type="curve" smooth="yes"/>
      <point x="142" y="471"/>
      <point x="149" y="514"/>
      <point x="162" y="555" type="curve"/>
      <point x="207" y="651"/>
      <point x="226" y="678"/>
      <point x="285" y="694" type="curve"/>
      <point x="303" y="703"/>
      <point x="324" y="709"/>
      <point x="349" y="711" type="curve" smooth="yes"/>
      <point x="500" y="725" type="line"/>
      <point x="564" y="725" type="line"/>
      <point x="637" y="723" type="line"/>
      <point x="705" y="723" type="line"/>
      <point x="705" y="86" type="line"/>
      <point x="562" y="86" type="line"/>
    </contour>
    <contour>
      <point x="799" y="721" type="line"/>
      <point x="861" y="721" type="line" smooth="yes"/>
      <point x="890" y="721"/>
      <point x="915" y="716"/>
      <point x="936" y="707" type="curve"/>
      <point x="953" y="692"/>
      <point x="963" y="678"/>
      <point x="967" y="666" type="curve"/>
      <point x="973" y="600" type="line"/>
      <point x="952" y="541"/>
      <point x="894" y="512"/>
      <point x="799" y="512" type="curve"/>
    </contour>
    <contour>
      <point x="1498" y="-4"/>
      <point x="1536" y="98"/>
      <point x="1536" y="279" type="curve" smooth="yes"/>
      <point x="1536" y="303" type="line"/>
      <point x="1525" y="300"/>
      <point x="1499" y="299"/>
      <point x="1456" y="299" type="curve"/>
      <point x="1456" y="272" type="line" smooth="yes"/>
      <point x="1456" y="169"/>
      <point x="1449" y="84"/>
      <point x="1348" y="84" type="curve" smooth="yes"/>
      <point x="1262" y="84"/>
      <point x="1219" y="147"/>
      <point x="1219" y="274" type="curve" smooth="yes"/>
      <point x="1219" y="483"/>
      <point x="1298" y="636"/>
      <point x="1465" y="905" type="curve"/>
      <point x="1465" y="983" type="line"/>
      <point x="1168" y="983" type="line"/>
      <point x="1168" y="903" type="line"/>
      <point x="1362" y="903" type="line"/>
      <point x="1208" y="668"/>
      <point x="1131" y="459"/>
      <point x="1131" y="276" type="curve" smooth="yes"/>
      <point x="1131" y="89"/>
      <point x="1197" y="-4"/>
      <point x="1329" y="-4" type="curve" smooth="yes"/>
    </contour>
  </outline>
</glyph>
<glyph name="uni0D88" format="1">
  <advance width="1723"/>
  <unicode hex="0D88"/>
  <note>
    uni0D88
  </note>
  <outline>
    <contour>
      <point x="826" y="-283" type="line"/>
      <point x="826" y="-2" type="line"/>
      <point x="964" y="-2" type="line"/>
      <point x="964" y="84" type="line"/>
      <point x="826" y="84" type="line"/>
      <point x="826" y="426" type="line"/>
      <point x="923" y="426"/>
      <point x="1059" y="467"/>
      <point x="1072" y="543" type="curve" smooth="yes"/>
      <point x="1078" y="578" type="line" smooth="yes"/>
      <point x="1081" y="593"/>
      <point x="1082" y="610"/>
      <point x="1082" y="627" type="curve" smooth="yes"/>
      <point x="1082" y="747"/>
      <point x="1026" y="807"/>
      <point x="914" y="807" type="curve"/>
      <point x="914" y="887"/>
      <point x="952" y="903"/>
      <point x="1039" y="903" type="curve" smooth="yes"/>
      <point x="1070" y="903" type="line"/>
      <point x="1070" y="981" type="line"/>
      <point x="1041" y="981" type="line"/>
      <point x="980" y="977" type="line"/>
      <point x="897" y="960"/>
      <point x="841" y="977"/>
      <point x="824" y="809" type="curve"/>
      <point x="824" y="840" type="line"/>
      <point x="820" y="868" type="line"/>
      <point x="800" y="920" type="line"/>
      <point x="746" y="979" type="line" smooth="yes"/>
      <point x="712" y="1016"/>
      <point x="649" y="1035"/>
      <point x="556" y="1035" type="curve" smooth="yes"/>
      <point x="545" y="1035"/>
      <point x="533" y="1035"/>
      <point x="521" y="1034" type="curve" smooth="yes"/>
      <point x="435" y="1030" type="line"/>
      <point x="359" y="1018" type="line" smooth="yes"/>
      <point x="254" y="1002"/>
      <point x="150" y="928"/>
      <point x="150" y="809" type="curve"/>
      <point x="155" y="786" type="line"/>
      <point x="245" y="784" type="line"/>
      <point x="247" y="836" type="line"/>
      <point x="252" y="857"/>
      <point x="267" y="877"/>
      <point x="292" y="896" type="curve" smooth="yes"/>
      <point x="343" y="935"/>
      <point x="416" y="953"/>
      <point x="511" y="950" type="curve" smooth="yes"/>
      <point x="570" y="948" type="line"/>
      <point x="624" y="942" type="line" smooth="yes"/>
      <point x="680" y="935"/>
      <point x="728" y="864"/>
      <point x="728" y="805" type="curve"/>
      <point x="404" y="805" type="line"/>
      <point x="310" y="791" type="line" smooth="yes"/>
      <point x="163" y="770"/>
      <point x="77" y="628"/>
      <point x="69" y="469" type="curve" smooth="yes"/>
      <point x="66" y="414" type="line" smooth="yes"/>
      <point x="65" y="403"/>
      <point x="65" y="392"/>
      <point x="65" y="382" type="curve" smooth="yes"/>
      <point x="65" y="83"/>
      <point x="297" y="5"/>
      <point x="456" y="2" type="curve" smooth="yes"/>
      <point x="728" y="-2" type="line"/>
      <point x="728" y="-283" type="line"/>
    </contour>
    <contour>
      <point x="476" y="90" type="line"/>
      <point x="392" y="100" type="line"/>
      <point x="336" y="113"/>
      <point x="293" y="133"/>
      <point x="263" y="160" type="curve" smooth="yes"/>
      <point x="198" y="220"/>
      <point x="165" y="309"/>
      <point x="165" y="426" type="curve" smooth="yes"/>
      <point x="165" y="471"/>
      <point x="172" y="514"/>
      <point x="185" y="555" type="curve"/>
      <point x="230" y="651"/>
      <point x="249" y="678"/>
      <point x="308" y="694" type="curve"/>
      <point x="326" y="703"/>
      <point x="347" y="709"/>
      <point x="372" y="711" type="curve" smooth="yes"/>
      <point x="523" y="725" type="line"/>
      <point x="587" y="725" type="line"/>
      <point x="660" y="723" type="line"/>
      <point x="728" y="723" type="line"/>
      <point x="728" y="86" type="line"/>
      <point x="585" y="86" type="line"/>
    </contour>
    <contour>
      <point x="822" y="721" type="line"/>
      <point x="884" y="721" type="line" smooth="yes"/>
      <point x="913" y="721"/>
      <point x="938" y="716"/>
      <point x="959" y="707" type="curve"/>
      <point x="976" y="692"/>
      <point x="986" y="678"/>
      <point x="990" y="666" type="curve"/>
      <point x="996" y="600" type="line"/>
      <point x="975" y="541"/>
      <point x="917" y="512"/>
      <point x="822" y="512" type="curve"/>
    </contour>
    <contour>
      <point x="1592" y="-57"/>
      <point x="1646" y="51"/>
      <point x="1646" y="258" type="curve"/>
      <point x="1560" y="258" type="line"/>
      <point x="1549" y="97"/>
      <point x="1539" y="31"/>
      <point x="1410" y="31" type="curve" smooth="yes"/>
      <point x="1297" y="31"/>
      <point x="1240" y="103"/>
      <point x="1240" y="248" type="curve" smooth="yes"/>
      <point x="1240" y="383"/>
      <point x="1386" y="613"/>
      <point x="1494" y="688" type="curve"/>
      <point x="1494" y="766" type="line"/>
      <point x="1320" y="766" type="line"/>
      <point x="1494" y="907" type="line"/>
      <point x="1494" y="993" type="line"/>
      <point x="1175" y="993" type="line"/>
      <point x="1175" y="907" type="line"/>
      <point x="1361" y="907" type="line"/>
      <point x="1177" y="762" type="line"/>
      <point x="1177" y="682" type="line"/>
      <point x="1369" y="682" type="line"/>
      <point x="1223" y="517"/>
      <point x="1150" y="373"/>
      <point x="1150" y="252" type="curve" smooth="yes"/>
      <point x="1150" y="46"/>
      <point x="1232" y="-57"/>
      <point x="1396" y="-57" type="curve" smooth="yes"/>
    </contour>
  </outline>
</glyph>
<glyph name="uni0D89" format="1">
  <advance width="1051"/>
  <unicode hex="0D89"/>
  <note>
    uni0D89
  </note>
  <outline>
    <contour>
      <point x="436" y="-309" type="line"/>
      <point x="518" y="-305" type="line"/>
      <point x="600" y="-295" type="line"/>
      <point x="725" y="-260" type="line"/>
      <point x="795" y="-229"/>
      <point x="833" y="-187"/>
      <point x="840" y="-135" type="curve" smooth="yes"/>
      <point x="846" y="-88" type="line"/>
      <point x="846" y="-9"/>
      <point x="818" y="45"/>
      <point x="762" y="76" type="curve"/>
      <point x="749" y="87"/>
      <point x="732" y="94"/>
      <point x="711" y="98" type="curve"/>
      <point x="866" y="140"/>
      <point x="960" y="230"/>
      <point x="993" y="367" type="curve" smooth="yes"/>
      <point x="996" y="381"/>
      <point x="1001" y="399"/>
      <point x="1008" y="420" type="curve"/>
      <point x="1009" y="435"/>
      <point x="1011" y="450"/>
      <point x="1014" y="467" type="curve"/>
      <point x="1020" y="559" type="line" smooth="yes"/>
      <point x="1021" y="569"/>
      <point x="1021" y="582"/>
      <point x="1021" y="598" type="curve" smooth="yes"/>
      <point x="1021" y="715"/>
      <point x="985" y="815"/>
      <point x="913" y="899" type="curve" smooth="yes"/>
      <point x="813" y="1016"/>
      <point x="680" y="1034"/>
      <point x="465" y="1034" type="curve" smooth="yes"/>
      <point x="321" y="1034"/>
      <point x="169" y="971"/>
      <point x="102" y="858" type="curve" smooth="yes"/>
      <point x="59" y="784" type="line" smooth="yes"/>
      <point x="51" y="770"/>
      <point x="44" y="747"/>
      <point x="37" y="715" type="curve"/>
      <point x="26" y="680"/>
      <point x="20" y="652"/>
      <point x="20" y="633" type="curve" smooth="yes"/>
      <point x="20" y="573" type="line" smooth="yes"/>
      <point x="20" y="516"/>
      <point x="26" y="463"/>
      <point x="39" y="414" type="curve"/>
      <point x="61" y="358"/>
      <point x="83" y="317"/>
      <point x="104" y="291" type="curve"/>
      <point x="174" y="220"/>
      <point x="258" y="184"/>
      <point x="356" y="184" type="curve" smooth="yes"/>
      <point x="383" y="184"/>
      <point x="418" y="188"/>
      <point x="459" y="197" type="curve" smooth="yes"/>
      <point x="499" y="205"/>
      <point x="581" y="247"/>
      <point x="592" y="274" type="curve"/>
      <point x="599" y="283"/>
      <point x="603" y="295"/>
      <point x="606" y="309" type="curve" smooth="yes"/>
      <point x="618" y="369" type="line"/>
      <point x="625" y="386"/>
      <point x="629" y="422"/>
      <point x="629" y="477" type="curve" smooth="yes"/>
      <point x="629" y="678" type="line"/>
      <point x="541" y="676" type="line"/>
      <point x="541" y="455" type="line"/>
      <point x="537" y="399" type="line"/>
      <point x="524" y="352" type="line"/>
      <point x="504" y="300"/>
      <point x="452" y="274"/>
      <point x="367" y="274" type="curve" smooth="yes"/>
      <point x="340" y="274"/>
      <point x="314" y="278"/>
      <point x="291" y="285" type="curve" smooth="yes"/>
      <point x="240" y="301" type="line"/>
      <point x="155" y="344"/>
      <point x="113" y="430"/>
      <point x="113" y="559" type="curve" smooth="yes"/>
      <point x="113" y="624"/>
      <point x="122" y="681"/>
      <point x="141" y="729" type="curve" smooth="yes"/>
      <point x="215" y="919"/>
      <point x="371" y="954"/>
      <point x="481" y="954" type="curve" smooth="yes"/>
      <point x="496" y="954"/>
      <point x="509" y="953"/>
      <point x="522" y="952" type="curve" smooth="yes"/>
      <point x="627" y="944" type="line"/>
      <point x="684" y="932" type="line"/>
      <point x="711" y="923"/>
      <point x="731" y="916"/>
      <point x="743" y="911" type="curve"/>
      <point x="864" y="866"/>
      <point x="926" y="674"/>
      <point x="926" y="518" type="curve" smooth="yes"/>
      <point x="926" y="358"/>
      <point x="833" y="224"/>
      <point x="670" y="163" type="curve" smooth="yes"/>
      <point x="648" y="154"/>
      <point x="622" y="149"/>
      <point x="592" y="147" type="curve"/>
      <point x="559" y="140"/>
      <point x="516" y="137"/>
      <point x="461" y="137" type="curve" smooth="yes"/>
      <point x="377" y="137" type="line"/>
      <point x="377" y="49" type="line"/>
      <point x="522" y="49" type="line" smooth="yes"/>
      <point x="659" y="49"/>
      <point x="745" y="27"/>
      <point x="745" y="-88" type="curve" smooth="yes"/>
      <point x="745" y="-125"/>
      <point x="724" y="-153"/>
      <point x="682" y="-174" type="curve" smooth="yes"/>
      <point x="615" y="-207"/>
      <point x="612" y="-211"/>
      <point x="584" y="-211" type="curve"/>
      <point x="514" y="-221" type="line"/>
      <point x="461" y="-221" type="line"/>
      <point x="448" y="-220" type="line" smooth="yes"/>
      <point x="430" y="-219"/>
      <point x="418" y="-218"/>
      <point x="412" y="-217" type="curve"/>
      <point x="358" y="-213" type="line"/>
      <point x="335" y="-209"/>
      <point x="314" y="-202"/>
      <point x="295" y="-193" type="curve"/>
      <point x="269" y="-176"/>
      <point x="252" y="-159"/>
      <point x="244" y="-141" type="curve"/>
      <point x="233" y="-123"/>
      <point x="228" y="-106"/>
      <point x="229" y="-90" type="curve" smooth="yes"/>
      <point x="231" y="-61" type="line"/>
      <point x="242" y="-16" type="line"/>
      <point x="164" y="-16" type="line"/>
      <point x="149" y="-41"/>
      <point x="141" y="-67"/>
      <point x="141" y="-94" type="curve"/>
      <point x="147" y="-145" type="line"/>
      <point x="168" y="-190" type="line"/>
      <point x="224" y="-279"/>
      <point x="357" y="-309"/>
      <point x="414" y="-309" type="curve" smooth="yes"/>
    </contour>
  </outline>
</glyph>
<glyph name="uni0D8A" format="1">
  <advance width="1014"/>
  <unicode hex="0D8A"/>
  <note>
    uni0D8A
  </note>
  <outline>
    <contour>
      <point x="832" y="-2"/>
      <point x="985" y="245"/>
      <point x="985" y="582" type="curve" smooth="yes"/>
      <point x="985" y="643"/>
      <point x="974" y="702"/>
      <point x="952" y="758" type="curve" smooth="yes"/>
      <point x="875" y="955"/>
      <point x="767" y="1004"/>
      <point x="606" y="1036" type="curve"/>
      <point x="561" y="1036" type="line"/>
      <point x="639" y="1083" type="line"/>
      <point x="731" y="1141" type="line" smooth="yes"/>
      <point x="777" y="1170"/>
      <point x="805" y="1221"/>
      <point x="815" y="1294" type="curve"/>
      <point x="700" y="1294" type="line"/>
      <point x="700" y="1204"/>
      <point x="586" y="1113"/>
      <point x="358" y="1020" type="curve"/>
      <point x="133" y="952"/>
      <point x="27" y="732"/>
      <point x="27" y="477" type="curve" smooth="yes"/>
      <point x="27" y="201"/>
      <point x="232" y="-2"/>
      <point x="508" y="-2" type="curve" smooth="yes"/>
    </contour>
    <contour>
      <point x="295" y="86"/>
      <point x="119" y="268"/>
      <point x="119" y="477" type="curve" smooth="yes"/>
      <point x="119" y="798"/>
      <point x="255" y="958"/>
      <point x="528" y="958" type="curve" smooth="yes"/>
      <point x="777" y="958"/>
      <point x="901" y="800"/>
      <point x="901" y="483" type="curve" smooth="yes"/>
      <point x="901" y="258"/>
      <point x="729" y="86"/>
      <point x="504" y="86" type="curve" smooth="yes"/>
    </contour>
    <contour>
      <point x="440" y="1065"/>
      <point x="487" y="1115"/>
      <point x="487" y="1180" type="curve"/>
      <point x="479" y="1227" type="line"/>
      <point x="459" y="1272"/>
      <point x="424" y="1294"/>
      <point x="375" y="1294" type="curve"/>
      <point x="328" y="1286" type="line"/>
      <point x="315" y="1281"/>
      <point x="304" y="1273"/>
      <point x="293" y="1262" type="curve" smooth="yes"/>
      <point x="271" y="1240"/>
      <point x="260" y="1213"/>
      <point x="260" y="1180" type="curve"/>
      <point x="268" y="1133" type="line"/>
      <point x="273" y="1120"/>
      <point x="282" y="1109"/>
      <point x="293" y="1098" type="curve" smooth="yes"/>
      <point x="316" y="1076"/>
      <point x="343" y="1065"/>
      <point x="375" y="1065" type="curve" smooth="yes"/>
    </contour>
    <contour>
      <point x="332" y="1116"/>
      <point x="311" y="1137"/>
      <point x="311" y="1178" type="curve"/>
      <point x="315" y="1199"/>
      <point x="321" y="1214"/>
      <point x="328" y="1221" type="curve"/>
      <point x="344" y="1233"/>
      <point x="359" y="1239"/>
      <point x="373" y="1239" type="curve"/>
      <point x="414" y="1228"/>
      <point x="434" y="1208"/>
      <point x="434" y="1180" type="curve" smooth="yes"/>
      <point x="434" y="1149"/>
      <point x="406" y="1116"/>
      <point x="375" y="1116" type="curve" smooth="yes"/>
    </contour>
    <contour>
      <point x="979" y="1073" type="line"/>
      <point x="991" y="1078"/>
      <point x="1003" y="1087"/>
      <point x="1014" y="1098" type="curve" smooth="yes"/>
      <point x="1036" y="1119"/>
      <point x="1047" y="1147"/>
      <point x="1047" y="1180" type="curve" smooth="yes"/>
      <point x="1047" y="1241"/>
      <point x="993" y="1294"/>
      <point x="932" y="1294" type="curve" smooth="yes"/>
      <point x="867" y="1294"/>
      <point x="815" y="1245"/>
      <point x="815" y="1180" type="curve" smooth="yes"/>
      <point x="815" y="1115"/>
      <point x="867" y="1065"/>
      <point x="932" y="1065" type="curve"/>
    </contour>
    <contour>
      <point x="889" y="1116"/>
      <point x="868" y="1137"/>
      <point x="868" y="1178" type="curve"/>
      <point x="875" y="1219"/>
      <point x="895" y="1239"/>
      <point x="928" y="1239" type="curve"/>
      <point x="970" y="1232"/>
      <point x="991" y="1212"/>
      <point x="991" y="1180" type="curve"/>
      <point x="983" y="1137"/>
      <point x="963" y="1116"/>
      <point x="932" y="1116" type="curve" smooth="yes"/>
    </contour>
  </outline>
</glyph>
<glyph name="uni0D8B" format="1">
  <advance width="1090"/>
  <unicode hex="0D8B"/>
  <note>
    uni0D8B
  </note>
  <outline>
    <contour>
      <point x="638" y="-227"/>
      <point x="719" y="-217"/>
      <point x="784" y="-197" type="curve" smooth="yes"/>
      <point x="853" y="-176"/>
      <point x="989" y="-80"/>
      <point x="1006" y="-20" type="curve"/>
      <point x="1033" y="16"/>
      <point x="1042" y="67"/>
      <point x="1057" y="156" type="curve"/>
      <point x="965" y="154" type="line"/>
      <point x="965" y="-39"/>
      <point x="763" y="-143"/>
      <point x="559" y="-143" type="curve" smooth="yes"/>
      <point x="266" y="-143"/>
      <point x="119" y="-3"/>
      <point x="119" y="276" type="curve" smooth="yes"/>
      <point x="119" y="611"/>
      <point x="177" y="698"/>
      <point x="489" y="698" type="curve" smooth="yes"/>
      <point x="997" y="698" type="line"/>
      <point x="998" y="712"/>
      <point x="999" y="725"/>
      <point x="999" y="737" type="curve" smooth="yes"/>
      <point x="999" y="973"/>
      <point x="821" y="1036"/>
      <point x="557" y="1036" type="curve" smooth="yes"/>
      <point x="298" y="1036"/>
      <point x="168" y="954"/>
      <point x="168" y="791" type="curve"/>
      <point x="256" y="793" type="line"/>
      <point x="256" y="899"/>
      <point x="337" y="952"/>
      <point x="500" y="952" type="curve" smooth="yes"/>
      <point x="755" y="952"/>
      <point x="903" y="946"/>
      <point x="903" y="774" type="curve"/>
      <point x="420" y="774" type="line" smooth="yes"/>
      <point x="158" y="774"/>
      <point x="27" y="632"/>
      <point x="27" y="348" type="curve" smooth="yes"/>
      <point x="27" y="-61"/>
      <point x="148" y="-227"/>
      <point x="541" y="-227" type="curve" smooth="yes"/>
    </contour>
  </outline>
</glyph>
<glyph name="sinUu" format="1">
  <advance width="887"/>
  <unicode hex="0D8C"/>
  <outline>
    <contour>
      <point x="13" y="170" type="curve" smooth="yes"/>
      <point x="13" y="-30"/>
      <point x="72" y="-111"/>
      <point x="264" y="-111" type="curve" smooth="yes"/>
      <point x="312" y="-111"/>
      <point x="351" y="-106"/>
      <point x="383" y="-96" type="curve" smooth="yes"/>
      <point x="417" y="-86"/>
      <point x="483" y="-39"/>
      <point x="491" y="-10" type="curve"/>
      <point x="504" y="8"/>
      <point x="509" y="33"/>
      <point x="516" y="76" type="curve"/>
      <point x="471" y="75" type="line"/>
      <point x="471" y="-19"/>
      <point x="373" y="-70"/>
      <point x="273" y="-70" type="curve" smooth="yes"/>
      <point x="130" y="-70"/>
      <point x="58" y="-1"/>
      <point x="58" y="135" type="curve" smooth="yes"/>
      <point x="58" y="298"/>
      <point x="86" y="341"/>
      <point x="239" y="341" type="curve" smooth="yes"/>
      <point x="487" y="341" type="line"/>
      <point x="487" y="348"/>
      <point x="488" y="354"/>
      <point x="488" y="360" type="curve" smooth="yes"/>
      <point x="488" y="475"/>
      <point x="401" y="506"/>
      <point x="272" y="506" type="curve" smooth="yes"/>
      <point x="146" y="506"/>
      <point x="82" y="466"/>
      <point x="82" y="386" type="curve"/>
      <point x="125" y="387" type="line"/>
      <point x="125" y="439"/>
      <point x="165" y="465"/>
      <point x="244" y="465" type="curve" smooth="yes"/>
      <point x="369" y="465"/>
      <point x="441" y="462"/>
      <point x="441" y="378" type="curve"/>
      <point x="205" y="378" type="line" smooth="yes"/>
      <point x="77" y="378"/>
      <point x="13" y="309"/>
    </contour>
    <contour>
      <point x="494" y="284" type="curve" smooth="yes"/>
      <point x="494" y="217"/>
      <point x="549" y="175"/>
      <point x="620" y="175" type="curve" smooth="yes"/>
      <point x="672" y="175"/>
      <point x="713" y="203"/>
      <point x="713" y="250" type="curve" smooth="yes"/>
      <point x="713" y="292"/>
      <point x="681" y="319"/>
      <point x="642" y="327" type="curve"/>
      <point x="656" y="341"/>
      <point x="672" y="348"/>
      <point x="694" y="348" type="curve" smooth="yes"/>
      <point x="753" y="348"/>
      <point x="782" y="313"/>
      <point x="782" y="244" type="curve" smooth="yes"/>
      <point x="782" y="217"/>
      <point x="785" y="196"/>
      <point x="785" y="182" type="curve" smooth="yes"/>
      <point x="785" y="173"/>
      <point x="784" y="167"/>
      <point x="784" y="163" type="curve" smooth="yes"/>
      <point x="782" y="153"/>
      <point x="780" y="142"/>
      <point x="779" y="130" type="curve" smooth="yes"/>
      <point x="770" y="79"/>
      <point x="748" y="36"/>
      <point x="687" y="36" type="curve" smooth="yes"/>
      <point x="666" y="36"/>
      <point x="647" y="42"/>
      <point x="634" y="57" type="curve"/>
      <point x="637" y="56"/>
      <point x="640" y="56"/>
      <point x="643" y="56" type="curve" smooth="yes"/>
      <point x="670" y="56"/>
      <point x="693" y="78"/>
      <point x="693" y="104" type="curve" smooth="yes"/>
      <point x="693" y="132"/>
      <point x="672" y="154"/>
      <point x="645" y="154" type="curve" smooth="yes"/>
      <point x="619" y="154"/>
      <point x="597" y="129"/>
      <point x="597" y="104" type="curve" smooth="yes"/>
      <point x="597" y="35"/>
      <point x="639" y="0"/>
      <point x="713" y="0" type="curve" smooth="yes"/>
      <point x="813" y="0"/>
      <point x="854" y="84"/>
      <point x="854" y="196" type="curve" smooth="yes"/>
      <point x="854" y="268"/>
      <point x="836" y="312"/>
      <point x="810" y="338" type="curve" smooth="yes"/>
      <point x="784" y="365"/>
      <point x="749" y="374"/>
      <point x="713" y="374" type="curve" smooth="yes"/>
      <point x="641" y="374"/>
      <point x="598" y="332"/>
      <point x="596" y="266" type="curve"/>
      <point x="614" y="266" type="line"/>
      <point x="614" y="288"/>
      <point x="620" y="303"/>
      <point x="629" y="314" type="curve"/>
      <point x="659" y="308"/>
      <point x="673" y="291"/>
      <point x="673" y="273" type="curve" smooth="yes"/>
      <point x="673" y="241"/>
      <point x="638" y="224"/>
      <point x="602" y="224" type="curve" smooth="yes"/>
      <point x="584" y="224"/>
      <point x="546" y="230"/>
      <point x="546" y="243" type="curve" smooth="yes"/>
      <point x="543" y="257"/>
      <point x="538" y="292"/>
      <point x="538" y="310" type="curve" smooth="yes"/>
      <point x="538" y="313"/>
      <point x="540" y="318"/>
      <point x="542" y="326" type="curve" smooth="yes"/>
      <point x="545" y="333"/>
      <point x="553" y="345"/>
      <point x="564" y="360" type="curve"/>
      <point x="533" y="377" type="line"/>
      <point x="507" y="348"/>
      <point x="494" y="315"/>
    </contour>
    <contour>
      <point x="615" y="104" type="curve" smooth="yes"/>
      <point x="615" y="119"/>
      <point x="625" y="135"/>
      <point x="645" y="135" type="curve" smooth="yes"/>
      <point x="663" y="135"/>
      <point x="675" y="123"/>
      <point x="675" y="104" type="curve" smooth="yes"/>
      <point x="675" y="85"/>
      <point x="662" y="74"/>
      <point x="644" y="74" type="curve" smooth="yes"/>
      <point x="625" y="74"/>
      <point x="615" y="87"/>
    </contour>
  </outline>
</glyph>
<glyph name="uni0D8C" format="1">
  <advance width="1816"/>
  <unicode hex="0D8C"/>
  <note>
    uni0D8C
  </note>
  <outline>
    <contour>
      <point x="638" y="-227"/>
      <point x="719" y="-217"/>
      <point x="784" y="-197" type="curve" smooth="yes"/>
      <point x="853" y="-176"/>
      <point x="989" y="-80"/>
      <point x="1006" y="-20" type="curve"/>
      <point x="1033" y="16"/>
      <point x="1042" y="67"/>
      <point x="1057" y="156" type="curve"/>
      <point x="965" y="154" type="line"/>
      <point x="965" y="-39"/>
      <point x="763" y="-143"/>
      <point x="559" y="-143" type="curve" smooth="yes"/>
      <point x="266" y="-143"/>
      <point x="119" y="-3"/>
      <point x="119" y="276" type="curve" smooth="yes"/>
      <point x="119" y="611"/>
      <point x="177" y="698"/>
      <point x="489" y="698" type="curve" smooth="yes"/>
      <point x="997" y="698" type="line"/>
      <point x="998" y="712"/>
      <point x="999" y="725"/>
      <point x="999" y="737" type="curve" smooth="yes"/>
      <point x="999" y="973"/>
      <point x="821" y="1036"/>
      <point x="557" y="1036" type="curve" smooth="yes"/>
      <point x="298" y="1036"/>
      <point x="168" y="954"/>
      <point x="168" y="791" type="curve"/>
      <point x="256" y="793" type="line"/>
      <point x="256" y="899"/>
      <point x="337" y="952"/>
      <point x="500" y="952" type="curve" smooth="yes"/>
      <point x="755" y="952"/>
      <point x="903" y="946"/>
      <point x="903" y="774" type="curve"/>
      <point x="420" y="774" type="line" smooth="yes"/>
      <point x="158" y="774"/>
      <point x="27" y="632"/>
      <point x="27" y="348" type="curve" smooth="yes"/>
      <point x="27" y="-61"/>
      <point x="148" y="-227"/>
      <point x="541" y="-227" type="curve" smooth="yes"/>
    </contour>
    <contour>
      <point x="1279" y="151"/>
      <point x="1259" y="179"/>
      <point x="1259" y="213" type="curve" smooth="yes"/>
      <point x="1259" y="244"/>
      <point x="1281" y="277"/>
      <point x="1321" y="277" type="curve" smooth="yes"/>
      <point x="1358" y="277"/>
      <point x="1382" y="251"/>
      <point x="1382" y="214" type="curve" smooth="yes"/>
      <point x="1382" y="175"/>
      <point x="1355" y="151"/>
      <point x="1318" y="151" type="curve" smooth="yes"/>
    </contour>
    <contour>
      <point x="1545" y="0"/>
      <point x="1616" y="31"/>
      <point x="1668" y="96" type="curve" smooth="yes"/>
      <point x="1719" y="161"/>
      <point x="1748" y="262"/>
      <point x="1748" y="401" type="curve" smooth="yes"/>
      <point x="1748" y="548"/>
      <point x="1712" y="638"/>
      <point x="1659" y="693" type="curve" smooth="yes"/>
      <point x="1606" y="748"/>
      <point x="1533" y="766"/>
      <point x="1461" y="766" type="curve" smooth="yes"/>
      <point x="1380" y="766"/>
      <point x="1321" y="740"/>
      <point x="1281" y="700" type="curve" smooth="yes"/>
      <point x="1241" y="660"/>
      <point x="1222" y="605"/>
      <point x="1221" y="545" type="curve"/>
      <point x="1258" y="545" type="line"/>
      <point x="1258" y="590"/>
      <point x="1270" y="620"/>
      <point x="1289" y="643" type="curve"/>
      <point x="1350" y="631"/>
      <point x="1379" y="596"/>
      <point x="1379" y="559" type="curve" smooth="yes"/>
      <point x="1379" y="535"/>
      <point x="1367" y="510"/>
      <point x="1343" y="491" type="curve" smooth="yes"/>
      <point x="1318" y="471"/>
      <point x="1281" y="459"/>
      <point x="1233" y="459" type="curve" smooth="yes"/>
      <point x="1202" y="459"/>
      <point x="1175" y="463"/>
      <point x="1153" y="472" type="curve"/>
      <point x="1131" y="480"/>
      <point x="1119" y="489"/>
      <point x="1118" y="498" type="curve" smooth="yes"/>
      <point x="1117" y="507"/>
      <point x="1114" y="525"/>
      <point x="1109" y="553" type="curve" smooth="yes"/>
      <point x="1104" y="581"/>
      <point x="1102" y="608"/>
      <point x="1102" y="634" type="curve" smooth="yes"/>
      <point x="1102" y="640"/>
      <point x="1105" y="651"/>
      <point x="1111" y="667" type="curve" smooth="yes"/>
      <point x="1117" y="682"/>
      <point x="1132" y="706"/>
      <point x="1156" y="737" type="curve"/>
      <point x="1092" y="772" type="line"/>
      <point x="1039" y="712"/>
      <point x="1012" y="646"/>
      <point x="1012" y="582" type="curve" smooth="yes"/>
      <point x="1012" y="522"/>
      <point x="1035" y="465"/>
      <point x="1079" y="425" type="curve" smooth="yes"/>
      <point x="1123" y="384"/>
      <point x="1187" y="358"/>
      <point x="1270" y="358" type="curve" smooth="yes"/>
      <point x="1334" y="358"/>
      <point x="1381" y="377"/>
      <point x="1413" y="406" type="curve" smooth="yes"/>
      <point x="1445" y="434"/>
      <point x="1461" y="473"/>
      <point x="1461" y="512" type="curve" smooth="yes"/>
      <point x="1461" y="545"/>
      <point x="1449" y="580"/>
      <point x="1425" y="609" type="curve"/>
      <point x="1400" y="637"/>
      <point x="1363" y="659"/>
      <point x="1315" y="670" type="curve"/>
      <point x="1344" y="698"/>
      <point x="1377" y="713"/>
      <point x="1422" y="713" type="curve" smooth="yes"/>
      <point x="1542" y="713"/>
      <point x="1602" y="642"/>
      <point x="1602" y="500" type="curve"/>
      <point x="1605" y="444"/>
      <point x="1607" y="401"/>
      <point x="1607" y="372" type="curve" smooth="yes"/>
      <point x="1607" y="355"/>
      <point x="1606" y="342"/>
      <point x="1605" y="334" type="curve" smooth="yes"/>
      <point x="1602" y="313"/>
      <point x="1598" y="291"/>
      <point x="1595" y="266" type="curve"/>
      <point x="1587" y="217"/>
      <point x="1573" y="169"/>
      <point x="1544" y="133" type="curve" smooth="yes"/>
      <point x="1515" y="97"/>
      <point x="1471" y="74"/>
      <point x="1406" y="74" type="curve" smooth="yes"/>
      <point x="1363" y="74"/>
      <point x="1325" y="87"/>
      <point x="1298" y="116" type="curve"/>
      <point x="1305" y="115"/>
      <point x="1310" y="114"/>
      <point x="1317" y="114" type="curve" smooth="yes"/>
      <point x="1345" y="114"/>
      <point x="1370" y="126"/>
      <point x="1389" y="144" type="curve" smooth="yes"/>
      <point x="1408" y="162"/>
      <point x="1419" y="186"/>
      <point x="1419" y="214" type="curve" smooth="yes"/>
      <point x="1419" y="270"/>
      <point x="1377" y="315"/>
      <point x="1321" y="315" type="curve" smooth="yes"/>
      <point x="1293" y="315"/>
      <point x="1269" y="302"/>
      <point x="1251" y="283" type="curve" smooth="yes"/>
      <point x="1233" y="263"/>
      <point x="1222" y="238"/>
      <point x="1222" y="214" type="curve" smooth="yes"/>
      <point x="1222" y="71"/>
      <point x="1308" y="0"/>
      <point x="1461" y="0" type="curve" smooth="yes"/>
    </contour>
  </outline>
</glyph>
<glyph name="sinvocalicR" format="1">
  <advance width="754"/>
  <unicode hex="0D8D"/>
  <outline>
    <contour>
      <point x="24" y="323"/>
      <point x="8" y="241"/>
      <point x="8" y="201" type="curve" smooth="yes"/>
      <point x="8" y="198"/>
      <point x="8" y="196"/>
      <point x="8" y="194" type="curve" smooth="yes"/>
      <point x="10" y="160" type="line"/>
      <point x="15" y="118" type="line" smooth="yes"/>
      <point x="24" y="47"/>
      <point x="83" y="-2"/>
      <point x="155" y="-2" type="curve" smooth="yes"/>
      <point x="225" y="-2"/>
      <point x="262" y="41"/>
      <point x="268" y="67" type="curve"/>
      <point x="276" y="45" type="line"/>
      <point x="292" y="27" type="line" smooth="yes"/>
      <point x="309" y="8"/>
      <point x="334" y="-2"/>
      <point x="368" y="-2" type="curve" smooth="yes"/>
      <point x="462" y="-2"/>
      <point x="513" y="53"/>
      <point x="520" y="163" type="curve" smooth="yes"/>
      <point x="523" y="206" type="line"/>
      <point x="522" y="229" type="line"/>
      <point x="517" y="266" type="line"/>
      <point x="509" y="295" type="line"/>
      <point x="500" y="320" type="line" smooth="yes"/>
      <point x="494" y="337"/>
      <point x="485" y="352"/>
      <point x="473" y="364" type="curve"/>
      <point x="480" y="370"/>
      <point x="484" y="375"/>
      <point x="486" y="379" type="curve" smooth="yes"/>
      <point x="493" y="398" type="line"/>
      <point x="495" y="417" type="line"/>
      <point x="495" y="447"/>
      <point x="475" y="484"/>
      <point x="449" y="495" type="curve" smooth="yes"/>
      <point x="439" y="499"/>
      <point x="429" y="504"/>
      <point x="417" y="505" type="curve" smooth="yes"/>
      <point x="389" y="507" type="line" smooth="yes"/>
      <point x="386" y="507"/>
      <point x="383" y="507"/>
      <point x="379" y="507" type="curve" smooth="yes"/>
      <point x="364" y="507"/>
      <point x="348" y="505"/>
      <point x="332" y="498" type="curve" smooth="yes"/>
      <point x="316" y="491"/>
      <point x="303" y="483"/>
      <point x="293" y="474" type="curve" smooth="yes"/>
      <point x="283" y="465"/>
      <point x="276" y="452"/>
      <point x="272" y="439" type="curve"/>
      <point x="270" y="455"/>
      <point x="262" y="466"/>
      <point x="253" y="476" type="curve" smooth="yes"/>
      <point x="243" y="486"/>
      <point x="233" y="494"/>
      <point x="223" y="496" type="curve"/>
      <point x="215" y="500"/>
      <point x="205" y="502"/>
      <point x="193" y="503" type="curve" smooth="yes"/>
      <point x="161" y="506" type="line"/>
      <point x="135" y="504" type="line"/>
      <point x="112" y="499" type="line"/>
      <point x="76" y="487"/>
      <point x="41" y="461"/>
      <point x="43" y="411" type="curve" smooth="yes"/>
      <point x="44" y="393" type="line"/>
      <point x="57" y="356" type="line"/>
    </contour>
    <contour>
      <point x="52" y="195" type="line"/>
      <point x="52" y="211" type="line"/>
      <point x="53" y="225" type="line"/>
      <point x="53" y="264"/>
      <point x="70" y="323"/>
      <point x="96" y="341" type="curve" smooth="yes"/>
      <point x="102" y="345"/>
      <point x="107" y="351"/>
      <point x="114" y="352" type="curve" smooth="yes"/>
      <point x="133" y="355" type="line"/>
      <point x="352" y="356" type="line"/>
      <point x="395" y="355" type="line"/>
      <point x="458" y="348"/>
      <point x="483" y="281"/>
      <point x="483" y="229" type="curve" smooth="yes"/>
      <point x="483" y="225"/>
      <point x="483" y="222"/>
      <point x="483" y="218" type="curve" smooth="yes"/>
      <point x="480" y="176" type="line"/>
      <point x="472" y="138" type="line"/>
      <point x="455" y="86"/>
      <point x="436" y="42"/>
      <point x="371" y="42" type="curve" smooth="yes"/>
      <point x="320" y="42"/>
      <point x="295" y="74"/>
      <point x="295" y="138" type="curve" smooth="yes"/>
      <point x="295" y="255" type="line"/>
      <point x="245" y="255" type="line"/>
      <point x="245" y="138" type="line" smooth="yes"/>
      <point x="245" y="81"/>
      <point x="209" y="42"/>
      <point x="152" y="42" type="curve" smooth="yes"/>
      <point x="76" y="42"/>
      <point x="57" y="125"/>
      <point x="55" y="148" type="curve" smooth="yes"/>
    </contour>
    <contour>
      <point x="87" y="393" type="line"/>
      <point x="88" y="405"/>
      <point x="90" y="417"/>
      <point x="94" y="430" type="curve" smooth="yes"/>
      <point x="99" y="444"/>
      <point x="107" y="454"/>
      <point x="115" y="457" type="curve" smooth="yes"/>
      <point x="131" y="463" type="line" smooth="yes"/>
      <point x="133" y="464"/>
      <point x="142" y="465"/>
      <point x="156" y="465" type="curve" smooth="yes"/>
      <point x="203" y="465"/>
      <point x="225" y="453"/>
      <point x="241" y="412" type="curve" smooth="yes"/>
      <point x="243" y="408"/>
      <point x="242" y="401"/>
      <point x="242" y="393" type="curve"/>
    </contour>
    <contour>
      <point x="297" y="393" type="line"/>
      <point x="297" y="438"/>
      <point x="337" y="465"/>
      <point x="384" y="465" type="curve" smooth="yes"/>
      <point x="417" y="465"/>
      <point x="439" y="455"/>
      <point x="448" y="435" type="curve" smooth="yes"/>
      <point x="452" y="427"/>
      <point x="454" y="419"/>
      <point x="454" y="413" type="curve" smooth="yes"/>
      <point x="454" y="403"/>
      <point x="451" y="393"/>
      <point x="445" y="383" type="curve"/>
      <point x="425" y="391" type="line" smooth="yes"/>
      <point x="420" y="393"/>
      <point x="410" y="393"/>
      <point x="393" y="393" type="curve" smooth="yes"/>
    </contour>
    <component base="sinMatraR" xOffset="490"/>
  </outline>
</glyph>
<glyph name="sinvocalicRr" format="1">
  <advance width="1033"/>
  <unicode hex="0D8E"/>
  <outline>
    <contour>
      <point x="24" y="323"/>
      <point x="8" y="241"/>
      <point x="8" y="201" type="curve" smooth="yes"/>
      <point x="8" y="198"/>
      <point x="8" y="196"/>
      <point x="8" y="194" type="curve" smooth="yes"/>
      <point x="13" y="62"/>
      <point x="50" y="-2"/>
      <point x="155" y="-2" type="curve" smooth="yes"/>
      <point x="225" y="-2"/>
      <point x="262" y="41"/>
      <point x="268" y="67" type="curve"/>
      <point x="276" y="32"/>
      <point x="309" y="-2"/>
      <point x="368" y="-2" type="curve" smooth="yes"/>
      <point x="462" y="-2"/>
      <point x="513" y="53"/>
      <point x="520" y="163" type="curve" smooth="yes"/>
      <point x="523" y="206" type="line"/>
      <point x="522" y="229" type="line"/>
      <point x="517" y="266" type="line"/>
      <point x="509" y="295" type="line"/>
      <point x="500" y="320" type="line" smooth="yes"/>
      <point x="494" y="337"/>
      <point x="485" y="352"/>
      <point x="473" y="364" type="curve"/>
      <point x="480" y="370"/>
      <point x="484" y="375"/>
      <point x="486" y="379" type="curve" smooth="yes"/>
      <point x="493" y="398" type="line"/>
      <point x="495" y="417" type="line"/>
      <point x="495" y="447"/>
      <point x="475" y="484"/>
      <point x="449" y="495" type="curve" smooth="yes"/>
      <point x="439" y="499"/>
      <point x="429" y="504"/>
      <point x="417" y="505" type="curve" smooth="yes"/>
      <point x="389" y="507" type="line" smooth="yes"/>
      <point x="386" y="507"/>
      <point x="383" y="507"/>
      <point x="379" y="507" type="curve" smooth="yes"/>
      <point x="364" y="507"/>
      <point x="348" y="505"/>
      <point x="332" y="498" type="curve" smooth="yes"/>
      <point x="316" y="491"/>
      <point x="303" y="483"/>
      <point x="293" y="474" type="curve" smooth="yes"/>
      <point x="283" y="465"/>
      <point x="276" y="452"/>
      <point x="272" y="439" type="curve"/>
      <point x="270" y="455"/>
      <point x="262" y="466"/>
      <point x="253" y="476" type="curve" smooth="yes"/>
      <point x="229" y="500"/>
      <point x="203" y="506"/>
      <point x="161" y="506" type="curve" smooth="yes"/>
      <point x="91" y="506"/>
      <point x="40" y="474"/>
      <point x="43" y="411" type="curve" smooth="yes"/>
      <point x="44" y="393" type="line"/>
      <point x="57" y="356" type="line"/>
    </contour>
    <contour>
      <point x="52" y="195" type="curve"/>
      <point x="52" y="211" type="line"/>
      <point x="53" y="225" type="line"/>
      <point x="53" y="264"/>
      <point x="70" y="323"/>
      <point x="96" y="341" type="curve" smooth="yes"/>
      <point x="102" y="345"/>
      <point x="107" y="351"/>
      <point x="114" y="352" type="curve" smooth="yes"/>
      <point x="133" y="355" type="line"/>
      <point x="352" y="356" type="line"/>
      <point x="395" y="355" type="line"/>
      <point x="458" y="348"/>
      <point x="483" y="281"/>
      <point x="483" y="229" type="curve" smooth="yes"/>
      <point x="483" y="225"/>
      <point x="483" y="222"/>
      <point x="483" y="218" type="curve" smooth="yes"/>
      <point x="483" y="93"/>
      <point x="445" y="42"/>
      <point x="371" y="42" type="curve" smooth="yes"/>
      <point x="320" y="42"/>
      <point x="295" y="74"/>
      <point x="295" y="138" type="curve" smooth="yes"/>
      <point x="295" y="255" type="line"/>
      <point x="245" y="255" type="line"/>
      <point x="245" y="138" type="line" smooth="yes"/>
      <point x="245" y="81"/>
      <point x="209" y="42"/>
      <point x="152" y="42" type="curve" smooth="yes"/>
      <point x="85" y="42"/>
      <point x="59" y="90"/>
    </contour>
    <contour>
      <point x="87" y="393" type="line"/>
      <point x="81" y="438"/>
      <point x="106" y="465"/>
      <point x="156" y="465" type="curve" smooth="yes"/>
      <point x="203" y="465"/>
      <point x="225" y="453"/>
      <point x="241" y="412" type="curve" smooth="yes"/>
      <point x="243" y="408"/>
      <point x="242" y="401"/>
      <point x="242" y="393" type="curve"/>
    </contour>
    <contour>
      <point x="297" y="393" type="line"/>
      <point x="297" y="438"/>
      <point x="337" y="465"/>
      <point x="384" y="465" type="curve" smooth="yes"/>
      <point x="417" y="465"/>
      <point x="439" y="455"/>
      <point x="448" y="435" type="curve" smooth="yes"/>
      <point x="452" y="427"/>
      <point x="454" y="419"/>
      <point x="454" y="413" type="curve" smooth="yes"/>
      <point x="454" y="403"/>
      <point x="451" y="393"/>
      <point x="445" y="383" type="curve"/>
      <point x="425" y="391" type="line" smooth="yes"/>
      <point x="420" y="393"/>
      <point x="410" y="393"/>
      <point x="393" y="393" type="curve" smooth="yes"/>
    </contour>
    <component base="sinMatraRr" xOffset="500"/>
  </outline>
</glyph>
<glyph name="uni0D8E" format="1">
  <advance width="2116"/>
  <unicode hex="0D8E"/>
  <note>
    uni0D8E
  </note>
  <outline>
    <contour>
      <point x="460" y="-4"/>
      <point x="537" y="84"/>
      <point x="549" y="137" type="curve"/>
      <point x="565" y="92" type="line"/>
      <point x="598" y="55" type="line" smooth="yes"/>
      <point x="633" y="16"/>
      <point x="685" y="-4"/>
      <point x="754" y="-4" type="curve" smooth="yes"/>
      <point x="946" y="-4"/>
      <point x="1050" y="109"/>
      <point x="1065" y="334" type="curve" smooth="yes"/>
      <point x="1071" y="422" type="line"/>
      <point x="1069" y="469" type="line"/>
      <point x="1059" y="545" type="line"/>
      <point x="1042" y="604" type="line"/>
      <point x="1024" y="655" type="line" smooth="yes"/>
      <point x="1011" y="691"/>
      <point x="993" y="721"/>
      <point x="969" y="745" type="curve"/>
      <point x="983" y="757"/>
      <point x="992" y="767"/>
      <point x="995" y="776" type="curve"/>
      <point x="1010" y="815" type="line"/>
      <point x="1014" y="854" type="line"/>
      <point x="1014" y="915"/>
      <point x="973" y="993"/>
      <point x="920" y="1014" type="curve"/>
      <point x="900" y="1025"/>
      <point x="878" y="1032"/>
      <point x="854" y="1034" type="curve" smooth="yes"/>
      <point x="797" y="1038" type="line" smooth="yes"/>
      <point x="790" y="1039"/>
      <point x="784" y="1039"/>
      <point x="777" y="1039" type="curve" smooth="yes"/>
      <point x="745" y="1039"/>
      <point x="712" y="1032"/>
      <point x="680" y="1020" type="curve"/>
      <point x="647" y="1003"/>
      <point x="621" y="987"/>
      <point x="600" y="971" type="curve"/>
      <point x="579" y="950"/>
      <point x="565" y="926"/>
      <point x="557" y="899" type="curve"/>
      <point x="552" y="932"/>
      <point x="539" y="957"/>
      <point x="518" y="975" type="curve"/>
      <point x="499" y="998"/>
      <point x="478" y="1012"/>
      <point x="457" y="1016" type="curve"/>
      <point x="440" y="1023"/>
      <point x="419" y="1028"/>
      <point x="395" y="1030" type="curve" smooth="yes"/>
      <point x="330" y="1036" type="line"/>
      <point x="276" y="1032" type="line"/>
      <point x="229" y="1022" type="line"/>
      <point x="156" y="998"/>
      <point x="83" y="945"/>
      <point x="88" y="842" type="curve" smooth="yes"/>
      <point x="90" y="805" type="line"/>
      <point x="117" y="729" type="line"/>
      <point x="45" y="657"/>
      <point x="12" y="473"/>
      <point x="16" y="397" type="curve" smooth="yes"/>
      <point x="20" y="328" type="line"/>
      <point x="31" y="242" type="line" smooth="yes"/>
      <point x="50" y="97"/>
      <point x="170" y="-4"/>
      <point x="317" y="-4" type="curve" smooth="yes"/>
    </contour>
    <contour>
      <point x="155" y="86"/>
      <point x="117" y="256"/>
      <point x="113" y="303" type="curve" smooth="yes"/>
      <point x="106" y="399" type="line"/>
      <point x="106" y="432" type="line"/>
      <point x="109" y="461" type="line"/>
      <point x="109" y="541"/>
      <point x="144" y="663"/>
      <point x="197" y="698" type="curve"/>
      <point x="208" y="708"/>
      <point x="220" y="716"/>
      <point x="233" y="721" type="curve"/>
      <point x="272" y="727" type="line"/>
      <point x="721" y="729" type="line"/>
      <point x="809" y="727" type="line"/>
      <point x="939" y="712"/>
      <point x="990" y="576"/>
      <point x="990" y="469" type="curve" smooth="yes"/>
      <point x="990" y="461"/>
      <point x="990" y="454"/>
      <point x="989" y="446" type="curve" smooth="yes"/>
      <point x="983" y="360" type="line"/>
      <point x="967" y="283" type="line"/>
      <point x="931" y="176"/>
      <point x="892" y="86"/>
      <point x="760" y="86" type="curve" smooth="yes"/>
      <point x="656" y="86"/>
      <point x="604" y="152"/>
      <point x="604" y="283" type="curve" smooth="yes"/>
      <point x="604" y="522" type="line"/>
      <point x="502" y="522" type="line"/>
      <point x="502" y="283" type="line" smooth="yes"/>
      <point x="502" y="166"/>
      <point x="428" y="86"/>
      <point x="311" y="86" type="curve" smooth="yes"/>
    </contour>
    <contour>
      <point x="181" y="830"/>
      <point x="186" y="855"/>
      <point x="193" y="881" type="curve"/>
      <point x="205" y="910"/>
      <point x="219" y="928"/>
      <point x="236" y="936" type="curve"/>
      <point x="268" y="948" type="line"/>
      <point x="273" y="951"/>
      <point x="290" y="952"/>
      <point x="319" y="952" type="curve" smooth="yes"/>
      <point x="415" y="952"/>
      <point x="458" y="928"/>
      <point x="494" y="844" type="curve"/>
      <point x="495" y="835"/>
      <point x="496" y="822"/>
      <point x="496" y="805" type="curve"/>
      <point x="178" y="805" type="line"/>
    </contour>
    <contour>
      <point x="1275" y="93"/>
      <point x="1176" y="149"/>
      <point x="1176" y="230" type="curve" smooth="yes"/>
      <point x="1176" y="343"/>
      <point x="1206" y="412"/>
      <point x="1266" y="439" type="curve" smooth="yes"/>
      <point x="1471" y="531" type="line"/>
      <point x="1471" y="93" type="line"/>
      <point x="1354" y="93" type="line" smooth="yes"/>
    </contour>
    <contour>
      <point x="870" y="801" type="line"/>
      <point x="861" y="804"/>
      <point x="839" y="805"/>
      <point x="805" y="805" type="curve" smooth="yes"/>
      <point x="608" y="805" type="line"/>
      <point x="608" y="897"/>
      <point x="690" y="952"/>
      <point x="786" y="952" type="curve" smooth="yes"/>
      <point x="855" y="952"/>
      <point x="899" y="932"/>
      <point x="918" y="891" type="curve" smooth="yes"/>
      <point x="926" y="874"/>
      <point x="930" y="859"/>
      <point x="930" y="846" type="curve" smooth="yes"/>
      <point x="930" y="825"/>
      <point x="924" y="805"/>
      <point x="911" y="784" type="curve"/>
    </contour>
    <contour>
      <point x="1520" y="44" type="line"/>
      <point x="1520" y="701" type="line" smooth="yes"/>
      <point x="1520" y="825"/>
      <point x="1412" y="914"/>
      <point x="1287" y="914" type="curve" smooth="yes"/>
      <point x="1210" y="914"/>
      <point x="1151" y="876"/>
      <point x="1109" y="800" type="curve" smooth="yes"/>
      <point x="1098" y="780"/>
      <point x="1089" y="764"/>
      <point x="1082" y="753" type="curve"/>
      <point x="1077" y="739"/>
      <point x="1074" y="712"/>
      <point x="1074" y="673" type="curve"/>
      <point x="1115" y="669" type="line"/>
      <point x="1144" y="792"/>
      <point x="1199" y="853"/>
      <point x="1279" y="853" type="curve" smooth="yes"/>
      <point x="1404" y="853"/>
      <point x="1467" y="766"/>
      <point x="1467" y="591" type="curve"/>
      <point x="1242" y="484" type="line" smooth="yes"/>
      <point x="1225" y="476"/>
      <point x="1210" y="467"/>
      <point x="1195" y="456" type="curve" smooth="yes"/>
      <point x="1110" y="393"/>
      <point x="1072" y="348"/>
      <point x="1072" y="261" type="curve" smooth="yes"/>
      <point x="1072" y="157"/>
      <point x="1137" y="41"/>
      <point x="1236" y="42" type="curve" smooth="yes"/>
    </contour>
    <contour>
      <point x="1806" y="47"/>
      <point x="1707" y="103"/>
      <point x="1707" y="184" type="curve" smooth="yes"/>
      <point x="1707" y="297"/>
      <point x="1737" y="366"/>
      <point x="1797" y="393" type="curve" smooth="yes"/>
      <point x="2002" y="485" type="line"/>
      <point x="2002" y="47" type="line"/>
      <point x="1885" y="47" type="line" smooth="yes"/>
    </contour>
    <contour>
      <point x="2051" y="-2" type="line"/>
      <point x="2051" y="655" type="line" smooth="yes"/>
      <point x="2051" y="779"/>
      <point x="1943" y="868"/>
      <point x="1818" y="868" type="curve" smooth="yes"/>
      <point x="1741" y="868"/>
      <point x="1682" y="830"/>
      <point x="1640" y="754" type="curve" smooth="yes"/>
      <point x="1629" y="734"/>
      <point x="1620" y="718"/>
      <point x="1613" y="707" type="curve"/>
      <point x="1608" y="693"/>
      <point x="1605" y="666"/>
      <point x="1605" y="627" type="curve"/>
      <point x="1646" y="623" type="line"/>
      <point x="1675" y="746"/>
      <point x="1730" y="807"/>
      <point x="1810" y="807" type="curve" smooth="yes"/>
      <point x="1935" y="807"/>
      <point x="1998" y="720"/>
      <point x="1998" y="545" type="curve"/>
      <point x="1773" y="438" type="line" smooth="yes"/>
      <point x="1756" y="430"/>
      <point x="1741" y="421"/>
      <point x="1726" y="410" type="curve" smooth="yes"/>
      <point x="1641" y="347"/>
      <point x="1603" y="302"/>
      <point x="1603" y="215" type="curve" smooth="yes"/>
      <point x="1603" y="111"/>
      <point x="1668" y="-5"/>
      <point x="1767" y="-4" type="curve" smooth="yes"/>
    </contour>
  </outline>
</glyph>
<glyph name="uni0D8F" format="1">
  <advance width="1355"/>
  <unicode hex="0D8F"/>
  <note>
    uni0D8F
  </note>
  <outline>
    <contour>
      <point x="776" y="6" type="line"/>
      <point x="868" y="27" type="line" smooth="yes"/>
      <point x="1037" y="64"/>
      <point x="1162" y="269"/>
      <point x="1167" y="444" type="curve" smooth="yes"/>
      <point x="1169" y="510" type="line" smooth="yes"/>
      <point x="1172" y="603"/>
      <point x="1151" y="680"/>
      <point x="1104" y="741" type="curve" smooth="yes"/>
      <point x="1068" y="785"/>
      <point x="1034" y="805"/>
      <point x="971" y="805" type="curve" smooth="yes"/>
      <point x="739" y="805" type="line"/>
      <point x="739" y="886"/>
      <point x="804" y="950"/>
      <point x="887" y="950" type="curve" smooth="yes"/>
      <point x="920" y="950"/>
      <point x="948" y="945"/>
      <point x="973" y="936" type="curve"/>
      <point x="998" y="922"/>
      <point x="1015" y="910"/>
      <point x="1024" y="901" type="curve"/>
      <point x="1036" y="885"/>
      <point x="1042" y="865"/>
      <point x="1042" y="842" type="curve"/>
      <point x="1036" y="799" type="line"/>
      <point x="1079" y="799" type="line"/>
      <point x="1112" y="801" type="line"/>
      <point x="1118" y="840" type="line"/>
      <point x="1118" y="926"/>
      <point x="1084" y="983"/>
      <point x="1016" y="1012" type="curve" smooth="yes"/>
      <point x="972" y="1029"/>
      <point x="934" y="1037"/>
      <point x="901" y="1036" type="curve"/>
      <point x="840" y="1032" type="line"/>
      <point x="755" y="1017"/>
      <point x="703" y="970"/>
      <point x="682" y="891" type="curve"/>
      <point x="670" y="947"/>
      <point x="644" y="984"/>
      <point x="604" y="1001" type="curve"/>
      <point x="563" y="1024"/>
      <point x="508" y="1036"/>
      <point x="438" y="1036" type="curve" smooth="yes"/>
      <point x="334" y="1036"/>
      <point x="235" y="937"/>
      <point x="240" y="834" type="curve" smooth="yes"/>
      <point x="242" y="803" type="line"/>
      <point x="328" y="803" type="line"/>
      <point x="328" y="871"/>
      <point x="352" y="915"/>
      <point x="401" y="934" type="curve"/>
      <point x="420" y="945"/>
      <point x="448" y="950"/>
      <point x="485" y="950" type="curve" smooth="yes"/>
      <point x="571" y="950"/>
      <point x="614" y="902"/>
      <point x="614" y="805" type="curve"/>
      <point x="446" y="805" type="line"/>
      <point x="377" y="793" type="line"/>
      <point x="352" y="786"/>
      <point x="324" y="771"/>
      <point x="293" y="750" type="curve" smooth="yes"/>
      <point x="224" y="703"/>
      <point x="190" y="604"/>
      <point x="190" y="453" type="curve" smooth="yes"/>
      <point x="190" y="258"/>
      <point x="279" y="98"/>
      <point x="451" y="35" type="curve" smooth="yes"/>
      <point x="498" y="18" type="line"/>
      <point x="537" y="12" type="line" smooth="yes"/>
      <point x="606" y="1"/>
      <point x="650" y="-3"/>
      <point x="668" y="-2" type="curve" smooth="yes"/>
    </contour>
    <contour>
      <point x="184" y="348"/>
      <point x="164" y="389"/>
      <point x="145" y="430" type="curve" smooth="yes"/>
      <point x="115" y="501"/>
      <point x="100" y="566"/>
      <point x="100" y="623" type="curve" smooth="yes"/>
      <point x="100" y="724"/>
      <point x="143" y="808"/>
      <point x="229" y="877" type="curve"/>
      <point x="270" y="958" type="line"/>
      <point x="259" y="960"/>
      <point x="249" y="961"/>
      <point x="238" y="961" type="curve" smooth="yes"/>
      <point x="101" y="961"/>
      <point x="29" y="804"/>
      <point x="20" y="635" type="curve" smooth="yes"/>
      <point x="17" y="528"/>
      <point x="115" y="354"/>
      <point x="203" y="307" type="curve"/>
    </contour>
    <contour>
      <point x="497" y="84"/>
      <point x="385" y="128"/>
      <point x="334" y="217" type="curve"/>
      <point x="324" y="232"/>
      <point x="314" y="254"/>
      <point x="305" y="281" type="curve"/>
      <point x="282" y="340"/>
      <point x="271" y="401"/>
      <point x="274" y="465" type="curve" smooth="yes"/>
      <point x="276" y="516" type="line"/>
      <point x="289" y="594" type="line"/>
      <point x="316" y="683"/>
      <point x="387" y="727"/>
      <point x="502" y="727" type="curve" smooth="yes"/>
      <point x="928" y="729" type="line" smooth="yes"/>
      <point x="1030" y="729"/>
      <point x="1081" y="651"/>
      <point x="1081" y="496" type="curve" smooth="yes"/>
      <point x="1081" y="461" type="line" smooth="yes"/>
      <point x="1081" y="218"/>
      <point x="917" y="84"/>
      <point x="672" y="84" type="curve" smooth="yes"/>
    </contour>
    <contour>
      <point x="1236" y="321"/>
      <point x="1332" y="495"/>
      <point x="1329" y="602" type="curve" smooth="yes"/>
      <point x="1324" y="774"/>
      <point x="1243" y="924"/>
      <point x="1112" y="932" type="curve"/>
      <point x="1120" y="844" type="line"/>
      <point x="1207" y="775"/>
      <point x="1251" y="691"/>
      <point x="1251" y="590" type="curve" smooth="yes"/>
      <point x="1251" y="531"/>
      <point x="1236" y="467"/>
      <point x="1206" y="397" type="curve" smooth="yes"/>
      <point x="1187" y="356"/>
      <point x="1168" y="315"/>
      <point x="1147" y="274" type="curve"/>
    </contour>
  </outline>
</glyph>
